Nobile-Extra-Light.ufo
<glyph name="exclam" format="1">
  <advance width="476"/>
  <unicode hex="0021"/>
  <outline>
    <contour>
      <point x="230" y="0" type="curve" smooth="yes"/>
      <point x="277" y="0"/>
      <point x="300" y="35"/>
      <point x="300" y="70" type="curve" smooth="yes"/>
      <point x="300" y="106"/>
      <point x="277" y="141"/>
      <point x="230" y="141" type="curve" smooth="yes"/>
      <point x="183" y="141"/>
      <point x="160" y="106"/>
      <point x="160" y="70" type="curve" smooth="yes"/>
      <point x="160" y="35"/>
      <point x="183" y="0"/>
    </contour>
    <contour>
      <point x="207" y="321" type="line"/>
      <point x="247" y="321" type="line"/>
      <point x="276" y="1620" type="line"/>
      <point x="178" y="1620" type="line"/>
    </contour>
  </outline>
</glyph>
<glyph name="quotedbl" format="1">
  <advance width="387"/>
  <unicode hex="0022"/>
  <outline>
    <contour>
      <point x="79" y="1096" type="line"/>
      <point x="119" y="1096" type="line"/>
      <point x="138" y="1433" type="line"/>
      <point x="138" y="1515" type="line"/>
      <point x="52" y="1515" type="line"/>
      <point x="52" y="1431" type="line"/>
    </contour>
    <contour>
      <point x="284" y="1096" type="line"/>
      <point x="324" y="1096" type="line"/>
      <point x="344" y="1433" type="line"/>
      <point x="344" y="1515" type="line"/>
      <point x="258" y="1515" type="line"/>
      <point x="258" y="1431" type="line"/>
    </contour>
  </outline>
</glyph>
<glyph name="numbersign" format="1">
  <advance width="1290"/>
  <unicode hex="0023"/>
  <outline>
    <contour>
      <point x="221" y="0" type="line"/>
      <point x="279" y="0" type="line"/>
      <point x="578" y="1515" type="line"/>
      <point x="512" y="1515" type="line"/>
    </contour>
    <contour>
      <point x="123" y="518" type="line"/>
      <point x="1154" y="518" type="line"/>
      <point x="1154" y="564" type="line"/>
      <point x="123" y="564" type="line"/>
    </contour>
    <contour>
      <point x="151" y="892" type="line"/>
      <point x="1182" y="892" type="line"/>
      <point x="1182" y="938" type="line"/>
      <point x="151" y="938" type="line"/>
    </contour>
    <contour>
      <point x="698" y="0" type="line"/>
      <point x="755" y="0" type="line"/>
      <point x="1055" y="1515" type="line"/>
      <point x="989" y="1515" type="line"/>
    </contour>
  </outline>
</glyph>
<glyph name="dollar" format="1">
  <advance width="886"/>
  <unicode hex="0024"/>
  <outline>
    <contour>
      <point x="381" y="-182" type="line"/>
      <point x="437" y="-182" type="line"/>
      <point x="530" y="1515" type="line"/>
      <point x="474" y="1515" type="line"/>
    </contour>
    <component base="s" yOffset="88"/>
  </outline>
</glyph>
<glyph name="percent" format="1">
  <advance width="1771"/>
  <unicode hex="0025"/>
  <outline>
    <contour>
      <point x="425" y="847" type="curve" smooth="yes"/>
      <point x="305" y="847"/>
      <point x="229" y="961"/>
      <point x="229" y="1144" type="curve" smooth="yes"/>
      <point x="229" y="1337"/>
      <point x="305" y="1458"/>
      <point x="425" y="1458" type="curve" smooth="yes"/>
      <point x="545" y="1458"/>
      <point x="622" y="1337"/>
      <point x="622" y="1144" type="curve" smooth="yes"/>
      <point x="622" y="961"/>
      <point x="545" y="847"/>
    </contour>
    <contour>
      <point x="425" y="768" type="curve" smooth="yes"/>
      <point x="602" y="768"/>
      <point x="713" y="913"/>
      <point x="713" y="1145" type="curve" smooth="yes"/>
      <point x="713" y="1382"/>
      <point x="602" y="1532"/>
      <point x="425" y="1532" type="curve" smooth="yes"/>
      <point x="248" y="1532"/>
      <point x="137" y="1382"/>
      <point x="137" y="1145" type="curve" smooth="yes"/>
      <point x="137" y="913"/>
      <point x="248" y="768"/>
    </contour>
    <contour>
      <point x="458" y="-40" type="line"/>
      <point x="1392" y="1507" type="line"/>
      <point x="1329" y="1539" type="line"/>
      <point x="393" y="-12" type="line"/>
    </contour>
    <contour>
      <point x="1360" y="63" type="curve" smooth="yes"/>
      <point x="1240" y="63"/>
      <point x="1164" y="177"/>
      <point x="1164" y="360" type="curve" smooth="yes"/>
      <point x="1164" y="553"/>
      <point x="1240" y="673"/>
      <point x="1360" y="673" type="curve" smooth="yes"/>
      <point x="1480" y="673"/>
      <point x="1557" y="553"/>
      <point x="1557" y="360" type="curve" smooth="yes"/>
      <point x="1557" y="177"/>
      <point x="1480" y="63"/>
    </contour>
    <contour>
      <point x="1360" y="-17" type="curve" smooth="yes"/>
      <point x="1537" y="-17"/>
      <point x="1648" y="129"/>
      <point x="1648" y="361" type="curve" smooth="yes"/>
      <point x="1648" y="598"/>
      <point x="1537" y="747"/>
      <point x="1360" y="747" type="curve" smooth="yes"/>
      <point x="1183" y="747"/>
      <point x="1072" y="598"/>
      <point x="1072" y="361" type="curve" smooth="yes"/>
      <point x="1072" y="129"/>
      <point x="1183" y="-17"/>
    </contour>
  </outline>
</glyph>
<glyph name="ampersand" format="1">
  <advance width="1571"/>
  <unicode hex="0026"/>
  <outline>
    <contour>
      <point x="591" y="866" type="line"/>
      <point x="858" y="956"/>
      <point x="1040" y="1061"/>
      <point x="1046" y="1225" type="curve" smooth="yes"/>
      <point x="1054" y="1480"/>
      <point x="845" y="1532"/>
      <point x="630" y="1532" type="curve" smooth="yes"/>
      <point x="405" y="1532"/>
      <point x="237" y="1468"/>
      <point x="237" y="1216" type="curve" smooth="yes"/>
      <point x="237" y="1075"/>
      <point x="339" y="985"/>
      <point x="463" y="885" type="curve"/>
      <point x="199" y="806"/>
      <point x="117" y="631"/>
      <point x="117" y="421" type="curve" smooth="yes"/>
      <point x="117" y="63"/>
      <point x="422" y="-17"/>
      <point x="678" y="-17" type="curve" smooth="yes"/>
      <point x="1028" y="-17"/>
      <point x="1198" y="20"/>
      <point x="1298" y="239" type="curve"/>
      <point x="1531" y="58" type="line"/>
      <point x="1565" y="109" type="line"/>
      <point x="1319" y="304" type="line"/>
      <point x="1370" y="461"/>
      <point x="1365" y="607"/>
      <point x="1365" y="827" type="curve"/>
      <point x="1291" y="826" type="line"/>
      <point x="1291" y="595"/>
      <point x="1291" y="488"/>
      <point x="1257" y="344" type="curve"/>
    </contour>
    <contour>
      <point x="673" y="59" type="curve" smooth="yes"/>
      <point x="528" y="59"/>
      <point x="206" y="93"/>
      <point x="206" y="421" type="curve" smooth="yes"/>
      <point x="206" y="630"/>
      <point x="284" y="769"/>
      <point x="512" y="840" type="curve"/>
      <point x="1232" y="277" type="line"/>
      <point x="1140" y="77"/>
      <point x="1011" y="59"/>
    </contour>
    <contour>
      <point x="539" y="912" type="curve"/>
      <point x="431" y="993"/>
      <point x="318" y="1085"/>
      <point x="318" y="1223" type="curve" smooth="yes"/>
      <point x="318" y="1440"/>
      <point x="475" y="1466"/>
      <point x="631" y="1466" type="curve" smooth="yes"/>
      <point x="810" y="1466"/>
      <point x="980" y="1424"/>
      <point x="971" y="1228" type="curve" smooth="yes"/>
      <point x="965" y="1092"/>
      <point x="802" y="1000"/>
    </contour>
  </outline>
</glyph>
<glyph name="quotesingle" format="1">
  <advance width="224"/>
  <unicode hex="0027"/>
  <outline>
    <contour>
      <point x="94" y="1172" type="line"/>
      <point x="137" y="1172" type="line"/>
      <point x="158" y="1533" type="line"/>
      <point x="158" y="1620" type="line"/>
      <point x="66" y="1620" type="line"/>
      <point x="66" y="1530" type="line"/>
    </contour>
  </outline>
</glyph>
<glyph name="parenleft" format="1">
  <advance width="575"/>
  <unicode hex="0028"/>
  <outline>
    <contour>
      <point x="440" y="-138" type="curve"/>
      <point x="481" y="-96" type="line"/>
      <point x="326" y="58"/>
      <point x="248" y="404"/>
      <point x="248" y="749" type="curve" smooth="yes"/>
      <point x="248" y="1095"/>
      <point x="326" y="1440"/>
      <point x="481" y="1594" type="curve"/>
      <point x="440" y="1636" type="line"/>
      <point x="250" y="1478"/>
      <point x="155" y="1114"/>
      <point x="155" y="749" type="curve" smooth="yes"/>
      <point x="155" y="384"/>
      <point x="250" y="21"/>
    </contour>
  </outline>
</glyph>
<glyph name="parenright" format="1">
  <advance width="575"/>
  <unicode hex="0029"/>
  <outline>
    <contour>
      <point x="136" y="-138" type="line"/>
      <point x="326" y="21"/>
      <point x="421" y="384"/>
      <point x="421" y="749" type="curve" smooth="yes"/>
      <point x="421" y="1114"/>
      <point x="326" y="1478"/>
      <point x="136" y="1636" type="curve"/>
      <point x="95" y="1594" type="line"/>
      <point x="250" y="1440"/>
      <point x="328" y="1095"/>
      <point x="328" y="749" type="curve" smooth="yes"/>
      <point x="328" y="404"/>
      <point x="250" y="58"/>
      <point x="95" y="-96" type="curve"/>
    </contour>
  </outline>
</glyph>
<glyph name="asterisk" format="1">
  <advance width="952"/>
  <unicode hex="002A"/>
  <outline>
    <contour>
      <point x="309" y="775" type="line"/>
      <point x="467" y="1053" type="line"/>
      <point x="624" y="775" type="line"/>
      <point x="681" y="807" type="line"/>
      <point x="506" y="1075" type="line"/>
      <point x="808" y="1071" type="line"/>
      <point x="808" y="1129" type="line"/>
      <point x="507" y="1123" type="line"/>
      <point x="677" y="1393" type="line"/>
      <point x="624" y="1424" type="line"/>
      <point x="467" y="1135" type="line"/>
      <point x="309" y="1424" type="line"/>
      <point x="256" y="1393" type="line"/>
      <point x="426" y="1123" type="line"/>
      <point x="125" y="1129" type="line"/>
      <point x="125" y="1071" type="line"/>
      <point x="427" y="1075" type="line"/>
      <point x="252" y="807" type="line"/>
    </contour>
  </outline>
</glyph>
<glyph name="plus" format="1">
  <advance width="908"/>
  <unicode hex="002B"/>
  <outline>
    <contour>
      <point x="423" y="201" type="line"/>
      <point x="481" y="201" type="line"/>
      <point x="481" y="518" type="line"/>
      <point x="792" y="518" type="line"/>
      <point x="792" y="582" type="line"/>
      <point x="481" y="582" type="line"/>
      <point x="481" y="899" type="line"/>
      <point x="423" y="899" type="line"/>
      <point x="423" y="582" type="line"/>
      <point x="112" y="582" type="line"/>
      <point x="112" y="518" type="line"/>
      <point x="423" y="518" type="line"/>
    </contour>
  </outline>
</glyph>
<glyph name="comma" format="1">
  <advance width="387"/>
  <unicode hex="002C"/>
  <outline>
    <contour>
      <point x="136" y="-219" type="line"/>
      <point x="242" y="-188"/>
      <point x="250" y="-105"/>
      <point x="250" y="-19" type="curve" smooth="yes"/>
      <point x="250" y="-3"/>
      <point x="250" y="12"/>
      <point x="250" y="204" type="curve"/>
      <point x="145" y="204" type="line"/>
      <point x="145" y="28" type="line"/>
      <point x="207" y="28" type="line"/>
      <point x="207" y="-107"/>
      <point x="200" y="-157"/>
      <point x="122" y="-188" type="curve"/>
    </contour>
  </outline>
</glyph>
<glyph name="hyphen" format="1">
  <advance width="762"/>
  <unicode hex="002D"/>
  <outline>
    <contour>
      <point x="386" y="489" type="move" name="_mid"/>
    </contour>
    <contour>
      <point x="95" y="443" type="line"/>
      <point x="669" y="443" type="line"/>
      <point x="669" y="518" type="line"/>
      <point x="95" y="518" type="line"/>
    </contour>
  </outline>
</glyph>
<glyph name="period" format="1">
  <advance width="367"/>
  <unicode hex="002E"/>
  <outline>
    <contour>
      <point x="184" y="-24" type="curve" smooth="yes"/>
      <point x="223" y="-24"/>
      <point x="241" y="9"/>
      <point x="241" y="44" type="curve" smooth="yes"/>
      <point x="241" y="78"/>
      <point x="223" y="111"/>
      <point x="184" y="111" type="curve" smooth="yes"/>
      <point x="148" y="111"/>
      <point x="121" y="78"/>
      <point x="121" y="44" type="curve" smooth="yes"/>
      <point x="121" y="7"/>
      <point x="148" y="-24"/>
    </contour>
  </outline>
</glyph>
<glyph name="slash" format="1">
  <advance width="907"/>
  <unicode hex="002F"/>
  <outline>
    <contour>
      <point x="139" y="-175" type="line"/>
      <point x="835" y="1718" type="line"/>
      <point x="766" y="1748" type="line"/>
      <point x="72" y="-148" type="line"/>
    </contour>
  </outline>
</glyph>
<glyph name="zero" format="1">
  <advance width="1270"/>
  <unicode hex="0030"/>
  <outline>
    <contour>
      <point x="645" y="61" type="curve" smooth="yes"/>
      <point x="381" y="61"/>
      <point x="215" y="269"/>
      <point x="215" y="599" type="curve" smooth="yes"/>
      <point x="215" y="915"/>
      <point x="381" y="1113"/>
      <point x="645" y="1113" type="curve" smooth="yes"/>
      <point x="897" y="1113"/>
      <point x="1055" y="915"/>
      <point x="1055" y="599" type="curve" smooth="yes"/>
      <point x="1055" y="269"/>
      <point x="897" y="61"/>
    </contour>
    <contour>
      <point x="645" y="-18" type="curve" smooth="yes"/>
      <point x="964" y="-18"/>
      <point x="1164" y="220"/>
      <point x="1164" y="599" type="curve" smooth="yes"/>
      <point x="1164" y="962"/>
      <point x="964" y="1190"/>
      <point x="645" y="1190" type="curve" smooth="yes"/>
      <point x="314" y="1190"/>
      <point x="106" y="962"/>
      <point x="106" y="599" type="curve" smooth="yes"/>
      <point x="106" y="220"/>
      <point x="314" y="-18"/>
    </contour>
  </outline>
</glyph>
<glyph name="one" format="1">
  <advance width="1187"/>
  <unicode hex="0031"/>
  <outline>
    <contour>
      <point x="667" y="0" type="line"/>
      <point x="758" y="0" type="line"/>
      <point x="758" y="1096" type="line"/>
      <point x="654" y="1096" type="line"/>
      <point x="391" y="960" type="line"/>
      <point x="420" y="899" type="line"/>
      <point x="667" y="1027" type="line"/>
    </contour>
  </outline>
</glyph>
<glyph name="two" format="1">
  <advance width="1187"/>
  <unicode hex="0032"/>
  <outline>
    <contour>
      <point x="241" y="0" type="line"/>
      <point x="946" y="0" type="line"/>
      <point x="946" y="66" type="line"/>
      <point x="352" y="66" type="line"/>
      <point x="667" y="357" type="line" smooth="yes"/>
      <point x="789" y="469"/>
      <point x="933" y="606"/>
      <point x="933" y="798" type="curve" smooth="yes"/>
      <point x="933" y="1013"/>
      <point x="789" y="1113"/>
      <point x="572" y="1113" type="curve" smooth="yes"/>
      <point x="418" y="1113"/>
      <point x="320" y="1057"/>
      <point x="247" y="1010" type="curve"/>
      <point x="274" y="941" type="line"/>
      <point x="348" y="989"/>
      <point x="448" y="1041"/>
      <point x="572" y="1041" type="curve" smooth="yes"/>
      <point x="709" y="1041"/>
      <point x="844" y="992"/>
      <point x="844" y="798" type="curve" smooth="yes"/>
      <point x="844" y="630"/>
      <point x="741" y="535"/>
      <point x="614" y="415" type="curve" smooth="yes"/>
      <point x="241" y="63" type="line"/>
    </contour>
  </outline>
</glyph>
<glyph name="three" format="1">
  <advance width="1187"/>
  <unicode hex="0033"/>
  <outline>
    <contour>
      <point x="887" y="154" type="curve" smooth="yes"/>
      <point x="887" y="-44"/>
      <point x="760" y="-127"/>
      <point x="579" y="-127" type="curve" smooth="yes"/>
      <point x="478" y="-127"/>
      <point x="368" y="-111"/>
      <point x="267" y="-65" type="curve"/>
      <point x="243" y="-132" type="line"/>
      <point x="351" y="-179"/>
      <point x="470" y="-199"/>
      <point x="579" y="-199" type="curve" smooth="yes"/>
      <point x="795" y="-199"/>
      <point x="973" y="-98"/>
      <point x="973" y="149" type="curve" smooth="yes"/>
      <point x="973" y="359"/>
      <point x="846" y="474"/>
      <point x="635" y="505" type="curve"/>
      <point x="771" y="505"/>
      <point x="928" y="568"/>
      <point x="928" y="798" type="curve" smooth="yes"/>
      <point x="928" y="1013"/>
      <point x="785" y="1113"/>
      <point x="568" y="1113" type="curve" smooth="yes"/>
      <point x="414" y="1113"/>
      <point x="315" y="1057"/>
      <point x="242" y="1010" type="curve"/>
      <point x="269" y="941" type="line"/>
      <point x="343" y="989"/>
      <point x="444" y="1041"/>
      <point x="568" y="1041" type="curve" smooth="yes"/>
      <point x="705" y="1041"/>
      <point x="841" y="992"/>
      <point x="841" y="798" type="curve" smooth="yes"/>
      <point x="841" y="579"/>
      <point x="681" y="545"/>
      <point x="535" y="545" type="curve"/>
      <point x="535" y="469" type="line"/>
      <point x="769" y="433"/>
      <point x="887" y="364"/>
    </contour>
  </outline>
</glyph>
<glyph name="four" format="1">
  <advance width="1187"/>
  <unicode hex="0034"/>
  <outline>
    <contour>
      <point x="801" y="-265" type="line"/>
      <point x="891" y="-265" type="line"/>
      <point x="891" y="68" type="line"/>
      <point x="1080" y="68" type="line"/>
      <point x="1080" y="138" type="line"/>
      <point x="891" y="138" type="line"/>
      <point x="891" y="1102" type="line"/>
      <point x="797" y="1125" type="line"/>
      <point x="139" y="127" type="line"/>
      <point x="159" y="68" type="line"/>
      <point x="801" y="68" type="line"/>
    </contour>
    <contour>
      <point x="238" y="137" type="line"/>
      <point x="801" y="1006" type="line"/>
      <point x="801" y="137" type="line"/>
    </contour>
  </outline>
</glyph>
<glyph name="five" format="1">
  <advance width="1187"/>
  <unicode hex="0035"/>
  <outline>
    <contour>
      <point x="599" y="-203" type="curve" smooth="yes"/>
      <point x="845" y="-203"/>
      <point x="1027" y="-54"/>
      <point x="1027" y="211" type="curve" smooth="yes"/>
      <point x="1027" y="460"/>
      <point x="893" y="634"/>
      <point x="627" y="634" type="curve" smooth="yes"/>
      <point x="505" y="634"/>
      <point x="417" y="588"/>
      <point x="367" y="546" type="curve"/>
      <point x="367" y="1026" type="line"/>
      <point x="942" y="1026" type="line"/>
      <point x="942" y="1096" type="line"/>
      <point x="300" y="1096" type="line"/>
      <point x="300" y="499" type="line"/>
      <point x="346" y="453" type="line"/>
      <point x="401" y="507"/>
      <point x="488" y="556"/>
      <point x="627" y="556" type="curve" smooth="yes"/>
      <point x="854" y="556"/>
      <point x="935" y="412"/>
      <point x="935" y="211" type="curve" smooth="yes"/>
      <point x="935" y="-6"/>
      <point x="814" y="-131"/>
      <point x="599" y="-131" type="curve" smooth="yes"/>
      <point x="455" y="-131"/>
      <point x="352" y="-83"/>
      <point x="278" y="-22" type="curve"/>
      <point x="251" y="-91" type="line"/>
      <point x="317" y="-142"/>
      <point x="435" y="-203"/>
    </contour>
  </outline>
</glyph>
<glyph name="six" format="1">
  <advance width="1270"/>
  <unicode hex="0036"/>
  <outline>
    <contour>
      <point x="694" y="-125" type="curve" smooth="yes"/>
      <point x="940" y="-125"/>
      <point x="1126" y="45"/>
      <point x="1126" y="369" type="curve" smooth="yes"/>
      <point x="1126" y="678"/>
      <point x="919" y="813"/>
      <point x="712" y="813" type="curve" smooth="yes"/>
      <point x="552" y="813"/>
      <point x="391" y="734"/>
      <point x="323" y="592" type="curve"/>
      <point x="347" y="915"/>
      <point x="540" y="1188"/>
      <point x="880" y="1286" type="curve"/>
      <point x="863" y="1359" type="line"/>
      <point x="458" y="1259"/>
      <point x="220" y="892"/>
      <point x="220" y="469" type="curve" smooth="yes"/>
      <point x="220" y="134"/>
      <point x="354" y="-125"/>
    </contour>
    <contour>
      <point x="695" y="-45" type="curve" smooth="yes"/>
      <point x="376" y="-45"/>
      <point x="316" y="256"/>
      <point x="316" y="448" type="curve" smooth="yes"/>
      <point x="316" y="472"/>
      <point x="317" y="494"/>
      <point x="318" y="513" type="curve"/>
      <point x="408" y="652"/>
      <point x="562" y="732"/>
      <point x="705" y="732" type="curve" smooth="yes"/>
      <point x="877" y="732"/>
      <point x="1031" y="615"/>
      <point x="1031" y="345" type="curve" smooth="yes"/>
      <point x="1031" y="122"/>
      <point x="894" y="-45"/>
    </contour>
  </outline>
</glyph>
<glyph name="seven" format="1">
  <advance width="1270"/>
  <unicode hex="0037"/>
  <outline>
    <contour>
      <point x="492" y="-219" type="line"/>
      <point x="1049" y="1098" type="line"/>
      <point x="1016" y="1172" type="line"/>
      <point x="211" y="1172" type="line"/>
      <point x="211" y="1089" type="line"/>
      <point x="951" y="1089" type="line"/>
      <point x="406" y="-187" type="line"/>
    </contour>
  </outline>
</glyph>
<glyph name="eight" format="1">
  <advance width="1270"/>
  <unicode hex="0038"/>
  <outline>
    <contour>
      <point x="644" y="-159" type="curve" smooth="yes"/>
      <point x="916" y="-159"/>
      <point x="1086" y="-4"/>
      <point x="1086" y="242" type="curve" smooth="yes"/>
      <point x="1086" y="429"/>
      <point x="975" y="576"/>
      <point x="799" y="623" type="curve"/>
      <point x="961" y="670"/>
      <point x="1062" y="806"/>
      <point x="1062" y="976" type="curve" smooth="yes"/>
      <point x="1062" y="1200"/>
      <point x="901" y="1340"/>
      <point x="644" y="1340" type="curve" smooth="yes"/>
      <point x="376" y="1340"/>
      <point x="207" y="1200"/>
      <point x="207" y="976" type="curve" smooth="yes"/>
      <point x="207" y="806"/>
      <point x="309" y="671"/>
      <point x="471" y="626" type="curve"/>
      <point x="295" y="581"/>
      <point x="184" y="433"/>
      <point x="184" y="242" type="curve" smooth="yes"/>
      <point x="184" y="-4"/>
      <point x="361" y="-159"/>
    </contour>
    <contour>
      <point x="644" y="-87" type="curve" smooth="yes"/>
      <point x="422" y="-87"/>
      <point x="282" y="40"/>
      <point x="282" y="242" type="curve" smooth="yes"/>
      <point x="282" y="456"/>
      <point x="422" y="591"/>
      <point x="644" y="591" type="curve" smooth="yes"/>
      <point x="855" y="591"/>
      <point x="988" y="456"/>
      <point x="988" y="242" type="curve" smooth="yes"/>
      <point x="988" y="40"/>
      <point x="855" y="-87"/>
    </contour>
    <contour>
      <point x="644" y="665" type="curve" smooth="yes"/>
      <point x="435" y="665"/>
      <point x="303" y="785"/>
      <point x="303" y="976" type="curve" smooth="yes"/>
      <point x="303" y="1156"/>
      <point x="435" y="1269"/>
      <point x="644" y="1269" type="curve" smooth="yes"/>
      <point x="842" y="1269"/>
      <point x="967" y="1156"/>
      <point x="967" y="976" type="curve" smooth="yes"/>
      <point x="967" y="785"/>
      <point x="842" y="665"/>
    </contour>
  </outline>
</glyph>
<glyph name="nine" format="1">
  <advance width="1270"/>
  <unicode hex="0039"/>
  <outline>
    <contour>
      <point x="441" y="-294" type="line"/>
      <point x="846" y="-194"/>
      <point x="1084" y="173"/>
      <point x="1084" y="596" type="curve" smooth="yes"/>
      <point x="1084" y="931"/>
      <point x="950" y="1190"/>
      <point x="610" y="1190" type="curve" smooth="yes"/>
      <point x="364" y="1190"/>
      <point x="178" y="1020"/>
      <point x="178" y="696" type="curve" smooth="yes"/>
      <point x="178" y="387"/>
      <point x="385" y="252"/>
      <point x="592" y="252" type="curve" smooth="yes"/>
      <point x="752" y="252"/>
      <point x="913" y="331"/>
      <point x="981" y="473" type="curve"/>
      <point x="957" y="150"/>
      <point x="749" y="-115"/>
      <point x="420" y="-219" type="curve"/>
    </contour>
    <contour>
      <point x="599" y="333" type="curve" smooth="yes"/>
      <point x="427" y="333"/>
      <point x="273" y="450"/>
      <point x="273" y="720" type="curve" smooth="yes"/>
      <point x="273" y="943"/>
      <point x="410" y="1110"/>
      <point x="609" y="1110" type="curve" smooth="yes"/>
      <point x="928" y="1110"/>
      <point x="988" y="809"/>
      <point x="988" y="617" type="curve" smooth="yes"/>
      <point x="988" y="593"/>
      <point x="987" y="571"/>
      <point x="986" y="552" type="curve"/>
      <point x="896" y="413"/>
      <point x="742" y="333"/>
    </contour>
  </outline>
</glyph>
<glyph name="colon" format="1">
  <advance width="403"/>
  <unicode hex="003A"/>
  <outline>
    <contour>
      <point x="184" y="0" type="line"/>
      <point x="259" y="0" type="line"/>
      <point x="259" y="200" type="line"/>
      <point x="184" y="200" type="line"/>
    </contour>
    <contour>
      <point x="184" y="501" type="line"/>
      <point x="259" y="501" type="line"/>
      <point x="259" y="703" type="line"/>
      <point x="184" y="703" type="line"/>
    </contour>
  </outline>
</glyph>
<glyph name="semicolon" format="1">
  <advance width="419"/>
  <unicode hex="003B"/>
  <outline>
    <contour>
      <point x="139" y="-224" type="line"/>
      <point x="224" y="-197"/>
      <point x="269" y="-123"/>
      <point x="269" y="5" type="curve" smooth="yes"/>
      <point x="269" y="228" type="line"/>
      <point x="194" y="228" type="line"/>
      <point x="194" y="0" type="line"/>
      <point x="230" y="0" type="line"/>
      <point x="230" y="-106"/>
      <point x="201" y="-173"/>
      <point x="128" y="-197" type="curve"/>
    </contour>
    <contour>
      <point x="196" y="501" type="line"/>
      <point x="270" y="501" type="line"/>
      <point x="270" y="703" type="line"/>
      <point x="196" y="703" type="line"/>
    </contour>
  </outline>
</glyph>
<glyph name="less" format="1">
  <advance width="1339"/>
  <unicode hex="003C"/>
  <outline>
    <contour>
      <point x="1090" y="197" type="line"/>
      <point x="1129" y="252" type="line"/>
      <point x="359" y="753" type="line"/>
      <point x="1129" y="1254" type="line"/>
      <point x="1090" y="1309" type="line"/>
      <point x="210" y="753" type="line"/>
    </contour>
  </outline>
</glyph>
<glyph name="equal" format="1">
  <advance width="720"/>
  <unicode hex="003D"/>
  <outline>
    <contour>
      <point x="80" y="347" type="line"/>
      <point x="640" y="347" type="line"/>
      <point x="640" y="409" type="line"/>
      <point x="80" y="409" type="line"/>
    </contour>
    <contour>
      <point x="80" y="622" type="line"/>
      <point x="640" y="622" type="line"/>
      <point x="640" y="683" type="line"/>
      <point x="80" y="683" type="line"/>
    </contour>
  </outline>
</glyph>
<glyph name="greater" format="1">
  <advance width="1454"/>
  <unicode hex="003E"/>
  <outline>
    <contour>
      <point x="300" y="197" type="line"/>
      <point x="1180" y="753" type="line"/>
      <point x="300" y="1309" type="line"/>
      <point x="261" y="1254" type="line"/>
      <point x="1031" y="753" type="line"/>
      <point x="261" y="252" type="line"/>
    </contour>
  </outline>
</glyph>
<glyph name="question" format="1">
  <advance width="1090"/>
  <unicode hex="003F"/>
  <outline>
    <contour>
      <point x="333" y="323" type="line"/>
      <point x="409" y="323" type="line"/>
      <point x="409" y="718" type="line"/>
      <point x="636" y="811"/>
      <point x="970" y="932"/>
      <point x="970" y="1269" type="curve" smooth="yes"/>
      <point x="970" y="1536"/>
      <point x="753" y="1638"/>
      <point x="513" y="1638" type="curve" smooth="yes"/>
      <point x="370" y="1638"/>
      <point x="217" y="1596"/>
      <point x="108" y="1536" type="curve"/>
      <point x="145" y="1463" type="line"/>
      <point x="247" y="1517"/>
      <point x="384" y="1553"/>
      <point x="512" y="1553" type="curve" smooth="yes"/>
      <point x="788" y="1553"/>
      <point x="875" y="1407"/>
      <point x="875" y="1255" type="curve" smooth="yes"/>
      <point x="875" y="959"/>
      <point x="583" y="871"/>
      <point x="333" y="758" type="curve"/>
    </contour>
    <contour>
      <point x="375" y="-18" type="curve" smooth="yes"/>
      <point x="413" y="-18"/>
      <point x="437" y="7"/>
      <point x="437" y="47" type="curve" smooth="yes"/>
      <point x="437" y="82"/>
      <point x="413" y="104"/>
      <point x="375" y="104" type="curve" smooth="yes"/>
      <point x="334" y="104"/>
      <point x="308" y="82"/>
      <point x="308" y="47" type="curve" smooth="yes"/>
      <point x="308" y="7"/>
      <point x="334" y="-18"/>
    </contour>
  </outline>
</glyph>
<glyph name="at" format="1">
  <advance width="1911"/>
  <unicode hex="0040"/>
  <outline>
    <contour>
      <point x="979" y="-85" type="curve" smooth="yes"/>
      <point x="1132" y="-85"/>
      <point x="1305" y="-57"/>
      <point x="1429" y="-12" type="curve"/>
      <point x="1401" y="71" type="line"/>
      <point x="1282" y="25"/>
      <point x="1119" y="-4"/>
      <point x="979" y="-4" type="curve" smooth="yes"/>
      <point x="511" y="-4"/>
      <point x="212" y="281"/>
      <point x="221" y="716" type="curve" smooth="yes"/>
      <point x="231" y="1250"/>
      <point x="558" y="1557"/>
      <point x="1052" y="1557" type="curve" smooth="yes"/>
      <point x="1492" y="1557"/>
      <point x="1748" y="1291"/>
      <point x="1748" y="871" type="curve" smooth="yes"/>
      <point x="1748" y="566"/>
      <point x="1650" y="378"/>
      <point x="1487" y="378" type="curve" smooth="yes"/>
      <point x="1432" y="378"/>
      <point x="1398" y="415"/>
      <point x="1398" y="475" type="curve" smooth="yes"/>
      <point x="1398" y="480"/>
      <point x="1399" y="485"/>
      <point x="1452" y="1098" type="curve" smooth="yes"/>
      <point x="1460" y="1189"/>
      <point x="1336" y="1253"/>
      <point x="1144" y="1253" type="curve" smooth="yes"/>
      <point x="786" y="1253"/>
      <point x="547" y="1009"/>
      <point x="547" y="633" type="curve" smooth="yes"/>
      <point x="547" y="450"/>
      <point x="667" y="295"/>
      <point x="880" y="295" type="curve" smooth="yes"/>
      <point x="1085" y="295"/>
      <point x="1289" y="455"/>
      <point x="1353" y="730" type="curve"/>
      <point x="1362" y="730" type="line"/>
      <point x="1357" y="696"/>
      <point x="1333" y="527"/>
      <point x="1333" y="457" type="curve" smooth="yes"/>
      <point x="1333" y="369"/>
      <point x="1399" y="324"/>
      <point x="1481" y="324" type="curve" smooth="yes"/>
      <point x="1704" y="324"/>
      <point x="1830" y="529"/>
      <point x="1830" y="874" type="curve" smooth="yes"/>
      <point x="1830" y="1343"/>
      <point x="1540" y="1637"/>
      <point x="1052" y="1637" type="curve" smooth="yes"/>
      <point x="489" y="1637"/>
      <point x="125" y="1289"/>
      <point x="125" y="716" type="curve" smooth="yes"/>
      <point x="125" y="231"/>
      <point x="461" y="-85"/>
    </contour>
    <contour>
      <point x="889" y="373" type="curve" smooth="yes"/>
      <point x="732" y="373"/>
      <point x="636" y="469"/>
      <point x="636" y="633" type="curve" smooth="yes"/>
      <point x="636" y="977"/>
      <point x="843" y="1186"/>
      <point x="1143" y="1188" type="curve" smooth="yes"/>
      <point x="1269" y="1188"/>
      <point x="1351" y="1158"/>
      <point x="1379" y="1137" type="curve"/>
      <point x="1349" y="665"/>
      <point x="1169" y="373"/>
    </contour>
  </outline>
</glyph>
<glyph name="A" format="1">
  <advance width="1337"/>
  <unicode hex="0041"/>
  <outline>
    <contour>
      <point x="1209" y="0" type="move" name="ogonek"/>
    </contour>
    <contour>
      <point x="662" y="1489" type="move" name="top"/>
    </contour>
    <contour>
      <point x="80" y="0" type="line"/>
      <point x="171" y="0" type="line"/>
      <point x="304" y="375" type="line"/>
      <point x="1034" y="375" type="line"/>
      <point x="1167" y="0" type="line"/>
      <point x="1258" y="0" type="line"/>
      <point x="731" y="1485" type="line"/>
      <point x="598" y="1485" type="line"/>
    </contour>
    <contour>
      <point x="328" y="451" type="line"/>
      <point x="666" y="1419" type="line"/>
      <point x="1006" y="451" type="line"/>
    </contour>
  </outline>
</glyph>
<glyph name="B" format="1">
  <advance width="1282"/>
  <unicode hex="0042"/>
  <outline>
    <contour>
      <point x="636" y="1498" type="move" name="top"/>
    </contour>
    <contour>
      <point x="168" y="0" type="line"/>
      <point x="539" y="0" type="line" smooth="yes"/>
      <point x="887" y="0"/>
      <point x="1165" y="52"/>
      <point x="1165" y="411" type="curve" smooth="yes"/>
      <point x="1165" y="658"/>
      <point x="1051" y="766"/>
      <point x="811" y="798" type="curve"/>
      <point x="991" y="834"/>
      <point x="1092" y="924"/>
      <point x="1092" y="1139" type="curve" smooth="yes"/>
      <point x="1092" y="1476"/>
      <point x="780" y="1485"/>
      <point x="503" y="1485" type="curve" smooth="yes"/>
      <point x="168" y="1485" type="line"/>
    </contour>
    <contour>
      <point x="260" y="85" type="line"/>
      <point x="260" y="761" type="line"/>
      <point x="571" y="761" type="line" smooth="yes"/>
      <point x="820" y="761"/>
      <point x="1086" y="724"/>
      <point x="1086" y="423" type="curve" smooth="yes"/>
      <point x="1086" y="85"/>
      <point x="801" y="85"/>
      <point x="526" y="85" type="curve" smooth="yes"/>
    </contour>
    <contour>
      <point x="260" y="840" type="line"/>
      <point x="260" y="1415" type="line"/>
      <point x="524" y="1415"/>
      <point x="536" y="1415"/>
      <point x="547" y="1415" type="curve" smooth="yes"/>
      <point x="786" y="1415"/>
      <point x="1010" y="1391"/>
      <point x="1010" y="1152" type="curve" smooth="yes"/>
      <point x="1010" y="872"/>
      <point x="799" y="840"/>
      <point x="572" y="840" type="curve" smooth="yes"/>
    </contour>
  </outline>
</glyph>
<glyph name="C" format="1">
  <advance width="1207"/>
  <unicode hex="0043"/>
  <outline>
    <contour>
      <point x="693" y="-4" type="move" name="bot"/>
    </contour>
    <contour>
      <point x="725" y="1488" type="move" name="top"/>
    </contour>
    <contour>
      <point x="734" y="-21" type="curve" smooth="yes"/>
      <point x="884" y="-21"/>
      <point x="1045" y="43"/>
      <point x="1136" y="108" type="curve"/>
      <point x="1099" y="169" type="line"/>
      <point x="1013" y="116"/>
      <point x="898" y="58"/>
      <point x="730" y="58" type="curve" smooth="yes"/>
      <point x="280" y="58"/>
      <point x="215" y="418"/>
      <point x="215" y="721" type="curve" smooth="yes"/>
      <point x="215" y="1014"/>
      <point x="287" y="1426"/>
      <point x="739" y="1426" type="curve" smooth="yes"/>
      <point x="914" y="1426"/>
      <point x="1032" y="1350"/>
      <point x="1061" y="1329" type="curve"/>
      <point x="1095" y="1394" type="line"/>
      <point x="1055" y="1425"/>
      <point x="916" y="1505"/>
      <point x="740" y="1505" type="curve" smooth="yes"/>
      <point x="265" y="1505"/>
      <point x="120" y="1122"/>
      <point x="120" y="722" type="curve" smooth="yes"/>
      <point x="120" y="353"/>
      <point x="234" y="-21"/>
    </contour>
  </outline>
</glyph>
<glyph name="D" format="1">
  <advance width="1479"/>
  <unicode hex="0044"/>
  <outline>
    <contour>
      <point x="691" y="1620" type="move" name="top"/>
    </contour>
    <contour>
      <point x="254" y="876" type="move" name="mid"/>
    </contour>
    <contour>
      <point x="278" y="84" type="line"/>
      <point x="278" y="1532" type="line"/>
      <point x="771" y="1532" type="line" smooth="yes"/>
      <point x="1155" y="1532"/>
      <point x="1251" y="1150"/>
      <point x="1251" y="811" type="curve" smooth="yes"/>
      <point x="1251" y="470"/>
      <point x="1168" y="84"/>
      <point x="771" y="84" type="curve" smooth="yes"/>
    </contour>
    <contour>
      <point x="180" y="0" type="line"/>
      <point x="750" y="0" type="line" smooth="yes"/>
      <point x="1232" y="0"/>
      <point x="1351" y="404"/>
      <point x="1351" y="811" type="curve" smooth="yes"/>
      <point x="1351" y="1215"/>
      <point x="1229" y="1616"/>
      <point x="750" y="1616" type="curve" smooth="yes"/>
      <point x="180" y="1616" type="line"/>
    </contour>
  </outline>
</glyph>
<glyph name="E" format="1">
  <advance width="1199"/>
  <unicode hex="0045"/>
  <outline>
    <contour>
      <point x="661" y="1620" type="move" name="top"/>
    </contour>
    <contour>
      <point x="826" y="0" type="move" name="ogonek"/>
    </contour>
    <contour>
      <point x="637" y="0" type="move" name="bot"/>
    </contour>
    <contour>
      <point x="180" y="0" type="line"/>
      <point x="1085" y="0" type="line"/>
      <point x="1085" y="84" type="line"/>
      <point x="278" y="84" type="line"/>
      <point x="278" y="809" type="line"/>
      <point x="972" y="809" type="line"/>
      <point x="972" y="893" type="line"/>
      <point x="278" y="893" type="line"/>
      <point x="278" y="1533" type="line"/>
      <point x="1099" y="1533" type="line"/>
      <point x="1099" y="1617" type="line"/>
      <point x="180" y="1616" type="line"/>
    </contour>
  </outline>
</glyph>
<glyph name="F" format="1">
  <advance width="1028"/>
  <unicode hex="0046"/>
  <outline>
    <contour>
      <point x="580" y="1489" type="move" name="top"/>
    </contour>
    <contour>
      <point x="168" y="0" type="line"/>
      <point x="260" y="0" type="line"/>
      <point x="260" y="766" type="line"/>
      <point x="928" y="766" type="line"/>
      <point x="928" y="839" type="line"/>
      <point x="260" y="839" type="line"/>
      <point x="260" y="1415" type="line"/>
      <point x="957" y="1415" type="line"/>
      <point x="957" y="1485" type="line"/>
      <point x="168" y="1485" type="line"/>
    </contour>
  </outline>
</glyph>
<glyph name="G" format="1">
  <advance width="1359"/>
  <unicode hex="0047"/>
  <outline>
    <contour>
      <point x="746" y="-4" type="move" name="bot"/>
    </contour>
    <contour>
      <point x="731" y="-21" type="curve" smooth="yes"/>
      <point x="960" y="-21"/>
      <point x="1081" y="68"/>
      <point x="1143" y="160" type="curve"/>
      <point x="1165" y="-4" type="line"/>
      <point x="1214" y="-4" type="line"/>
      <point x="1214" y="749" type="line"/>
      <point x="732" y="749" type="line"/>
      <point x="732" y="679" type="line"/>
      <point x="1129" y="679" type="line"/>
      <point x="1129" y="343" type="line" smooth="yes"/>
      <point x="1129" y="167"/>
      <point x="970" y="58"/>
      <point x="731" y="58" type="curve" smooth="yes"/>
      <point x="286" y="58"/>
      <point x="215" y="414"/>
      <point x="215" y="749" type="curve" smooth="yes"/>
      <point x="215" y="1024"/>
      <point x="299" y="1425"/>
      <point x="730" y="1425" type="curve" smooth="yes"/>
      <point x="924" y="1425"/>
      <point x="1075" y="1352"/>
      <point x="1126" y="1316" type="curve"/>
      <point x="1159" y="1382" type="line"/>
      <point x="1113" y="1418"/>
      <point x="945" y="1505"/>
      <point x="731" y="1505" type="curve" smooth="yes"/>
      <point x="269" y="1505"/>
      <point x="120" y="1121"/>
      <point x="120" y="749" type="curve" smooth="yes"/>
      <point x="120" y="330"/>
      <point x="253" y="-21"/>
    </contour>
  </outline>
</glyph>
<glyph name="H" format="1">
  <advance width="1408"/>
  <unicode hex="0048"/>
  <outline>
    <contour>
      <point x="721" y="1489" type="move" name="top"/>
    </contour>
    <contour>
      <point x="168" y="0" type="line"/>
      <point x="260" y="0" type="line"/>
      <point x="260" y="735" type="line"/>
      <point x="1148" y="735" type="line"/>
      <point x="1148" y="0" type="line"/>
      <point x="1240" y="0" type="line"/>
      <point x="1240" y="1485" type="line"/>
      <point x="1148" y="1485" type="line"/>
      <point x="1148" y="808" type="line"/>
      <point x="260" y="808" type="line"/>
      <point x="260" y="1485" type="line"/>
      <point x="168" y="1485" type="line"/>
    </contour>
  </outline>
</glyph>
<glyph name="I" format="1">
  <advance width="750"/>
  <unicode hex="0049"/>
  <outline>
    <contour>
      <point x="383" y="1620" type="move" name="top"/>
    </contour>
    <contour>
      <point x="390" y="0" type="move" name="ogonek"/>
    </contour>
    <contour>
      <point x="110" y="0" type="line"/>
      <point x="640" y="0" type="line"/>
      <point x="640" y="60" type="line"/>
      <point x="428" y="60" type="line"/>
      <point x="428" y="1556" type="line"/>
      <point x="640" y="1556" type="line"/>
      <point x="640" y="1616" type="line"/>
      <point x="110" y="1616" type="line"/>
      <point x="110" y="1556" type="line"/>
      <point x="330" y="1556" type="line"/>
      <point x="330" y="60" type="line"/>
      <point x="110" y="60" type="line"/>
    </contour>
  </outline>
</glyph>
<glyph name="J" format="1">
  <advance width="671"/>
  <unicode hex="004A"/>
  <outline>
    <contour>
      <point x="451" y="1620" type="move" name="top"/>
    </contour>
    <contour>
      <point x="90" y="-267" type="line"/>
      <point x="450" y="-227"/>
      <point x="495" y="-94"/>
      <point x="495" y="218" type="curve" smooth="yes"/>
      <point x="493" y="1616" type="line"/>
      <point x="395" y="1616" type="line"/>
      <point x="395" y="220" type="line" smooth="yes"/>
      <point x="395" y="-74"/>
      <point x="383" y="-147"/>
      <point x="72" y="-187" type="curve"/>
    </contour>
  </outline>
</glyph>
<glyph name="K" format="1">
  <advance width="1188"/>
  <unicode hex="004B"/>
  <outline>
    <contour>
      <point x="605" y="0" type="move" name="bot"/>
    </contour>
    <contour>
      <point x="581" y="1489" type="move" name="top"/>
    </contour>
    <contour>
      <point x="168" y="0" type="line"/>
      <point x="260" y="0" type="line"/>
      <point x="260" y="725" type="line"/>
      <point x="315" y="725" type="line"/>
      <point x="1042" y="0" type="line"/>
      <point x="1155" y="0" type="line"/>
      <point x="398" y="763" type="line"/>
      <point x="1103" y="1485" type="line"/>
      <point x="997" y="1485" type="line"/>
      <point x="310" y="789" type="line"/>
      <point x="260" y="789" type="line"/>
      <point x="260" y="1485" type="line"/>
      <point x="168" y="1485" type="line"/>
    </contour>
  </outline>
</glyph>
<glyph name="L" format="1">
  <advance width="1154"/>
  <unicode hex="004C"/>
  <outline>
    <contour>
      <point x="399" y="1172" type="move" name="caron.alt"/>
    </contour>
    <contour>
      <point x="251" y="1620" type="move" name="top"/>
    </contour>
    <contour>
      <point x="231" y="869" type="move" name="mid"/>
    </contour>
    <contour>
      <point x="647" y="0" type="move" name="bot"/>
    </contour>
    <contour>
      <point x="180" y="0" type="line"/>
      <point x="1093" y="0" type="line"/>
      <point x="1093" y="76" type="line"/>
      <point x="278" y="76" type="line"/>
      <point x="278" y="1616" type="line"/>
      <point x="180" y="1616" type="line"/>
    </contour>
  </outline>
</glyph>
<glyph name="M" format="1">
  <advance width="1774"/>
  <unicode hex="004D"/>
  <outline>
    <contour>
      <point x="871" y="1620" type="move" name="top"/>
    </contour>
    <contour>
      <point x="180" y="0" type="line"/>
      <point x="278" y="0" type="line"/>
      <point x="278" y="1485" type="line"/>
      <point x="860" y="149" type="line"/>
      <point x="931" y="149" type="line"/>
      <point x="1496" y="1490" type="line"/>
      <point x="1496" y="0" type="line"/>
      <point x="1594" y="0" type="line"/>
      <point x="1594" y="1616" type="line"/>
      <point x="1455" y="1616" type="line"/>
      <point x="893" y="290" type="line"/>
      <point x="316" y="1616" type="line"/>
      <point x="180" y="1616" type="line"/>
    </contour>
  </outline>
</glyph>
<glyph name="N" format="1">
  <advance width="1571"/>
  <unicode hex="004E"/>
  <outline>
    <contour>
      <point x="841" y="1620" type="move" name="top"/>
    </contour>
    <contour>
      <point x="837" y="0" type="move" name="bot"/>
    </contour>
    <contour>
      <point x="180" y="0" type="line"/>
      <point x="272" y="0" type="line"/>
      <point x="272" y="1531" type="line"/>
      <point x="1246" y="0" type="line"/>
      <point x="1391" y="0" type="line"/>
      <point x="1391" y="1616" type="line"/>
      <point x="1299" y="1616" type="line"/>
      <point x="1299" y="82" type="line"/>
      <point x="318" y="1616" type="line"/>
      <point x="180" y="1616" type="line"/>
    </contour>
  </outline>
</glyph>
<glyph name="O" format="1">
  <advance width="1501"/>
  <unicode hex="004F"/>
  <outline>
    <contour>
      <point x="753" y="1620" type="move" name="top"/>
    </contour>
    <contour>
      <point x="840" y="0" type="move" name="ogonek"/>
    </contour>
    <contour>
      <point x="751" y="66" type="curve" smooth="yes"/>
      <point x="323" y="66"/>
      <point x="230" y="475"/>
      <point x="230" y="810" type="curve" smooth="yes"/>
      <point x="230" y="1147"/>
      <point x="323" y="1554"/>
      <point x="751" y="1554" type="curve" smooth="yes"/>
      <point x="1178" y="1554"/>
      <point x="1271" y="1147"/>
      <point x="1271" y="810" type="curve" smooth="yes"/>
      <point x="1271" y="475"/>
      <point x="1178" y="66"/>
    </contour>
    <contour>
      <point x="751" y="-18" type="curve" smooth="yes"/>
      <point x="1233" y="-18"/>
      <point x="1373" y="414"/>
      <point x="1373" y="810" type="curve" smooth="yes"/>
      <point x="1373" y="1208"/>
      <point x="1233" y="1638"/>
      <point x="751" y="1638" type="curve" smooth="yes"/>
      <point x="268" y="1638"/>
      <point x="128" y="1208"/>
      <point x="128" y="810" type="curve" smooth="yes"/>
      <point x="128" y="414"/>
      <point x="268" y="-18"/>
    </contour>
  </outline>
</glyph>
<glyph name="P" format="1">
  <advance width="1309"/>
  <unicode hex="0050"/>
  <outline>
    <contour>
      <point x="671" y="1620" type="move" name="top"/>
    </contour>
    <contour>
      <point x="180" y="0" type="line"/>
      <point x="278" y="0" type="line"/>
      <point x="278" y="790" type="line"/>
      <point x="686" y="790" type="line" smooth="yes"/>
      <point x="994" y="790"/>
      <point x="1245" y="852"/>
      <point x="1245" y="1217" type="curve" smooth="yes"/>
      <point x="1245" y="1595"/>
      <point x="932" y="1616"/>
      <point x="698" y="1616" type="curve" smooth="yes"/>
      <point x="180" y="1616" type="line"/>
    </contour>
    <contour>
      <point x="278" y="876" type="line"/>
      <point x="278" y="1532" type="line"/>
      <point x="700" y="1532" type="line" smooth="yes"/>
      <point x="951" y="1532"/>
      <point x="1142" y="1495"/>
      <point x="1142" y="1218" type="curve" smooth="yes"/>
      <point x="1142" y="912"/>
      <point x="968" y="876"/>
      <point x="686" y="876" type="curve" smooth="yes"/>
    </contour>
  </outline>
</glyph>
<glyph name="Q" format="1">
  <advance width="1403"/>
  <unicode hex="0051"/>
  <outline>
    <contour>
      <point x="785" y="0" type="move" name="ogonek"/>
    </contour>
    <contour>
      <point x="704" y="1468" type="move" name="top"/>
    </contour>
    <contour>
      <point x="1029" y="-398" type="line"/>
      <point x="1087" y="-348" type="line"/>
      <point x="808" y="-8" type="line"/>
      <point x="1174" y="51"/>
      <point x="1284" y="395"/>
      <point x="1284" y="734" type="curve" smooth="yes"/>
      <point x="1284" y="1106"/>
      <point x="1153" y="1485"/>
      <point x="702" y="1485" type="curve" smooth="yes"/>
      <point x="250" y="1485"/>
      <point x="120" y="1106"/>
      <point x="120" y="734" type="curve" smooth="yes"/>
      <point x="120" y="364"/>
      <point x="250" y="-17"/>
      <point x="702" y="-17" type="curve"/>
    </contour>
    <contour>
      <point x="702" y="62" type="curve" smooth="yes"/>
      <point x="302" y="62"/>
      <point x="215" y="421"/>
      <point x="215" y="734" type="curve" smooth="yes"/>
      <point x="215" y="1049"/>
      <point x="302" y="1406"/>
      <point x="702" y="1406" type="curve" smooth="yes"/>
      <point x="1101" y="1406"/>
      <point x="1188" y="1049"/>
      <point x="1188" y="734" type="curve" smooth="yes"/>
      <point x="1188" y="421"/>
      <point x="1101" y="62"/>
    </contour>
  </outline>
</glyph>
<glyph name="R" format="1">
  <advance width="1440"/>
  <unicode hex="0052"/>
  <outline>
    <contour>
      <point x="731" y="1620" type="move" name="top"/>
    </contour>
    <contour>
      <point x="637" y="0" type="move" name="bot"/>
    </contour>
    <contour>
      <point x="180" y="0" type="line"/>
      <point x="278" y="0" type="line"/>
      <point x="278" y="764" type="line"/>
      <point x="713" y="764" type="line" smooth="yes"/>
      <point x="1057" y="766"/>
      <point x="1086" y="659"/>
      <point x="1118" y="474" type="curve" smooth="yes"/>
      <point x="1201" y="0" type="line"/>
      <point x="1292" y="0" type="line"/>
      <point x="1212" y="471" type="line" smooth="yes"/>
      <point x="1181" y="651"/>
      <point x="1159" y="750"/>
      <point x="985" y="794" type="curve"/>
      <point x="1152" y="841"/>
      <point x="1264" y="954"/>
      <point x="1264" y="1201" type="curve" smooth="yes"/>
      <point x="1264" y="1579"/>
      <point x="959" y="1616"/>
      <point x="725" y="1616" type="curve" smooth="yes"/>
      <point x="180" y="1616" type="line"/>
    </contour>
    <contour>
      <point x="278" y="847" type="line"/>
      <point x="278" y="1532" type="line"/>
      <point x="727" y="1532" type="line" smooth="yes"/>
      <point x="978" y="1532"/>
      <point x="1161" y="1479"/>
      <point x="1161" y="1202" type="curve" smooth="yes"/>
      <point x="1161" y="896"/>
      <point x="995" y="847"/>
      <point x="713" y="847" type="curve" smooth="yes"/>
    </contour>
  </outline>
</glyph>
<glyph name="S" format="1">
  <advance width="1220"/>
  <unicode hex="0053"/>
  <outline>
    <contour>
      <point x="603" y="1620" type="move" name="top"/>
    </contour>
    <contour>
      <point x="555" y="0" type="move" name="bot"/>
    </contour>
    <contour>
      <point x="585" y="-12" type="curve" smooth="yes"/>
      <point x="863" y="-12"/>
      <point x="1107" y="83"/>
      <point x="1116" y="417" type="curve" smooth="yes"/>
      <point x="1125" y="756"/>
      <point x="942" y="810"/>
      <point x="679" y="878" type="curve" smooth="yes"/>
      <point x="520" y="919" type="line" smooth="yes"/>
      <point x="285" y="980"/>
      <point x="206" y="1058"/>
      <point x="206" y="1244" type="curve" smooth="yes"/>
      <point x="206" y="1493"/>
      <point x="392" y="1560"/>
      <point x="596" y="1560" type="curve" smooth="yes"/>
      <point x="789" y="1560"/>
      <point x="927" y="1499"/>
      <point x="998" y="1434" type="curve"/>
      <point x="1043" y="1506" type="line"/>
      <point x="938" y="1592"/>
      <point x="786" y="1644"/>
      <point x="596" y="1644" type="curve" smooth="yes"/>
      <point x="326" y="1644"/>
      <point x="110" y="1543"/>
      <point x="110" y="1244" type="curve" smooth="yes"/>
      <point x="110" y="1002"/>
      <point x="240" y="895"/>
      <point x="495" y="832" type="curve" smooth="yes"/>
      <point x="653" y="793" type="line" smooth="yes"/>
      <point x="913" y="729"/>
      <point x="1035" y="675"/>
      <point x="1026" y="417" type="curve" smooth="yes"/>
      <point x="1017" y="146"/>
      <point x="828" y="72"/>
      <point x="585" y="72" type="curve" smooth="yes"/>
      <point x="394" y="72"/>
      <point x="232" y="140"/>
      <point x="142" y="201" type="curve"/>
      <point x="98" y="128" type="line"/>
      <point x="190" y="68"/>
      <point x="366" y="-12"/>
    </contour>
  </outline>
</glyph>
<glyph name="T" format="1">
  <advance width="1126"/>
  <unicode hex="0054"/>
  <outline>
    <contour>
      <point x="566" y="1620" type="move" name="top"/>
    </contour>
    <contour>
      <point x="563" y="0" type="move" name="bot"/>
    </contour>
    <contour>
      <point x="573" y="902" type="move" name="mid"/>
    </contour>
    <contour>
      <point x="514" y="0" type="line"/>
      <point x="612" y="0" type="line"/>
      <point x="612" y="1540" type="line"/>
      <point x="1098" y="1540" type="line"/>
      <point x="1098" y="1616" type="line"/>
      <point x="28" y="1616" type="line"/>
      <point x="28" y="1540" type="line"/>
      <point x="514" y="1540" type="line"/>
    </contour>
  </outline>
</glyph>
<glyph name="U" format="1">
  <advance width="1482"/>
  <unicode hex="0055"/>
  <outline>
    <contour>
      <point x="751" y="1620" type="move" name="top"/>
    </contour>
    <contour>
      <point x="826" y="0" type="move" name="ogonek"/>
    </contour>
    <contour>
      <point x="741" y="-18" type="curve" smooth="yes"/>
      <point x="1188" y="-18"/>
      <point x="1332" y="161"/>
      <point x="1332" y="719" type="curve" smooth="yes"/>
      <point x="1332" y="1612" type="line"/>
      <point x="1234" y="1612" type="line"/>
      <point x="1234" y="715" type="line" smooth="yes"/>
      <point x="1234" y="224"/>
      <point x="1114" y="66"/>
      <point x="741" y="66" type="curve" smooth="yes"/>
      <point x="368" y="66"/>
      <point x="248" y="224"/>
      <point x="248" y="715" type="curve" smooth="yes"/>
      <point x="248" y="1612" type="line"/>
      <point x="150" y="1612" type="line"/>
      <point x="150" y="719" type="line" smooth="yes"/>
      <point x="150" y="161"/>
      <point x="294" y="-18"/>
    </contour>
  </outline>
</glyph>
<glyph name="V" format="1">
  <advance width="1409"/>
  <unicode hex="0056"/>
  <outline>
    <contour>
      <point x="629" y="0" type="line"/>
      <point x="765" y="0" type="line"/>
      <point x="1353" y="1616" type="line"/>
      <point x="1257" y="1616" type="line"/>
      <point x="693" y="80" type="line"/>
      <point x="152" y="1616" type="line"/>
      <point x="56" y="1616" type="line"/>
    </contour>
  </outline>
</glyph>
<glyph name="W" format="1">
  <advance width="2095"/>
  <unicode hex="0057"/>
  <outline>
    <contour>
      <point x="1050" y="1620" type="move" name="top"/>
    </contour>
    <contour>
      <point x="503" y="0" type="line"/>
      <point x="630" y="0" type="line"/>
      <point x="1048" y="1399" type="line"/>
      <point x="1465" y="0" type="line"/>
      <point x="1592" y="0" type="line"/>
      <point x="2009" y="1616" type="line"/>
      <point x="1912" y="1616" type="line"/>
      <point x="1527" y="88" type="line"/>
      <point x="1103" y="1508" type="line"/>
      <point x="992" y="1508" type="line"/>
      <point x="568" y="88" type="line"/>
      <point x="183" y="1616" type="line"/>
      <point x="86" y="1616" type="line"/>
    </contour>
  </outline>
</glyph>
<glyph name="X" format="1">
  <advance width="1305"/>
  <unicode hex="0058"/>
  <outline>
    <contour>
      <point x="82" y="0" type="line"/>
      <point x="182" y="0" type="line"/>
      <point x="653" y="733" type="line"/>
      <point x="1104" y="0" type="line"/>
      <point x="1208" y="0" type="line"/>
      <point x="707" y="808" type="line"/>
      <point x="1208" y="1616" type="line"/>
      <point x="1120" y="1616" type="line"/>
      <point x="659" y="887" type="line"/>
      <point x="205" y="1616" type="line"/>
      <point x="106" y="1616" type="line"/>
      <point x="605" y="810" type="line"/>
    </contour>
  </outline>
</glyph>
<glyph name="Y" format="1">
  <advance width="1264"/>
  <unicode hex="0059"/>
  <outline>
    <contour>
      <point x="641" y="1620" type="move" name="top"/>
    </contour>
    <contour>
      <point x="580" y="0" type="line"/>
      <point x="678" y="0" type="line"/>
      <point x="678" y="708" type="line"/>
      <point x="1203" y="1616" type="line"/>
      <point x="1102" y="1616" type="line"/>
      <point x="633" y="805" type="line"/>
      <point x="166" y="1616" type="line"/>
      <point x="61" y="1616" type="line"/>
      <point x="580" y="708" type="line"/>
    </contour>
  </outline>
</glyph>
<glyph name="Z" format="1">
  <advance width="1186"/>
  <unicode hex="005A"/>
  <outline>
    <contour>
      <point x="641" y="1620" type="move" name="top"/>
    </contour>
    <contour>
      <point x="142" y="0" type="line"/>
      <point x="1100" y="0" type="line"/>
      <point x="1100" y="80" type="line"/>
      <point x="251" y="80" type="line"/>
      <point x="1098" y="1540" type="line"/>
      <point x="1098" y="1616" type="line"/>
      <point x="142" y="1616" type="line"/>
      <point x="142" y="1536" type="line"/>
      <point x="992" y="1536" type="line"/>
      <point x="142" y="79" type="line"/>
    </contour>
  </outline>
</glyph>
<glyph name="bracketleft" format="1">
  <advance width="783"/>
  <unicode hex="005B"/>
  <outline>
    <contour>
      <point x="150" y="-178" type="line"/>
      <point x="727" y="-178" type="line"/>
      <point x="727" y="-104" type="line"/>
      <point x="241" y="-104" type="line"/>
      <point x="241" y="1515" type="line"/>
      <point x="727" y="1515" type="line"/>
      <point x="727" y="1590" type="line"/>
      <point x="150" y="1590" type="line"/>
    </contour>
  </outline>
</glyph>
<glyph name="backslash" format="1">
  <advance width="432"/>
  <unicode hex="005C"/>
  <outline>
    <contour>
      <point x="475" y="-173" type="line"/>
      <point x="544" y="-146" type="line"/>
      <point x="-65" y="1641" type="line"/>
      <point x="-131" y="1620" type="line"/>
    </contour>
  </outline>
</glyph>
<glyph name="bracketright" format="1">
  <advance width="828"/>
  <unicode hex="005D"/>
  <outline>
    <contour>
      <point x="50" y="-190" type="line"/>
      <point x="668" y="-190" type="line"/>
      <point x="668" y="1700" type="line"/>
      <point x="50" y="1700" type="line"/>
      <point x="50" y="1620" type="line"/>
      <point x="570" y="1620" type="line"/>
      <point x="570" y="-111" type="line"/>
      <point x="50" y="-111" type="line"/>
    </contour>
  </outline>
</glyph>
<glyph name="asciicircum" format="1">
  <advance width="1104"/>
  <unicode hex="005E"/>
  <outline>
    <contour>
      <point x="46" y="600" type="line"/>
      <point x="137" y="600" type="line"/>
      <point x="552" y="1476" type="line"/>
      <point x="968" y="600" type="line"/>
      <point x="1058" y="600" type="line"/>
      <point x="577" y="1620" type="line"/>
      <point x="526" y="1620" type="line"/>
    </contour>
  </outline>
</glyph>
<glyph name="underscore" format="1">
  <advance width="1137"/>
  <unicode hex="005F"/>
  <outline>
    <contour>
      <point x="143" y="-110" type="line"/>
      <point x="994" y="-110" type="line"/>
      <point x="994" y="-35" type="line"/>
      <point x="143" y="-35" type="line"/>
    </contour>
  </outline>
</glyph>
<glyph name="grave" format="1">
  <advance width="438"/>
  <unicode hex="0060"/>
  <outline>
    <contour>
      <point x="334" y="1172" type="move" name="_top"/>
    </contour>
    <contour>
      <point x="409" y="1344" type="line"/>
      <point x="430" y="1378" type="line"/>
      <point x="42" y="1633" type="line"/>
      <point x="0" y="1560" type="line"/>
    </contour>
  </outline>
</glyph>
<glyph name="a" format="1">
  <advance width="1129"/>
  <unicode hex="0061"/>
  <outline>
    <contour>
      <point x="931" y="0" type="move" name="ogonek"/>
    </contour>
    <contour>
      <point x="550" y="1100" type="move" name="top"/>
    </contour>
    <contour>
      <point x="111" y="317" type="curve" smooth="yes"/>
      <point x="111" y="80"/>
      <point x="279" y="-21"/>
      <point x="477" y="-21" type="curve" smooth="yes"/>
      <point x="646" y="-21"/>
      <point x="772" y="49"/>
      <point x="879" y="176" type="curve"/>
      <point x="898" y="0" type="line"/>
      <point x="961" y="0" type="line"/>
      <point x="961" y="685" type="line" smooth="yes"/>
      <point x="961" y="1026"/>
      <point x="764" y="1117"/>
      <point x="561" y="1117" type="curve" smooth="yes"/>
      <point x="405" y="1117"/>
      <point x="245" y="1059"/>
      <point x="167" y="1014" type="curve"/>
      <point x="196" y="944" type="line"/>
      <point x="262" y="979"/>
      <point x="416" y="1042"/>
      <point x="559" y="1042" type="curve" smooth="yes"/>
      <point x="722" y="1042"/>
      <point x="871" y="968"/>
      <point x="871" y="683" type="curve" smooth="yes"/>
      <point x="871" y="600" type="line"/>
      <point x="784" y="632"/>
      <point x="640" y="643"/>
      <point x="541" y="643" type="curve" smooth="yes"/>
      <point x="252" y="643"/>
      <point x="111" y="534"/>
    </contour>
    <contour>
      <point x="487" y="54" type="curve" smooth="yes"/>
      <point x="356" y="54"/>
      <point x="203" y="113"/>
      <point x="203" y="320" type="curve" smooth="yes"/>
      <point x="203" y="517"/>
      <point x="351" y="573"/>
      <point x="548" y="573" type="curve" smooth="yes"/>
      <point x="658" y="573"/>
      <point x="763" y="569"/>
      <point x="871" y="539" type="curve"/>
      <point x="871" y="238" type="line"/>
      <point x="763" y="118"/>
      <point x="656" y="54"/>
    </contour>
  </outline>
</glyph>
<glyph name="b" format="1">
  <advance width="1279"/>
  <unicode hex="0062"/>
  <outline>
    <contour>
      <point x="675" y="1172" type="move" name="top"/>
    </contour>
    <contour>
      <point x="648" y="-18" type="curve" smooth="yes"/>
      <point x="1008" y="-18"/>
      <point x="1145" y="295"/>
      <point x="1145" y="583" type="curve" smooth="yes"/>
      <point x="1145" y="895"/>
      <point x="997" y="1190"/>
      <point x="654" y="1190" type="curve" smooth="yes"/>
      <point x="507" y="1190"/>
      <point x="374" y="1120"/>
      <point x="288" y="1001" type="curve"/>
      <point x="288" y="1660" type="line"/>
      <point x="190" y="1638" type="line"/>
      <point x="190" y="0" type="line"/>
      <point x="275" y="0" type="line"/>
      <point x="284" y="157" type="line"/>
      <point x="368" y="44"/>
      <point x="494" y="-18"/>
    </contour>
    <contour>
      <point x="641" y="62" type="curve" smooth="yes"/>
      <point x="497" y="62"/>
      <point x="372" y="122"/>
      <point x="288" y="243" type="curve"/>
      <point x="289" y="904" type="line"/>
      <point x="382" y="1043"/>
      <point x="505" y="1110"/>
      <point x="656" y="1110" type="curve" smooth="yes"/>
      <point x="977" y="1110"/>
      <point x="1051" y="796"/>
      <point x="1051" y="583" type="curve" smooth="yes"/>
      <point x="1051" y="345"/>
      <point x="960" y="62"/>
    </contour>
  </outline>
</glyph>
<glyph name="c" format="1">
  <advance width="1116"/>
  <unicode hex="0063"/>
  <outline>
    <contour>
      <point x="647" y="1172" type="move" name="top"/>
    </contour>
    <contour>
      <point x="643" y="0" type="move" name="bot"/>
    </contour>
    <contour>
      <point x="646" y="-18" type="curve" smooth="yes"/>
      <point x="789" y="-18"/>
      <point x="923" y="38"/>
      <point x="1014" y="124" type="curve"/>
      <point x="977" y="189" type="line"/>
      <point x="900" y="119"/>
      <point x="799" y="62"/>
      <point x="653" y="62" type="curve" smooth="yes"/>
      <point x="379" y="62"/>
      <point x="228" y="306"/>
      <point x="228" y="585" type="curve" smooth="yes"/>
      <point x="228" y="844"/>
      <point x="355" y="1102"/>
      <point x="634" y="1110" type="curve" smooth="yes"/>
      <point x="768" y="1114"/>
      <point x="890" y="1064"/>
      <point x="972" y="987" type="curve"/>
      <point x="1016" y="1046" type="line"/>
      <point x="913" y="1150"/>
      <point x="761" y="1193"/>
      <point x="634" y="1190" type="curve" smooth="yes"/>
      <point x="306" y="1182"/>
      <point x="134" y="894"/>
      <point x="134" y="585" type="curve" smooth="yes"/>
      <point x="134" y="281"/>
      <point x="305" y="-18"/>
    </contour>
  </outline>
</glyph>
<glyph name="d" format="1">
  <advance width="1186"/>
  <unicode hex="0064"/>
  <outline>
    <contour>
      <point x="955" y="1289" type="move" name="mid"/>
    </contour>
    <contour>
      <point x="983" y="1096" type="move" name="caron.alt"/>
    </contour>
    <contour>
      <point x="575" y="1100" type="move" name="top"/>
    </contour>
    <contour>
      <point x="586" y="-21" type="curve" smooth="yes"/>
      <point x="728" y="-21"/>
      <point x="845" y="34"/>
      <point x="924" y="136" type="curve"/>
      <point x="931" y="0" type="line"/>
      <point x="1009" y="0" type="line"/>
      <point x="1009" y="1552" type="line"/>
      <point x="919" y="1532" type="line"/>
      <point x="919" y="947" type="line"/>
      <point x="839" y="1053"/>
      <point x="716" y="1117"/>
      <point x="581" y="1117" type="curve" smooth="yes"/>
      <point x="260" y="1117"/>
      <point x="122" y="837"/>
      <point x="122" y="545" type="curve" smooth="yes"/>
      <point x="122" y="276"/>
      <point x="249" y="-21"/>
    </contour>
    <contour>
      <point x="593" y="54" type="curve" smooth="yes"/>
      <point x="295" y="54"/>
      <point x="209" y="322"/>
      <point x="209" y="545" type="curve" smooth="yes"/>
      <point x="209" y="744"/>
      <point x="279" y="1042"/>
      <point x="579" y="1042" type="curve" smooth="yes"/>
      <point x="718" y="1042"/>
      <point x="831" y="979"/>
      <point x="918" y="852" type="curve"/>
      <point x="919" y="219" type="line"/>
      <point x="840" y="109"/>
      <point x="726" y="54"/>
    </contour>
  </outline>
</glyph>
<glyph name="e" format="1">
  <advance width="1112"/>
  <unicode hex="0065"/>
  <outline>
    <contour>
      <point x="612" y="-4" type="move" name="bot"/>
    </contour>
    <contour>
      <point x="707" y="-4" type="move" name="ogonek"/>
    </contour>
    <contour>
      <point x="601" y="1100" type="move" name="top"/>
    </contour>
    <contour>
      <point x="617" y="-21" type="curve" smooth="yes"/>
      <point x="725" y="-21"/>
      <point x="885" y="25"/>
      <point x="976" y="108" type="curve"/>
      <point x="942" y="170" type="line"/>
      <point x="862" y="103"/>
      <point x="743" y="54"/>
      <point x="621" y="54" type="curve" smooth="yes"/>
      <point x="322" y="54"/>
      <point x="198" y="281"/>
      <point x="198" y="557" type="curve"/>
      <point x="997" y="557" type="line"/>
      <point x="997" y="557"/>
      <point x="1008" y="595"/>
      <point x="1008" y="649" type="curve" smooth="yes"/>
      <point x="1008" y="893"/>
      <point x="881" y="1117"/>
      <point x="602" y="1117" type="curve" smooth="yes"/>
      <point x="277" y="1117"/>
      <point x="110" y="863"/>
      <point x="110" y="560" type="curve" smooth="yes"/>
      <point x="110" y="232"/>
      <point x="279" y="-21"/>
    </contour>
    <contour>
      <point x="200" y="626" type="line"/>
      <point x="216" y="843"/>
      <point x="330" y="1042"/>
      <point x="605" y="1042" type="curve" smooth="yes"/>
      <point x="827" y="1042"/>
      <point x="921" y="852"/>
      <point x="921" y="669" type="curve" smooth="yes"/>
      <point x="921" y="626" type="line"/>
    </contour>
  </outline>
</glyph>
<glyph name="f" format="1">
  <advance width="694"/>
  <unicode hex="0066"/>
  <outline>
    <contour>
      <point x="283" y="1515" type="move" name="top"/>
    </contour>
    <contour>
      <point x="501" y="1510" type="curve" smooth="yes"/>
      <point x="312" y="1510"/>
      <point x="243" y="1413"/>
      <point x="243" y="1144" type="curve" smooth="yes"/>
      <point x="243" y="1097" type="line"/>
      <point x="58" y="1097" type="line"/>
      <point x="58" y="1035" type="line"/>
      <point x="243" y="1035" type="line"/>
      <point x="243" y="0" type="line"/>
      <point x="333" y="0" type="line"/>
      <point x="333" y="1035" type="line"/>
      <point x="643" y="1035" type="line"/>
      <point x="643" y="1097" type="line"/>
      <point x="333" y="1097" type="line"/>
      <point x="333" y="1144" type="line" smooth="yes"/>
      <point x="333" y="1344"/>
      <point x="356" y="1440"/>
      <point x="504" y="1440" type="curve" smooth="yes"/>
      <point x="562" y="1440"/>
      <point x="623" y="1424"/>
      <point x="664" y="1408" type="curve"/>
      <point x="683" y="1472" type="line"/>
      <point x="646" y="1489"/>
      <point x="575" y="1510"/>
    </contour>
  </outline>
</glyph>
<glyph name="g" format="1">
  <advance width="1128"/>
  <unicode hex="0067"/>
  <outline>
    <contour>
      <point x="567" y="1100" type="move" name="top"/>
    </contour>
    <contour>
      <point x="527" y="-335" type="curve" smooth="yes"/>
      <point x="844" y="-335"/>
      <point x="1034" y="-254"/>
      <point x="1034" y="-40" type="curve" smooth="yes"/>
      <point x="1034" y="191"/>
      <point x="899" y="234"/>
      <point x="701" y="234" type="curve" smooth="yes"/>
      <point x="320" y="234" type="line"/>
      <point x="320" y="234"/>
      <point x="272" y="248"/>
      <point x="272" y="342" type="curve" smooth="yes"/>
      <point x="272" y="398"/>
      <point x="318" y="482"/>
      <point x="327" y="501" type="curve"/>
      <point x="347" y="489"/>
      <point x="421" y="447"/>
      <point x="552" y="447" type="curve" smooth="yes"/>
      <point x="776" y="447"/>
      <point x="939" y="577"/>
      <point x="939" y="774" type="curve" smooth="yes"/>
      <point x="939" y="868"/>
      <point x="901" y="957"/>
      <point x="853" y="993" type="curve"/>
      <point x="1072" y="1024" type="line"/>
      <point x="1066" y="1097" type="line"/>
      <point x="977" y="1096"/>
      <point x="891" y="1072"/>
      <point x="823" y="1036" type="curve"/>
      <point x="757" y="1088"/>
      <point x="661" y="1117"/>
      <point x="574" y="1117" type="curve" smooth="yes"/>
      <point x="292" y="1117"/>
      <point x="165" y="964"/>
      <point x="165" y="776" type="curve" smooth="yes"/>
      <point x="165" y="608"/>
      <point x="283" y="531"/>
      <point x="296" y="520" type="curve"/>
      <point x="219" y="452"/>
      <point x="190" y="391"/>
      <point x="190" y="330" type="curve" smooth="yes"/>
      <point x="190" y="243"/>
      <point x="217" y="183"/>
      <point x="306" y="172" type="curve"/>
      <point x="219" y="137"/>
      <point x="170" y="54"/>
      <point x="170" y="-69" type="curve" smooth="yes"/>
      <point x="170" y="-302"/>
      <point x="338" y="-335"/>
    </contour>
    <contour>
      <point x="522" y="-265" type="curve" smooth="yes"/>
      <point x="341" y="-265"/>
      <point x="252" y="-215"/>
      <point x="252" y="-66" type="curve" smooth="yes"/>
      <point x="252" y="77"/>
      <point x="330" y="148"/>
      <point x="394" y="165" type="curve"/>
      <point x="698" y="165" type="line" smooth="yes"/>
      <point x="847" y="165"/>
      <point x="952" y="153"/>
      <point x="952" y="-46" type="curve" smooth="yes"/>
      <point x="952" y="-209"/>
      <point x="810" y="-265"/>
    </contour>
    <contour>
      <point x="550" y="512" type="curve" smooth="yes"/>
      <point x="344" y="512"/>
      <point x="250" y="622"/>
      <point x="250" y="783" type="curve" smooth="yes"/>
      <point x="250" y="925"/>
      <point x="335" y="1051"/>
      <point x="577" y="1051" type="curve" smooth="yes"/>
      <point x="773" y="1051"/>
      <point x="857" y="929"/>
      <point x="857" y="770" type="curve" smooth="yes"/>
      <point x="857" y="643"/>
      <point x="784" y="512"/>
    </contour>
  </outline>
</glyph>
<glyph name="h" format="1">
  <advance width="1308"/>
  <unicode hex="0068"/>
  <outline>
    <contour>
      <point x="744" y="1172" type="move" name="top"/>
    </contour>
    <contour>
      <point x="190" y="0" type="line"/>
      <point x="286" y="0" type="line"/>
      <point x="286" y="899" type="line"/>
      <point x="418" y="1030"/>
      <point x="573" y="1110"/>
      <point x="728" y="1110" type="curve" smooth="yes"/>
      <point x="991" y="1110"/>
      <point x="1034" y="935"/>
      <point x="1034" y="719" type="curve" smooth="yes"/>
      <point x="1034" y="0" type="line"/>
      <point x="1130" y="0" type="line"/>
      <point x="1130" y="728" type="line" smooth="yes"/>
      <point x="1130" y="959"/>
      <point x="1075" y="1190"/>
      <point x="744" y="1190" type="curve" smooth="yes"/>
      <point x="567" y="1190"/>
      <point x="421" y="1119"/>
      <point x="286" y="988" type="curve"/>
      <point x="286" y="1660" type="line"/>
      <point x="190" y="1636" type="line"/>
    </contour>
  </outline>
</glyph>
<glyph name="i" format="1">
  <advance width="489"/>
  <unicode hex="0069"/>
  <outline>
    <contour>
      <point x="227" y="0" type="move" name="ogonek"/>
    </contour>
    <contour>
      <point x="200" y="0" type="line"/>
      <point x="290" y="0" type="line"/>
      <point x="290" y="1097" type="line"/>
      <point x="200" y="1097" type="line"/>
    </contour>
    <contour>
      <point x="247" y="1264" type="curve" smooth="yes"/>
      <point x="291" y="1264"/>
      <point x="312" y="1297"/>
      <point x="312" y="1331" type="curve" smooth="yes"/>
      <point x="312" y="1364"/>
      <point x="291" y="1396"/>
      <point x="247" y="1396" type="curve" smooth="yes"/>
      <point x="203" y="1396"/>
      <point x="181" y="1364"/>
      <point x="181" y="1331" type="curve" smooth="yes"/>
      <point x="181" y="1297"/>
      <point x="203" y="1264"/>
    </contour>
  </outline>
</glyph>
<glyph name="j" format="1">
  <advance width="488"/>
  <unicode hex="006A"/>
  <outline>
    <contour>
      <point x="13" y="-391" type="line"/>
      <point x="278" y="-312"/>
      <point x="314" y="-244"/>
      <point x="314" y="101" type="curve" smooth="yes"/>
      <point x="314" y="1172" type="line"/>
      <point x="218" y="1172" type="line"/>
      <point x="218" y="101" type="line" smooth="yes"/>
      <point x="218" y="-205"/>
      <point x="210" y="-241"/>
      <point x="-12" y="-312" type="curve"/>
    </contour>
    <contour>
      <point x="268" y="1352" type="curve" smooth="yes"/>
      <point x="315" y="1352"/>
      <point x="338" y="1387"/>
      <point x="338" y="1423" type="curve" smooth="yes"/>
      <point x="338" y="1458"/>
      <point x="315" y="1493"/>
      <point x="268" y="1493" type="curve" smooth="yes"/>
      <point x="221" y="1493"/>
      <point x="198" y="1458"/>
      <point x="198" y="1423" type="curve" smooth="yes"/>
      <point x="198" y="1387"/>
      <point x="221" y="1352"/>
    </contour>
  </outline>
</glyph>
<glyph name="k" format="1">
  <advance width="1006"/>
  <unicode hex="006B"/>
  <outline>
    <contour>
      <point x="579" y="0" type="move" name="bot"/>
    </contour>
    <contour>
      <point x="564" y="1096" type="move" name="top"/>
    </contour>
    <contour>
      <point x="178" y="0" type="line"/>
      <point x="267" y="0" type="line"/>
      <point x="267" y="510" type="line"/>
      <point x="342" y="573" type="line"/>
      <point x="888" y="0" type="line"/>
      <point x="999" y="0" type="line"/>
      <point x="415" y="613" type="line"/>
      <point x="930" y="1097" type="line"/>
      <point x="821" y="1097" type="line"/>
      <point x="267" y="581" type="line"/>
      <point x="267" y="1552" type="line"/>
      <point x="178" y="1530" type="line"/>
    </contour>
  </outline>
</glyph>
<glyph name="l" format="1">
  <advance width="464"/>
  <unicode hex="006C"/>
  <outline>
    <contour>
      <point x="239" y="1620" type="move" name="top"/>
    </contour>
    <contour>
      <point x="76" y="812" type="move" name="mid"/>
    </contour>
    <contour>
      <point x="321" y="1172" type="move" name="caron.alt"/>
    </contour>
    <contour>
      <point x="190" y="0" type="line"/>
      <point x="286" y="0" type="line"/>
      <point x="286" y="1660" type="line"/>
      <point x="190" y="1636" type="line"/>
    </contour>
  </outline>
</glyph>
<glyph name="m" format="1">
  <advance width="1937"/>
  <unicode hex="006D"/>
  <outline>
    <contour>
      <point x="1024" y="1096" type="move" name="top"/>
    </contour>
    <contour>
      <point x="178" y="0" type="line"/>
      <point x="267" y="0" type="line"/>
      <point x="266" y="842" type="line"/>
      <point x="388" y="978"/>
      <point x="522" y="1042"/>
      <point x="667" y="1042" type="curve" smooth="yes"/>
      <point x="917" y="1042"/>
      <point x="928" y="871"/>
      <point x="928" y="669" type="curve" smooth="yes"/>
      <point x="928" y="0" type="line"/>
      <point x="1018" y="0" type="line"/>
      <point x="1018" y="678" type="line" smooth="yes"/>
      <point x="1018" y="730"/>
      <point x="1016" y="782"/>
      <point x="1009" y="832" type="curve"/>
      <point x="1143" y="992"/>
      <point x="1275" y="1042"/>
      <point x="1419" y="1042" type="curve" smooth="yes"/>
      <point x="1669" y="1042"/>
      <point x="1681" y="871"/>
      <point x="1681" y="669" type="curve" smooth="yes"/>
      <point x="1681" y="0" type="line"/>
      <point x="1771" y="0" type="line"/>
      <point x="1771" y="678" type="line" smooth="yes"/>
      <point x="1771" y="894"/>
      <point x="1736" y="1117"/>
      <point x="1427" y="1117" type="curve" smooth="yes"/>
      <point x="1262" y="1117"/>
      <point x="1115" y="1058"/>
      <point x="993" y="905" type="curve"/>
      <point x="957" y="1025"/>
      <point x="870" y="1117"/>
      <point x="674" y="1117" type="curve" smooth="yes"/>
      <point x="507" y="1117"/>
      <point x="376" y="1054"/>
      <point x="260" y="915" type="curve"/>
      <point x="244" y="1097" type="line"/>
      <point x="178" y="1097" type="line"/>
    </contour>
  </outline>
</glyph>
<glyph name="n" format="1">
  <advance width="1309"/>
  <unicode hex="006E"/>
  <outline>
    <contour>
      <point x="715" y="1172" type="move" name="top"/>
    </contour>
    <contour>
      <point x="671" y="0" type="move" name="bot"/>
    </contour>
    <contour>
      <point x="190" y="0" type="line"/>
      <point x="286" y="0" type="line"/>
      <point x="286" y="897" type="line"/>
      <point x="417" y="1029"/>
      <point x="574" y="1110"/>
      <point x="729" y="1110" type="curve" smooth="yes"/>
      <point x="992" y="1110"/>
      <point x="1035" y="935"/>
      <point x="1035" y="719" type="curve" smooth="yes"/>
      <point x="1035" y="0" type="line"/>
      <point x="1131" y="0" type="line"/>
      <point x="1131" y="728" type="line" smooth="yes"/>
      <point x="1131" y="959"/>
      <point x="1076" y="1190"/>
      <point x="745" y="1190" type="curve" smooth="yes"/>
      <point x="564" y="1190"/>
      <point x="416" y="1116"/>
      <point x="278" y="979" type="curve"/>
      <point x="261" y="1172" type="line"/>
      <point x="190" y="1172" type="line"/>
    </contour>
  </outline>
</glyph>
<glyph name="o" format="1">
  <advance width="1280"/>
  <unicode hex="006F"/>
  <outline>
    <contour>
      <point x="639" y="1172" type="move" name="top"/>
    </contour>
    <contour>
      <point x="704" y="0" type="move" name="ogonek"/>
    </contour>
    <contour>
      <point x="640" y="62" type="curve" smooth="yes"/>
      <point x="336" y="62"/>
      <point x="224" y="315"/>
      <point x="224" y="582" type="curve" smooth="yes"/>
      <point x="224" y="804"/>
      <point x="311" y="1110"/>
      <point x="640" y="1110" type="curve" smooth="yes"/>
      <point x="973" y="1110"/>
      <point x="1056" y="804"/>
      <point x="1056" y="582" type="curve" smooth="yes"/>
      <point x="1056" y="315"/>
      <point x="948" y="62"/>
    </contour>
    <contour>
      <point x="640" y="-18" type="curve" smooth="yes"/>
      <point x="995" y="-18"/>
      <point x="1150" y="266"/>
      <point x="1150" y="582" type="curve" smooth="yes"/>
      <point x="1150" y="892"/>
      <point x="997" y="1190"/>
      <point x="640" y="1190" type="curve" smooth="yes"/>
      <point x="283" y="1190"/>
      <point x="130" y="892"/>
      <point x="130" y="582" type="curve" smooth="yes"/>
      <point x="130" y="266"/>
      <point x="285" y="-18"/>
    </contour>
  </outline>
</glyph>
<glyph name="p" format="1">
  <advance width="1173"/>
  <unicode hex="0070"/>
  <outline>
    <contour>
      <point x="619" y="1100" type="move" name="top"/>
    </contour>
    <contour>
      <point x="168" y="-494" type="line"/>
      <point x="258" y="-473" type="line"/>
      <point x="258" y="141" type="line"/>
      <point x="337" y="35"/>
      <point x="454" y="-21"/>
      <point x="598" y="-21" type="curve" smooth="yes"/>
      <point x="935" y="-21"/>
      <point x="1063" y="276"/>
      <point x="1063" y="545" type="curve" smooth="yes"/>
      <point x="1063" y="837"/>
      <point x="931" y="1117"/>
      <point x="610" y="1117" type="curve" smooth="yes"/>
      <point x="468" y="1117"/>
      <point x="334" y="1057"/>
      <point x="253" y="943" type="curve"/>
      <point x="245" y="1097" type="line"/>
      <point x="168" y="1097" type="line"/>
    </contour>
    <contour>
      <point x="592" y="54" type="curve" smooth="yes"/>
      <point x="455" y="54"/>
      <point x="336" y="114"/>
      <point x="258" y="231" type="curve"/>
      <point x="258" y="856" type="line"/>
      <point x="348" y="988"/>
      <point x="468" y="1042"/>
      <point x="611" y="1042" type="curve" smooth="yes"/>
      <point x="911" y="1042"/>
      <point x="975" y="744"/>
      <point x="975" y="545" type="curve" smooth="yes"/>
      <point x="975" y="322"/>
      <point x="890" y="54"/>
    </contour>
  </outline>
</glyph>
<glyph name="q" format="1">
  <advance width="1221"/>
  <unicode hex="0071"/>
  <outline>
    <contour>
      <point x="1075" y="-528" type="line"/>
      <point x="1075" y="1172" type="line"/>
      <point x="993" y="1172" type="line"/>
      <point x="984" y="1004" type="line"/>
      <point x="897" y="1126"/>
      <point x="755" y="1190"/>
      <point x="603" y="1190" type="curve" smooth="yes"/>
      <point x="260" y="1190"/>
      <point x="118" y="895"/>
      <point x="118" y="583" type="curve" smooth="yes"/>
      <point x="118" y="295"/>
      <point x="255" y="-18"/>
      <point x="615" y="-18" type="curve" smooth="yes"/>
      <point x="769" y="-18"/>
      <point x="895" y="42"/>
      <point x="979" y="155" type="curve"/>
      <point x="979" y="-506" type="line"/>
    </contour>
    <contour>
      <point x="622" y="62" type="curve" smooth="yes"/>
      <point x="303" y="62"/>
      <point x="212" y="345"/>
      <point x="212" y="583" type="curve" smooth="yes"/>
      <point x="212" y="796"/>
      <point x="280" y="1110"/>
      <point x="601" y="1110" type="curve" smooth="yes"/>
      <point x="754" y="1110"/>
      <point x="883" y="1052"/>
      <point x="979" y="911" type="curve"/>
      <point x="979" y="251" type="line"/>
      <point x="896" y="126"/>
      <point x="769" y="62"/>
    </contour>
  </outline>
</glyph>
<glyph name="r" format="1">
  <advance width="719"/>
  <unicode hex="0072"/>
  <outline>
    <contour>
      <point x="407" y="1172" type="move" name="top"/>
    </contour>
    <contour>
      <point x="323" y="0" type="move" name="bot"/>
    </contour>
    <contour>
      <point x="154" y="0" type="line"/>
      <point x="250" y="0" type="line"/>
      <point x="247" y="928" type="line"/>
      <point x="376" y="1063"/>
      <point x="547" y="1099"/>
      <point x="659" y="1099" type="curve"/>
      <point x="659" y="1189" type="line"/>
      <point x="522" y="1189"/>
      <point x="356" y="1128"/>
      <point x="241" y="990" type="curve"/>
      <point x="225" y="1172" type="line"/>
      <point x="154" y="1172" type="line"/>
    </contour>
  </outline>
</glyph>
<glyph name="s" format="1">
  <advance width="923"/>
  <unicode hex="0073"/>
  <outline>
    <contour>
      <point x="486" y="-4" type="move" name="bot"/>
    </contour>
    <contour>
      <point x="489" y="1100" type="move" name="top"/>
    </contour>
    <contour>
      <point x="741" y="297" type="curve" smooth="yes"/>
      <point x="741" y="106"/>
      <point x="604" y="54"/>
      <point x="468" y="54" type="curve" smooth="yes"/>
      <point x="355" y="54"/>
      <point x="244" y="95"/>
      <point x="162" y="163" type="curve"/>
      <point x="125" y="99" type="line"/>
      <point x="186" y="36"/>
      <point x="330" y="-21"/>
      <point x="463" y="-21" type="curve" smooth="yes"/>
      <point x="669" y="-21"/>
      <point x="830" y="71"/>
      <point x="830" y="302" type="curve" smooth="yes"/>
      <point x="830" y="501"/>
      <point x="700" y="551"/>
      <point x="575" y="593" type="curve" smooth="yes"/>
      <point x="431" y="640" type="line" smooth="yes"/>
      <point x="295" y="685"/>
      <point x="203" y="705"/>
      <point x="203" y="831" type="curve" smooth="yes"/>
      <point x="203" y="991"/>
      <point x="334" y="1042"/>
      <point x="447" y="1042" type="curve" smooth="yes"/>
      <point x="566" y="1042"/>
      <point x="667" y="1010"/>
      <point x="744" y="950" type="curve"/>
      <point x="781" y="1012" type="line"/>
      <point x="704" y="1077"/>
      <point x="572" y="1117"/>
      <point x="441" y="1117" type="curve" smooth="yes"/>
      <point x="295" y="1117"/>
      <point x="116" y="1047"/>
      <point x="116" y="830" type="curve" smooth="yes"/>
      <point x="116" y="648"/>
      <point x="270" y="603"/>
      <point x="407" y="561" type="curve" smooth="yes"/>
      <point x="539" y="521" type="line" smooth="yes"/>
      <point x="669" y="481"/>
      <point x="741" y="443"/>
    </contour>
  </outline>
</glyph>
<glyph name="t" format="1">
  <advance width="718"/>
  <unicode hex="0074"/>
  <outline>
    <contour>
      <point x="270" y="1475" type="move" name="caron.alt"/>
    </contour>
    <contour>
      <point x="316" y="639" type="move" name="mid"/>
    </contour>
    <contour>
      <point x="278" y="1376" type="move" name="top"/>
    </contour>
    <contour>
      <point x="453" y="0" type="move" name="bot"/>
    </contour>
    <contour>
      <point x="491" y="-11" type="curve" smooth="yes"/>
      <point x="547" y="-11"/>
      <point x="607" y="-2"/>
      <point x="668" y="17" type="curve"/>
      <point x="653" y="83" type="line"/>
      <point x="603" y="68"/>
      <point x="549" y="59"/>
      <point x="501" y="59" type="curve" smooth="yes"/>
      <point x="400" y="59"/>
      <point x="320" y="99"/>
      <point x="320" y="213" type="curve" smooth="yes"/>
      <point x="320" y="1032" type="line"/>
      <point x="638" y="1032" type="line"/>
      <point x="638" y="1097" type="line"/>
      <point x="320" y="1097" type="line"/>
      <point x="320" y="1460" type="line"/>
      <point x="242" y="1443" type="line"/>
      <point x="231" y="1097" type="line"/>
      <point x="54" y="1097" type="line"/>
      <point x="54" y="1032" type="line"/>
      <point x="230" y="1032" type="line"/>
      <point x="230" y="212" type="line" smooth="yes"/>
      <point x="230" y="55"/>
      <point x="345" y="-11"/>
    </contour>
  </outline>
</glyph>
<glyph name="u" format="1">
  <advance width="1307"/>
  <unicode hex="0075"/>
  <outline>
    <contour>
      <point x="661" y="1172" type="move" name="top"/>
    </contour>
    <contour>
      <point x="1086" y="0" type="move" name="ogonek"/>
    </contour>
    <contour>
      <point x="575" y="-18" type="curve" smooth="yes"/>
      <point x="757" y="-18"/>
      <point x="920" y="58"/>
      <point x="1028" y="204" type="curve"/>
      <point x="1046" y="0" type="line"/>
      <point x="1117" y="0" type="line"/>
      <point x="1117" y="1172" type="line"/>
      <point x="1019" y="1172" type="line"/>
      <point x="1019" y="290" type="line"/>
      <point x="899" y="130"/>
      <point x="762" y="62"/>
      <point x="575" y="62" type="curve" smooth="yes"/>
      <point x="313" y="62"/>
      <point x="276" y="237"/>
      <point x="276" y="453" type="curve" smooth="yes"/>
      <point x="276" y="1172" type="line"/>
      <point x="178" y="1172" type="line"/>
      <point x="178" y="444" type="line" smooth="yes"/>
      <point x="178" y="213"/>
      <point x="238" y="-18"/>
    </contour>
  </outline>
</glyph>
<glyph name="w" format="1">
  <advance width="1520"/>
  <unicode hex="0077"/>
  <outline>
    <contour>
      <point x="768" y="1097" type="move" name="top"/>
    </contour>
    <contour>
      <point x="1069" y="0" type="line"/>
      <point x="1172" y="0" type="line"/>
      <point x="1477" y="1097" type="line"/>
      <point x="1393" y="1097" type="line"/>
      <point x="1121" y="82" type="line"/>
      <point x="811" y="1097" type="line"/>
      <point x="715" y="1097" type="line"/>
      <point x="410" y="82" type="line"/>
      <point x="126" y="1097" type="line"/>
      <point x="43" y="1097" type="line"/>
      <point x="354" y="1" type="line"/>
      <point x="461" y="1" type="line"/>
      <point x="766" y="1003" type="line"/>
    </contour>
  </outline>
</glyph>
<glyph name="x" format="1">
  <advance width="999"/>
  <unicode hex="0078"/>
  <outline>
    <contour>
      <point x="75" y="0" type="line"/>
      <point x="171" y="0" type="line"/>
      <point x="494" y="495" type="line"/>
      <point x="830" y="0" type="line"/>
      <point x="925" y="0" type="line"/>
      <point x="539" y="551" type="line"/>
      <point x="903" y="1097" type="line"/>
      <point x="816" y="1097" type="line"/>
      <point x="494" y="614" type="line"/>
      <point x="166" y="1097" type="line"/>
      <point x="79" y="1097" type="line"/>
      <point x="446" y="554" type="line"/>
    </contour>
  </outline>
</glyph>
<glyph name="y" format="1">
  <advance width="1023"/>
  <unicode hex="0079"/>
  <outline>
    <contour>
      <point x="526" y="1097" type="move" name="top"/>
    </contour>
    <contour>
      <point x="168" y="-380" type="line"/>
      <point x="434" y="-380"/>
      <point x="466" y="-215"/>
      <point x="533" y="-37" type="curve" smooth="yes"/>
      <point x="962" y="1097" type="line"/>
      <point x="871" y="1097" type="line"/>
      <point x="511" y="127" type="line"/>
      <point x="145" y="1097" type="line"/>
      <point x="50" y="1097" type="line"/>
      <point x="468" y="25" type="line"/>
      <point x="389" y="-211"/>
      <point x="372" y="-309"/>
      <point x="150" y="-317" type="curve"/>
    </contour>
  </outline>
</glyph>
<glyph name="z" format="1">
  <advance width="866"/>
  <unicode hex="007A"/>
  <outline>
    <contour>
      <point x="450" y="1097" type="move" name="top"/>
    </contour>
    <contour>
      <point x="94" y="0" type="line"/>
      <point x="798" y="0" type="line"/>
      <point x="798" y="76" type="line"/>
      <point x="190" y="76" type="line"/>
      <point x="797" y="1021" type="line"/>
      <point x="798" y="1097" type="line"/>
      <point x="125" y="1097" type="line"/>
      <point x="125" y="1029" type="line"/>
      <point x="709" y="1029" type="line"/>
      <point x="94" y="81" type="line"/>
    </contour>
  </outline>
</glyph>
<glyph name="braceleft" format="1">
  <advance width="809"/>
  <unicode hex="007B"/>
  <outline>
    <contour>
      <point x="683" y="-118" type="curve"/>
      <point x="683" y="-60" type="line"/>
      <point x="443" y="-50"/>
      <point x="445" y="53"/>
      <point x="442" y="314" type="curve" smooth="yes"/>
      <point x="437" y="732"/>
      <point x="359" y="743"/>
      <point x="242" y="761" type="curve"/>
      <point x="359" y="775"/>
      <point x="437" y="788"/>
      <point x="442" y="1207" type="curve" smooth="yes"/>
      <point x="445" y="1469"/>
      <point x="447" y="1570"/>
      <point x="683" y="1580" type="curve"/>
      <point x="683" y="1638" type="line"/>
      <point x="414" y="1631"/>
      <point x="350" y="1556"/>
      <point x="350" y="1207" type="curve" smooth="yes"/>
      <point x="350" y="886"/>
      <point x="342" y="802"/>
      <point x="132" y="795" type="curve"/>
      <point x="132" y="725" type="line"/>
      <point x="339" y="718"/>
      <point x="350" y="633"/>
      <point x="350" y="314" type="curve" smooth="yes"/>
      <point x="350" y="-36"/>
      <point x="414" y="-111"/>
    </contour>
  </outline>
</glyph>
<glyph name="bar" format="1">
  <advance width="217"/>
  <unicode hex="007C"/>
  <outline>
    <contour>
      <point x="59" y="-86" type="line"/>
      <point x="160" y="-86" type="line"/>
      <point x="160" y="1601" type="line"/>
      <point x="59" y="1601" type="line"/>
    </contour>
  </outline>
</glyph>
<glyph name="braceright" format="1">
  <advance width="809"/>
  <unicode hex="007D"/>
  <outline>
    <contour>
      <point x="126" y="-118" type="line"/>
      <point x="395" y="-111"/>
      <point x="459" y="-36"/>
      <point x="459" y="314" type="curve" smooth="yes"/>
      <point x="459" y="633"/>
      <point x="470" y="718"/>
      <point x="677" y="725" type="curve"/>
      <point x="677" y="795" type="line"/>
      <point x="467" y="802"/>
      <point x="459" y="886"/>
      <point x="459" y="1207" type="curve" smooth="yes"/>
      <point x="459" y="1556"/>
      <point x="395" y="1631"/>
      <point x="126" y="1638" type="curve"/>
      <point x="126" y="1580" type="line"/>
      <point x="362" y="1570"/>
      <point x="364" y="1469"/>
      <point x="367" y="1207" type="curve" smooth="yes"/>
      <point x="372" y="788"/>
      <point x="450" y="775"/>
      <point x="567" y="761" type="curve"/>
      <point x="450" y="743"/>
      <point x="372" y="732"/>
      <point x="367" y="314" type="curve" smooth="yes"/>
      <point x="364" y="53"/>
      <point x="366" y="-50"/>
      <point x="126" y="-60" type="curve"/>
    </contour>
  </outline>
</glyph>
<glyph name="asciitilde" format="1">
  <advance width="845"/>
  <unicode hex="007E"/>
  <outline>
    <contour>
      <point x="77" y="675" type="curve"/>
      <point x="116" y="675" type="line"/>
      <point x="116" y="763"/>
      <point x="154" y="792"/>
      <point x="211" y="792" type="curve" smooth="yes"/>
      <point x="321" y="792"/>
      <point x="503" y="687"/>
      <point x="634" y="687" type="curve" smooth="yes"/>
      <point x="702" y="687"/>
      <point x="771" y="697"/>
      <point x="771" y="893" type="curve"/>
      <point x="725" y="893" type="line"/>
      <point x="725" y="798"/>
      <point x="685" y="767"/>
      <point x="625" y="767" type="curve" smooth="yes"/>
      <point x="517" y="767"/>
      <point x="343" y="866"/>
      <point x="222" y="866" type="curve" smooth="yes"/>
      <point x="170" y="866"/>
      <point x="77" y="858"/>
    </contour>
  </outline>
</glyph>
<glyph name="cent" format="1">
  <advance width="1086"/>
  <unicode hex="00A2"/>
  <outline>
    <contour>
      <point x="596" y="-205" type="line"/>
      <point x="663" y="-205" type="line"/>
      <point x="663" y="1440" type="line"/>
      <point x="596" y="1440" type="line"/>
    </contour>
    <component base="c" yScale="0.91" yOffset="112"/>
  </outline>
</glyph>
<glyph name="sterling" format="1">
  <advance width="905"/>
  <unicode hex="00A3"/>
  <outline>
    <contour>
      <point x="115" y="0" type="line"/>
      <point x="842" y="0" type="line"/>
      <point x="842" y="66" type="line"/>
      <point x="207" y="66" type="line"/>
      <point x="330" y="181"/>
      <point x="383" y="296"/>
      <point x="383" y="407" type="curve" smooth="yes"/>
      <point x="383" y="466"/>
      <point x="368" y="523"/>
      <point x="341" y="580" type="curve"/>
      <point x="753" y="580" type="line"/>
      <point x="753" y="639" type="line"/>
      <point x="318" y="639" type="line"/>
      <point x="246" y="748"/>
      <point x="213" y="847"/>
      <point x="213" y="928" type="curve" smooth="yes"/>
      <point x="213" y="1126"/>
      <point x="401" y="1164"/>
      <point x="519" y="1164" type="curve" smooth="yes"/>
      <point x="621" y="1164"/>
      <point x="718" y="1138"/>
      <point x="801" y="1084" type="curve"/>
      <point x="828" y="1145" type="line"/>
      <point x="750" y="1205"/>
      <point x="634" y="1238"/>
      <point x="511" y="1238" type="curve" smooth="yes"/>
      <point x="360" y="1238"/>
      <point x="125" y="1181"/>
      <point x="125" y="930" type="curve" smooth="yes"/>
      <point x="125" y="841"/>
      <point x="159" y="742"/>
      <point x="228" y="639" type="curve"/>
      <point x="65" y="639" type="line"/>
      <point x="65" y="580" type="line"/>
      <point x="257" y="580" type="line"/>
      <point x="285" y="520"/>
      <point x="298" y="464"/>
      <point x="298" y="410" type="curve" smooth="yes"/>
      <point x="298" y="284"/>
      <point x="229" y="168"/>
      <point x="115" y="58" type="curve"/>
    </contour>
  </outline>
</glyph>
<glyph name="currency" format="1">
  <advance width="1063"/>
  <unicode hex="00A4"/>
  <outline>
    <contour>
      <point x="151" y="533" type="line"/>
      <point x="281" y="663" type="line"/>
      <point x="346" y="615"/>
      <point x="431" y="589"/>
      <point x="532" y="589" type="curve" smooth="yes"/>
      <point x="637" y="589"/>
      <point x="724" y="617"/>
      <point x="789" y="668" type="curve"/>
      <point x="924" y="533" type="line"/>
      <point x="973" y="583" type="line"/>
      <point x="839" y="717" type="line"/>
      <point x="891" y="780"/>
      <point x="919" y="865"/>
      <point x="919" y="966" type="curve" smooth="yes"/>
      <point x="919" y="1069"/>
      <point x="890" y="1155"/>
      <point x="836" y="1218" type="curve"/>
      <point x="973" y="1355" type="line"/>
      <point x="924" y="1405" type="line"/>
      <point x="786" y="1267" type="line"/>
      <point x="721" y="1316"/>
      <point x="635" y="1343"/>
      <point x="532" y="1343" type="curve" smooth="yes"/>
      <point x="433" y="1343"/>
      <point x="349" y="1318"/>
      <point x="285" y="1271" type="curve"/>
      <point x="151" y="1405" type="line"/>
      <point x="102" y="1355" type="line"/>
      <point x="233" y="1224" type="line"/>
      <point x="176" y="1160"/>
      <point x="145" y="1072"/>
      <point x="145" y="966" type="curve" smooth="yes"/>
      <point x="145" y="862"/>
      <point x="175" y="775"/>
      <point x="230" y="711" type="curve"/>
      <point x="102" y="583" type="line"/>
    </contour>
    <contour>
      <point x="532" y="667" type="curve" smooth="yes"/>
      <point x="354" y="667"/>
      <point x="243" y="782"/>
      <point x="243" y="966" type="curve" smooth="yes"/>
      <point x="243" y="1150"/>
      <point x="354" y="1265"/>
      <point x="532" y="1265" type="curve" smooth="yes"/>
      <point x="710" y="1265"/>
      <point x="821" y="1150"/>
      <point x="821" y="966" type="curve" smooth="yes"/>
      <point x="821" y="782"/>
      <point x="710" y="667"/>
    </contour>
  </outline>
</glyph>
<glyph name="yen" format="1">
  <advance width="1259"/>
  <unicode hex="00A5"/>
  <outline>
    <contour>
      <point x="1203" y="1620" type="line"/>
      <point x="1102" y="1620" type="line"/>
      <point x="633" y="715" type="line"/>
      <point x="166" y="1620" type="line"/>
      <point x="61" y="1620" type="line"/>
      <point x="548" y="680" type="line"/>
      <point x="286" y="680" type="line"/>
      <point x="286" y="612" type="line"/>
      <point x="580" y="612" type="line"/>
      <point x="580" y="470" type="line"/>
      <point x="286" y="470" type="line"/>
      <point x="286" y="402" type="line"/>
      <point x="580" y="402" type="line"/>
      <point x="580" y="0" type="line"/>
      <point x="678" y="0" type="line"/>
      <point x="678" y="402" type="line"/>
      <point x="963" y="402" type="line"/>
      <point x="963" y="470" type="line"/>
      <point x="678" y="470" type="line"/>
      <point x="678" y="612" type="line"/>
      <point x="963" y="612" type="line"/>
      <point x="963" y="680" type="line"/>
      <point x="710" y="680" type="line"/>
    </contour>
  </outline>
</glyph>
<glyph name="brokenbar" format="1">
  <advance width="346"/>
  <unicode hex="00A6"/>
  <outline>
    <contour>
      <point x="135" y="-152" type="line"/>
      <point x="212" y="-152" type="line"/>
      <point x="212" y="465" type="line"/>
      <point x="135" y="465" type="line"/>
    </contour>
    <contour>
      <point x="135" y="898" type="line"/>
      <point x="212" y="898" type="line"/>
      <point x="212" y="1515" type="line"/>
      <point x="135" y="1515" type="line"/>
    </contour>
  </outline>
</glyph>
<glyph name="section" format="1">
  <advance width="816"/>
  <unicode hex="00A7"/>
  <outline>
    <contour>
      <point x="411" y="-88" type="curve" smooth="yes"/>
      <point x="605" y="-88"/>
      <point x="799" y="5"/>
      <point x="799" y="215" type="curve" smooth="yes"/>
      <point x="799" y="417"/>
      <point x="629" y="479"/>
      <point x="484" y="507" type="curve"/>
      <point x="621" y="507"/>
      <point x="797" y="595"/>
      <point x="797" y="757" type="curve" smooth="yes"/>
      <point x="797" y="954"/>
      <point x="665" y="990"/>
      <point x="520" y="1037" type="curve" smooth="yes"/>
      <point x="386" y="1081" type="line" smooth="yes"/>
      <point x="240" y="1129"/>
      <point x="165" y="1188"/>
      <point x="165" y="1296" type="curve" smooth="yes"/>
      <point x="165" y="1466"/>
      <point x="353" y="1469"/>
      <point x="417" y="1469" type="curve" smooth="yes"/>
      <point x="538" y="1469"/>
      <point x="621" y="1446"/>
      <point x="712" y="1398" type="curve"/>
      <point x="750" y="1474" type="line"/>
      <point x="661" y="1532"/>
      <point x="544" y="1564"/>
      <point x="414" y="1564" type="curve" smooth="yes"/>
      <point x="277" y="1564"/>
      <point x="63" y="1527"/>
      <point x="63" y="1291" type="curve" smooth="yes"/>
      <point x="63" y="1102"/>
      <point x="215" y="1033"/>
      <point x="394" y="1001" type="curve"/>
      <point x="280" y="999"/>
      <point x="63" y="949"/>
      <point x="63" y="757" type="curve" smooth="yes"/>
      <point x="63" y="536"/>
      <point x="234" y="509"/>
      <point x="338" y="485" type="curve" smooth="yes"/>
      <point x="436" y="462" type="line" smooth="yes"/>
      <point x="586" y="427"/>
      <point x="685" y="360"/>
      <point x="684" y="209" type="curve" smooth="yes"/>
      <point x="683" y="35"/>
      <point x="499" y="5"/>
      <point x="399" y="5" type="curve" smooth="yes"/>
      <point x="285" y="5"/>
      <point x="175" y="51"/>
      <point x="120" y="87" type="curve"/>
      <point x="80" y="-4" type="line"/>
      <point x="142" y="-41"/>
      <point x="268" y="-88"/>
    </contour>
    <contour>
      <point x="426" y="574" type="curve" smooth="yes"/>
      <point x="316" y="574"/>
      <point x="153" y="591"/>
      <point x="153" y="757" type="curve" smooth="yes"/>
      <point x="153" y="933"/>
      <point x="331" y="935"/>
      <point x="425" y="935" type="curve" smooth="yes"/>
      <point x="537" y="935"/>
      <point x="701" y="933"/>
      <point x="701" y="757" type="curve" smooth="yes"/>
      <point x="701" y="593"/>
      <point x="542" y="574"/>
    </contour>
  </outline>
</glyph>
<glyph name="dieresis" format="1">
  <advance width="552"/>
  <unicode hex="00A8"/>
  <outline>
    <contour>
      <point x="290" y="1096" type="move" name="_top"/>
    </contour>
    <contour>
      <point x="103" y="1267" type="curve" smooth="yes"/>
      <point x="142" y="1267"/>
      <point x="160" y="1288"/>
      <point x="160" y="1335" type="curve" smooth="yes"/>
      <point x="160" y="1382"/>
      <point x="142" y="1403"/>
      <point x="103" y="1403" type="curve" smooth="yes"/>
      <point x="59" y="1403"/>
      <point x="38" y="1382"/>
      <point x="38" y="1335" type="curve" smooth="yes"/>
      <point x="38" y="1288"/>
      <point x="59" y="1267"/>
    </contour>
    <contour>
      <point x="470" y="1267" type="curve" smooth="yes"/>
      <point x="509" y="1267"/>
      <point x="527" y="1288"/>
      <point x="527" y="1335" type="curve" smooth="yes"/>
      <point x="527" y="1382"/>
      <point x="509" y="1403"/>
      <point x="470" y="1403" type="curve" smooth="yes"/>
      <point x="426" y="1403"/>
      <point x="407" y="1382"/>
      <point x="407" y="1335" type="curve" smooth="yes"/>
      <point x="407" y="1288"/>
      <point x="426" y="1267"/>
    </contour>
  </outline>
</glyph>
<glyph name="copyright" format="1">
  <advance width="1802"/>
  <unicode hex="00A9"/>
  <outline>
    <contour>
      <point x="913" y="1243" type="curve" smooth="yes"/>
      <point x="617" y="1243"/>
      <point x="431" y="1050"/>
      <point x="431" y="755" type="curve" smooth="yes"/>
      <point x="431" y="457"/>
      <point x="611" y="269"/>
      <point x="909" y="269" type="curve" smooth="yes"/>
      <point x="1042" y="269"/>
      <point x="1165" y="313"/>
      <point x="1249" y="384" type="curve"/>
      <point x="1215" y="437" type="line"/>
      <point x="1136" y="373"/>
      <point x="1029" y="334"/>
      <point x="909" y="334" type="curve" smooth="yes"/>
      <point x="657" y="334"/>
      <point x="516" y="487"/>
      <point x="516" y="755" type="curve" smooth="yes"/>
      <point x="516" y="1012"/>
      <point x="656" y="1178"/>
      <point x="913" y="1178" type="curve" smooth="yes"/>
      <point x="1023" y="1178"/>
      <point x="1134" y="1142"/>
      <point x="1210" y="1079" type="curve"/>
      <point x="1251" y="1127" type="line"/>
      <point x="1170" y="1199"/>
      <point x="1043" y="1243"/>
    </contour>
    <contour>
      <point x="901" y="55" type="curve" smooth="yes"/>
      <point x="467" y="55"/>
      <point x="195" y="320"/>
      <point x="195" y="744" type="curve" smooth="yes"/>
      <point x="195" y="1168"/>
      <point x="467" y="1433"/>
      <point x="901" y="1433" type="curve" smooth="yes"/>
      <point x="1335" y="1433"/>
      <point x="1607" y="1168"/>
      <point x="1607" y="744" type="curve" smooth="yes"/>
      <point x="1607" y="320"/>
      <point x="1335" y="55"/>
    </contour>
    <contour>
      <point x="901" y="-17" type="curve" smooth="yes"/>
      <point x="1387" y="-17"/>
      <point x="1692" y="276"/>
      <point x="1692" y="744" type="curve" smooth="yes"/>
      <point x="1692" y="1212"/>
      <point x="1387" y="1505"/>
      <point x="901" y="1505" type="curve" smooth="yes"/>
      <point x="415" y="1505"/>
      <point x="110" y="1212"/>
      <point x="110" y="744" type="curve" smooth="yes"/>
      <point x="110" y="276"/>
      <point x="415" y="-17"/>
    </contour>
  </outline>
</glyph>
<glyph name="logicalnot" format="1">
  <advance width="1408"/>
  <unicode hex="00AC"/>
  <outline>
    <contour>
      <point x="1094" y="475" type="line"/>
      <point x="1190" y="475" type="line"/>
      <point x="1190" y="1042" type="line"/>
      <point x="186" y="1042" type="line"/>
      <point x="186" y="958" type="line"/>
      <point x="1094" y="958" type="line"/>
    </contour>
  </outline>
</glyph>
<glyph name="uni00AD" format="1">
  <advance width="287"/>
  <unicode hex="00AD"/>
  <outline>
    <contour>
      <point x="20" y="442" type="line"/>
      <point x="294" y="442" type="line"/>
      <point x="294" y="498" type="line"/>
      <point x="20" y="498" type="line"/>
    </contour>
  </outline>
</glyph>
<glyph name="registered" format="1">
  <advance width="1810"/>
  <unicode hex="00AE"/>
  <outline>
    <contour>
      <point x="588" y="274" type="line"/>
      <point x="672" y="274" type="line"/>
      <point x="672" y="718" type="line"/>
      <point x="945" y="718" type="line"/>
      <point x="1121" y="711"/>
      <point x="1142" y="664"/>
      <point x="1161" y="560" type="curve" smooth="yes"/>
      <point x="1214" y="274" type="line"/>
      <point x="1294" y="274" type="line"/>
      <point x="1243" y="563" type="line" smooth="yes"/>
      <point x="1226" y="657"/>
      <point x="1209" y="732"/>
      <point x="1110" y="755" type="curve"/>
      <point x="1207" y="781"/>
      <point x="1274" y="852"/>
      <point x="1274" y="985" type="curve" smooth="yes"/>
      <point x="1274" y="1218"/>
      <point x="1075" y="1242"/>
      <point x="933" y="1242" type="curve" smooth="yes"/>
      <point x="588" y="1242" type="line"/>
    </contour>
    <contour>
      <point x="672" y="792" type="line"/>
      <point x="672" y="1167" type="line"/>
      <point x="934" y="1167" type="line" smooth="yes"/>
      <point x="1090" y="1167"/>
      <point x="1189" y="1137"/>
      <point x="1189" y="985" type="curve" smooth="yes"/>
      <point x="1189" y="819"/>
      <point x="1100" y="792"/>
      <point x="926" y="792" type="curve" smooth="yes"/>
    </contour>
    <contour>
      <point x="905" y="55" type="curve" smooth="yes"/>
      <point x="471" y="55"/>
      <point x="199" y="320"/>
      <point x="199" y="744" type="curve" smooth="yes"/>
      <point x="199" y="1168"/>
      <point x="471" y="1433"/>
      <point x="905" y="1433" type="curve" smooth="yes"/>
      <point x="1339" y="1433"/>
      <point x="1611" y="1168"/>
      <point x="1611" y="744" type="curve" smooth="yes"/>
      <point x="1611" y="320"/>
      <point x="1339" y="55"/>
    </contour>
    <contour>
      <point x="905" y="-17" type="curve" smooth="yes"/>
      <point x="1391" y="-17"/>
      <point x="1696" y="276"/>
      <point x="1696" y="744" type="curve" smooth="yes"/>
      <point x="1696" y="1212"/>
      <point x="1391" y="1505"/>
      <point x="905" y="1505" type="curve" smooth="yes"/>
      <point x="419" y="1505"/>
      <point x="114" y="1212"/>
      <point x="114" y="744" type="curve" smooth="yes"/>
      <point x="114" y="276"/>
      <point x="419" y="-17"/>
    </contour>
  </outline>
</glyph>
<glyph name="macron" format="1">
  <advance width="869"/>
  <unicode hex="00AF"/>
  <outline>
    <contour>
      <point x="426" y="1328" type="move" name="_mid"/>
    </contour>
    <contour>
      <point x="434" y="1096" type="move" name="_top"/>
    </contour>
    <contour>
      <point x="170" y="1316" type="line"/>
      <point x="677" y="1316" type="line"/>
      <point x="677" y="1383" type="line"/>
      <point x="170" y="1383" type="line"/>
    </contour>
  </outline>
</glyph>
<glyph name="degree" format="1">
  <advance width="399"/>
  <unicode hex="00B0"/>
  <outline>
    <contour>
      <point x="211" y="654" type="curve" smooth="yes"/>
      <point x="144" y="654"/>
      <point x="93" y="716"/>
      <point x="93" y="781" type="curve" smooth="yes"/>
      <point x="93" y="847"/>
      <point x="140" y="906"/>
      <point x="211" y="906" type="curve" smooth="yes"/>
      <point x="283" y="906"/>
      <point x="324" y="847"/>
      <point x="324" y="781" type="curve" smooth="yes"/>
      <point x="324" y="713"/>
      <point x="282" y="654"/>
    </contour>
    <contour>
      <point x="219" y="607" type="curve" smooth="yes"/>
      <point x="321" y="607"/>
      <point x="369" y="688"/>
      <point x="369" y="783" type="curve" smooth="yes"/>
      <point x="369" y="878"/>
      <point x="312" y="955"/>
      <point x="213" y="955" type="curve" smooth="yes"/>
      <point x="107" y="955"/>
      <point x="46" y="882"/>
      <point x="46" y="778" type="curve" smooth="yes"/>
      <point x="46" y="672"/>
      <point x="116" y="607"/>
    </contour>
  </outline>
</glyph>
<glyph name="plusminus" format="1">
  <advance width="654"/>
  <unicode hex="00B1"/>
  <outline>
    <contour>
      <point x="295" y="41" type="line"/>
      <point x="352" y="41" type="line"/>
      <point x="352" y="358" type="line"/>
      <point x="664" y="358" type="line"/>
      <point x="664" y="424" type="line"/>
      <point x="352" y="424" type="line"/>
      <point x="352" y="743" type="line"/>
      <point x="295" y="743" type="line"/>
      <point x="295" y="424" type="line"/>
      <point x="-17" y="424" type="line"/>
      <point x="-17" y="358" type="line"/>
      <point x="295" y="358" type="line"/>
    </contour>
    <contour>
      <point x="20" y="-79" type="line"/>
      <point x="628" y="-79" type="line"/>
      <point x="628" y="5" type="line"/>
      <point x="20" y="5" type="line"/>
    </contour>
  </outline>
</glyph>
<glyph name="uni00B2" format="1">
  <advance width="1187"/>
  <unicode hex="00B2"/>
  <outline>
    <contour>
      <point x="254" y="610" type="line"/>
      <point x="932" y="610" type="line"/>
      <point x="932" y="673" type="line"/>
      <point x="360" y="673" type="line"/>
      <point x="663" y="953" type="line" smooth="yes"/>
      <point x="781" y="1061"/>
      <point x="919" y="1192"/>
      <point x="919" y="1376" type="curve" smooth="yes"/>
      <point x="919" y="1583"/>
      <point x="781" y="1679"/>
      <point x="572" y="1679" type="curve" smooth="yes"/>
      <point x="424" y="1679"/>
      <point x="330" y="1625"/>
      <point x="260" y="1580" type="curve"/>
      <point x="286" y="1514" type="line"/>
      <point x="357" y="1560"/>
      <point x="452" y="1610"/>
      <point x="572" y="1610" type="curve" smooth="yes"/>
      <point x="704" y="1610"/>
      <point x="834" y="1563"/>
      <point x="834" y="1376" type="curve" smooth="yes"/>
      <point x="834" y="1214"/>
      <point x="734" y="1124"/>
      <point x="612" y="1009" type="curve" smooth="yes"/>
      <point x="254" y="669" type="line"/>
    </contour>
  </outline>
</glyph>
<glyph name="uni00B3" format="1">
  <advance width="1270"/>
  <unicode hex="00B3"/>
  <outline>
    <contour>
      <point x="625" y="570" type="curve" smooth="yes"/>
      <point x="822" y="570"/>
      <point x="991" y="664"/>
      <point x="991" y="891" type="curve" smooth="yes"/>
      <point x="991" y="1073"/>
      <point x="885" y="1179"/>
      <point x="713" y="1215" type="curve"/>
      <point x="828" y="1226"/>
      <point x="950" y="1292"/>
      <point x="950" y="1484" type="curve" smooth="yes"/>
      <point x="950" y="1689"/>
      <point x="799" y="1775"/>
      <point x="628" y="1775" type="curve" smooth="yes"/>
      <point x="520" y="1775"/>
      <point x="404" y="1740"/>
      <point x="313" y="1680" type="curve"/>
      <point x="340" y="1616" type="line"/>
      <point x="421" y="1667"/>
      <point x="529" y="1702"/>
      <point x="626" y="1702" type="curve" smooth="yes"/>
      <point x="753" y="1702"/>
      <point x="860" y="1642"/>
      <point x="860" y="1484" type="curve" smooth="yes"/>
      <point x="860" y="1285"/>
      <point x="715" y="1257"/>
      <point x="581" y="1258" type="curve"/>
      <point x="581" y="1181" type="line"/>
      <point x="804" y="1147"/>
      <point x="910" y="1083"/>
      <point x="903" y="877" type="curve" smooth="yes"/>
      <point x="897" y="708"/>
      <point x="764" y="645"/>
      <point x="613" y="645" type="curve" smooth="yes"/>
      <point x="519" y="645"/>
      <point x="419" y="669"/>
      <point x="337" y="707" type="curve"/>
      <point x="313" y="634" type="line"/>
      <point x="413" y="590"/>
      <point x="523" y="570"/>
    </contour>
  </outline>
</glyph>
<glyph name="acute" format="1">
  <advance width="447"/>
  <unicode hex="00B4"/>
  <outline>
    <contour>
      <point x="96" y="1172" type="move" name="_top"/>
    </contour>
    <contour>
      <point x="21" y="1344" type="line"/>
      <point x="430" y="1560" type="line"/>
      <point x="388" y="1633" type="line"/>
      <point x="0" y="1378" type="line"/>
    </contour>
  </outline>
</glyph>
<glyph name="paragraph" format="1">
  <advance width="1079"/>
  <unicode hex="00B6"/>
  <outline>
    <contour>
      <point x="525" y="-75" type="line"/>
      <point x="615" y="-75" type="line"/>
      <point x="615" y="1440" type="line"/>
      <point x="798" y="1440" type="line"/>
      <point x="798" y="-75" type="line"/>
      <point x="887" y="-75" type="line"/>
      <point x="887" y="1515" type="line"/>
      <point x="568" y="1515" type="line" smooth="yes"/>
      <point x="331" y="1515"/>
      <point x="104" y="1484"/>
      <point x="104" y="1236" type="curve" smooth="yes"/>
      <point x="104" y="1009"/>
      <point x="305" y="935"/>
      <point x="525" y="935" type="curve"/>
    </contour>
  </outline>
</glyph>
<glyph name="periodcentered" format="1">
  <advance width="580"/>
  <unicode hex="00B7"/>
  <outline>
    <contour>
      <point x="111" y="513" type="move" name="_mid"/>
    </contour>
    <contour>
      <point x="524" y="449" type="curve" smooth="yes"/>
      <point x="559" y="449"/>
      <point x="581" y="475"/>
      <point x="581" y="516" type="curve" smooth="yes"/>
      <point x="581" y="558"/>
      <point x="559" y="584"/>
      <point x="524" y="584" type="curve" smooth="yes"/>
      <point x="485" y="584"/>
      <point x="459" y="558"/>
      <point x="459" y="516" type="curve" smooth="yes"/>
      <point x="459" y="475"/>
      <point x="485" y="449"/>
    </contour>
  </outline>
</glyph>
<glyph name="cedilla" format="1">
  <advance width="417"/>
  <unicode hex="00B8"/>
  <outline>
    <contour>
      <point x="212" y="0" type="move" name="_bot"/>
    </contour>
    <contour>
      <point x="213" y="-392" type="curve" smooth="yes"/>
      <point x="327" y="-392"/>
      <point x="411" y="-334"/>
      <point x="411" y="-224" type="curve" smooth="yes"/>
      <point x="411" y="-147"/>
      <point x="352" y="-71"/>
      <point x="224" y="-71" type="curve"/>
      <point x="240" y="15" type="line"/>
      <point x="187" y="15" type="line"/>
      <point x="170" y="-119" type="line"/>
      <point x="297" y="-119"/>
      <point x="338" y="-172"/>
      <point x="338" y="-223" type="curve" smooth="yes"/>
      <point x="338" y="-296"/>
      <point x="288" y="-332"/>
      <point x="210" y="-332" type="curve" smooth="yes"/>
      <point x="182" y="-332"/>
      <point x="151" y="-327"/>
      <point x="117" y="-318" type="curve"/>
      <point x="109" y="-378" type="line"/>
      <point x="145" y="-388"/>
      <point x="180" y="-392"/>
    </contour>
  </outline>
</glyph>
<glyph name="uni00B9" format="1">
  <advance width="1178"/>
  <unicode hex="00B9"/>
  <outline>
    <contour>
      <point x="597" y="625" type="line"/>
      <point x="690" y="625" type="line"/>
      <point x="690" y="1790" type="line"/>
      <point x="583" y="1790" type="line"/>
      <point x="332" y="1665" type="line"/>
      <point x="363" y="1599" type="line"/>
      <point x="597" y="1716" type="line"/>
    </contour>
  </outline>
</glyph>
<glyph name="guillemotright" format="1">
  <advance width="891"/>
  <unicode hex="00BB"/>
  <outline>
    <contour>
      <point x="97" y="257" type="line"/>
      <point x="511" y="596" type="line"/>
      <point x="511" y="658" type="line"/>
      <point x="97" y="989" type="line"/>
      <point x="97" y="918" type="line"/>
      <point x="450" y="627" type="line"/>
      <point x="97" y="338" type="line"/>
    </contour>
    <contour>
      <point x="415" y="257" type="line"/>
      <point x="829" y="596" type="line"/>
      <point x="829" y="658" type="line"/>
      <point x="415" y="989" type="line"/>
      <point x="415" y="918" type="line"/>
      <point x="768" y="627" type="line"/>
      <point x="415" y="338" type="line"/>
    </contour>
  </outline>
</glyph>
<glyph name="onequarter" format="1">
  <advance width="1929"/>
  <unicode hex="00BC"/>
  <outline>
    <contour>
      <point x="1631" y="-8" type="line"/>
      <point x="1631" y="283" type="line"/>
      <point x="1789" y="283" type="line"/>
      <point x="1789" y="342" type="line"/>
      <point x="1631" y="342" type="line"/>
      <point x="1631" y="1128" type="line"/>
      <point x="1545" y="1147" type="line"/>
      <point x="989" y="365" type="line"/>
      <point x="1005" y="283" type="line"/>
      <point x="1539" y="283" type="line"/>
      <point x="1539" y="0" type="line"/>
    </contour>
    <contour>
      <point x="366" y="664" type="line"/>
      <point x="459" y="664" type="line"/>
      <point x="459" y="1606" type="line"/>
      <point x="366" y="1625" type="line"/>
      <point x="133" y="1513" type="line"/>
      <point x="172" y="1438" type="line"/>
      <point x="366" y="1529" type="line"/>
    </contour>
    <contour>
      <point x="392" y="-17" type="line"/>
      <point x="1431" y="1629" type="line"/>
      <point x="1361" y="1674" type="line"/>
      <point x="324" y="28" type="line"/>
    </contour>
    <contour>
      <point x="1070" y="342" type="line"/>
      <point x="1539" y="1019" type="line"/>
      <point x="1539" y="342" type="line"/>
    </contour>
  </outline>
</glyph>
<glyph name="onehalf" format="1">
  <advance width="2203"/>
  <unicode hex="00BD"/>
  <outline>
    <contour>
      <point x="1198" y="0" type="line"/>
      <point x="1836" y="0" type="line"/>
      <point x="1836" y="70" type="line"/>
      <point x="1323" y="70" type="line"/>
      <point x="1588" y="309" type="line" smooth="yes"/>
      <point x="1697" y="408"/>
      <point x="1825" y="530"/>
      <point x="1825" y="699" type="curve" smooth="yes"/>
      <point x="1825" y="892"/>
      <point x="1695" y="981"/>
      <point x="1499" y="981" type="curve" smooth="yes"/>
      <point x="1355" y="981"/>
      <point x="1265" y="927"/>
      <point x="1202" y="887" type="curve"/>
      <point x="1232" y="812" type="line"/>
      <point x="1299" y="857"/>
      <point x="1387" y="906"/>
      <point x="1499" y="906" type="curve" smooth="yes"/>
      <point x="1616" y="906"/>
      <point x="1727" y="867"/>
      <point x="1727" y="699" type="curve" smooth="yes"/>
      <point x="1727" y="553"/>
      <point x="1639" y="472"/>
      <point x="1528" y="368" type="curve" smooth="yes"/>
      <point x="1198" y="62" type="line"/>
    </contour>
    <contour>
      <point x="379" y="664" type="line"/>
      <point x="472" y="664" type="line"/>
      <point x="472" y="1606" type="line"/>
      <point x="379" y="1625" type="line"/>
      <point x="146" y="1513" type="line"/>
      <point x="185" y="1446" type="line"/>
      <point x="379" y="1537" type="line"/>
    </contour>
    <contour>
      <point x="424" y="-17" type="line"/>
      <point x="1463" y="1629" type="line"/>
      <point x="1393" y="1674" type="line"/>
      <point x="356" y="28" type="line"/>
    </contour>
  </outline>
</glyph>
<glyph name="threequarters" format="1">
  <advance width="2028"/>
  <unicode hex="00BE"/>
  <outline>
    <contour>
      <point x="416" y="585" type="curve" smooth="yes"/>
      <point x="577" y="585"/>
      <point x="710" y="660"/>
      <point x="710" y="842" type="curve" smooth="yes"/>
      <point x="710" y="980"/>
      <point x="633" y="1063"/>
      <point x="500" y="1095" type="curve"/>
      <point x="589" y="1107"/>
      <point x="677" y="1162"/>
      <point x="677" y="1308" type="curve" smooth="yes"/>
      <point x="677" y="1467"/>
      <point x="570" y="1541"/>
      <point x="408" y="1541" type="curve" smooth="yes"/>
      <point x="289" y="1541"/>
      <point x="215" y="1496"/>
      <point x="164" y="1463" type="curve"/>
      <point x="187" y="1400" type="line"/>
      <point x="243" y="1437"/>
      <point x="315" y="1477"/>
      <point x="408" y="1477" type="curve" smooth="yes"/>
      <point x="504" y="1477"/>
      <point x="595" y="1445"/>
      <point x="595" y="1308" type="curve" smooth="yes"/>
      <point x="595" y="1154"/>
      <point x="487" y="1132"/>
      <point x="383" y="1132" type="curve" smooth="yes"/>
      <point x="380" y="1132"/>
      <point x="375" y="1135"/>
      <point x="375" y="1067" type="curve"/>
      <point x="543" y="1044"/>
      <point x="628" y="995"/>
      <point x="628" y="847" type="curve" smooth="yes"/>
      <point x="628" y="706"/>
      <point x="543" y="648"/>
      <point x="416" y="648" type="curve" smooth="yes"/>
      <point x="341" y="648"/>
      <point x="262" y="661"/>
      <point x="186" y="697" type="curve"/>
      <point x="164" y="637" type="line"/>
      <point x="243" y="601"/>
      <point x="334" y="585"/>
    </contour>
    <contour>
      <point x="1691" y="-7" type="line"/>
      <point x="1691" y="265" type="line"/>
      <point x="1839" y="265" type="line"/>
      <point x="1839" y="320" type="line"/>
      <point x="1691" y="320" type="line"/>
      <point x="1691" y="1055" type="line"/>
      <point x="1611" y="1072" type="line"/>
      <point x="1091" y="341" type="line"/>
      <point x="1106" y="265" type="line"/>
      <point x="1605" y="265" type="line"/>
      <point x="1605" y="0" type="line"/>
    </contour>
    <contour>
      <point x="553" y="-16" type="line"/>
      <point x="1524" y="1523" type="line"/>
      <point x="1459" y="1565" type="line"/>
      <point x="489" y="26" type="line"/>
    </contour>
    <contour>
      <point x="1167" y="320" type="line"/>
      <point x="1605" y="953" type="line"/>
      <point x="1605" y="320" type="line"/>
    </contour>
  </outline>
</glyph>
<glyph name="multiply" format="1">
  <advance width="632"/>
  <unicode hex="00D7"/>
  <outline>
    <contour>
      <point x="-14" y="136" type="line"/>
      <point x="295" y="453" type="line"/>
      <point x="605" y="136" type="line"/>
      <point x="661" y="182" type="line"/>
      <point x="344" y="507" type="line"/>
      <point x="661" y="832" type="line"/>
      <point x="605" y="879" type="line"/>
      <point x="295" y="561" type="line"/>
      <point x="-14" y="879" type="line"/>
      <point x="-70" y="832" type="line"/>
      <point x="247" y="507" type="line"/>
      <point x="-70" y="182" type="line"/>
    </contour>
  </outline>
</glyph>
<glyph name="Thorn" format="1">
  <advance width="1206"/>
  <unicode hex="00DE"/>
  <outline>
    <contour>
      <point x="150" y="0" type="line"/>
      <point x="241" y="0" type="line"/>
      <point x="241" y="421" type="line"/>
      <point x="623" y="421" type="line" smooth="yes"/>
      <point x="911" y="421"/>
      <point x="1145" y="479"/>
      <point x="1145" y="820" type="curve" smooth="yes"/>
      <point x="1145" y="1177"/>
      <point x="853" y="1197"/>
      <point x="634" y="1197" type="curve" smooth="yes"/>
      <point x="241" y="1197" type="line"/>
      <point x="241" y="1515" type="line"/>
      <point x="150" y="1515" type="line"/>
    </contour>
    <contour>
      <point x="241" y="501" type="line"/>
      <point x="241" y="1118" type="line"/>
      <point x="636" y="1118" type="line" smooth="yes"/>
      <point x="871" y="1118"/>
      <point x="1049" y="1084"/>
      <point x="1049" y="821" type="curve" smooth="yes"/>
      <point x="1049" y="535"/>
      <point x="887" y="501"/>
      <point x="623" y="501" type="curve" smooth="yes"/>
    </contour>
  </outline>
</glyph>
<glyph name="germandbls" format="1">
  <advance width="1135"/>
  <unicode hex="00DF"/>
  <outline>
    <contour>
      <point x="424" y="-65" type="line"/>
      <point x="738" y="-65"/>
      <point x="1051" y="-50"/>
      <point x="1051" y="403" type="curve" smooth="yes"/>
      <point x="1051" y="687"/>
      <point x="832" y="828"/>
      <point x="622" y="828" type="curve"/>
      <point x="756" y="847"/>
      <point x="892" y="942"/>
      <point x="892" y="1156" type="curve" smooth="yes"/>
      <point x="892" y="1481"/>
      <point x="689" y="1532"/>
      <point x="512" y="1532" type="curve" smooth="yes"/>
      <point x="298" y="1532"/>
      <point x="136" y="1463"/>
      <point x="137" y="1081" type="curve" smooth="yes"/>
      <point x="139" y="0" type="line"/>
      <point x="227" y="0" type="line"/>
      <point x="226" y="1081" type="line" smooth="yes"/>
      <point x="226" y="1394"/>
      <point x="332" y="1451"/>
      <point x="520" y="1451" type="curve" smooth="yes"/>
      <point x="756" y="1451"/>
      <point x="804" y="1322"/>
      <point x="804" y="1167" type="curve" smooth="yes"/>
      <point x="804" y="924"/>
      <point x="668" y="859"/>
      <point x="507" y="859" type="curve" smooth="yes"/>
      <point x="365" y="859" type="line"/>
      <point x="365" y="791"/>
      <point x="371" y="794"/>
      <point x="374" y="794" type="curve" smooth="yes"/>
      <point x="525" y="794"/>
      <point x="971" y="790"/>
      <point x="971" y="403" type="curve" smooth="yes"/>
      <point x="971" y="7"/>
      <point x="714" y="0"/>
      <point x="425" y="0" type="curve"/>
    </contour>
  </outline>
</glyph>
<glyph name="ae" format="1">
  <advance width="1781"/>
  <unicode hex="00E6"/>
  <outline>
    <contour>
      <point x="907" y="1172" type="move" name="top"/>
    </contour>
    <contour>
      <point x="422" y="-18" type="curve" smooth="yes"/>
      <point x="647" y="-18"/>
      <point x="833" y="110"/>
      <point x="866" y="276" type="curve"/>
      <point x="899" y="108"/>
      <point x="1085" y="-18"/>
      <point x="1316" y="-18" type="curve" smooth="yes"/>
      <point x="1462" y="-18"/>
      <point x="1623" y="49"/>
      <point x="1699" y="120" type="curve"/>
      <point x="1663" y="186" type="line"/>
      <point x="1572" y="110"/>
      <point x="1445" y="62"/>
      <point x="1316" y="62" type="curve" smooth="yes"/>
      <point x="976" y="62"/>
      <point x="908" y="297"/>
      <point x="908" y="602" type="curve"/>
      <point x="1724" y="602" type="line"/>
      <point x="1724" y="602"/>
      <point x="1729" y="636"/>
      <point x="1729" y="681" type="curve" smooth="yes"/>
      <point x="1729" y="949"/>
      <point x="1619" y="1190"/>
      <point x="1309" y="1190" type="curve" smooth="yes"/>
      <point x="1097" y="1190"/>
      <point x="943" y="1107"/>
      <point x="869" y="929" type="curve"/>
      <point x="824" y="1158"/>
      <point x="661" y="1190"/>
      <point x="479" y="1190" type="curve" smooth="yes"/>
      <point x="379" y="1190"/>
      <point x="216" y="1155"/>
      <point x="78" y="1080" type="curve"/>
      <point x="109" y="1005" type="line"/>
      <point x="206" y="1056"/>
      <point x="366" y="1110"/>
      <point x="479" y="1110" type="curve" smooth="yes"/>
      <point x="764" y="1110"/>
      <point x="802" y="974"/>
      <point x="802" y="723" type="curve" smooth="yes"/>
      <point x="802" y="649" type="line"/>
      <point x="700" y="672"/>
      <point x="586" y="688"/>
      <point x="477" y="688" type="curve" smooth="yes"/>
      <point x="236" y="688"/>
      <point x="20" y="608"/>
      <point x="20" y="344" type="curve" smooth="yes"/>
      <point x="20" y="113"/>
      <point x="150" y="-18"/>
    </contour>
    <contour>
      <point x="422" y="62" type="curve" smooth="yes"/>
      <point x="265" y="62"/>
      <point x="116" y="125"/>
      <point x="116" y="336" type="curve" smooth="yes"/>
      <point x="116" y="587"/>
      <point x="330" y="613"/>
      <point x="500" y="613" type="curve" smooth="yes"/>
      <point x="604" y="613"/>
      <point x="704" y="602"/>
      <point x="802" y="585" type="curve"/>
      <point x="802" y="372" type="line"/>
      <point x="783" y="152"/>
      <point x="627" y="62"/>
    </contour>
    <contour>
      <point x="908" y="685" type="line"/>
      <point x="908" y="948"/>
      <point x="1043" y="1110"/>
      <point x="1309" y="1110" type="curve" smooth="yes"/>
      <point x="1551" y="1110"/>
      <point x="1641" y="935"/>
      <point x="1641" y="685" type="curve"/>
    </contour>
  </outline>
</glyph>
<glyph name="eth" format="1">
  <advance width="991"/>
  <unicode hex="00F0"/>
  <outline>
    <contour>
      <point x="465" y="-17" type="curve" smooth="yes"/>
      <point x="743" y="-17"/>
      <point x="916" y="221"/>
      <point x="916" y="597" type="curve" smooth="yes"/>
      <point x="916" y="909"/>
      <point x="850" y="1105"/>
      <point x="686" y="1335" type="curve"/>
      <point x="954" y="1411" type="line"/>
      <point x="914" y="1465" type="line"/>
      <point x="648" y="1390" type="line"/>
      <point x="543" y="1521"/>
      <point x="461" y="1572"/>
      <point x="367" y="1625" type="curve"/>
      <point x="322" y="1567" type="line"/>
      <point x="418" y="1515"/>
      <point x="504" y="1445"/>
      <point x="569" y="1366" type="curve"/>
      <point x="347" y="1304" type="line"/>
      <point x="386" y="1250" type="line"/>
      <point x="606" y="1312" type="line"/>
      <point x="696" y="1216"/>
      <point x="800" y="1019"/>
      <point x="818" y="868" type="curve"/>
      <point x="737" y="1014"/>
      <point x="654" y="1115"/>
      <point x="458" y="1115" type="curve" smooth="yes"/>
      <point x="182" y="1115"/>
      <point x="9" y="895"/>
      <point x="9" y="544" type="curve" smooth="yes"/>
      <point x="9" y="199"/>
      <point x="185" y="-17"/>
    </contour>
    <contour>
      <point x="465" y="51" type="curve" smooth="yes"/>
      <point x="238" y="51"/>
      <point x="95" y="241"/>
      <point x="95" y="544" type="curve" smooth="yes"/>
      <point x="95" y="852"/>
      <point x="235" y="1045"/>
      <point x="458" y="1045" type="curve" smooth="yes"/>
      <point x="685" y="1045"/>
      <point x="827" y="871"/>
      <point x="827" y="597" type="curve" smooth="yes"/>
      <point x="827" y="260"/>
      <point x="688" y="51"/>
    </contour>
  </outline>
</glyph>
<glyph name="divide" format="1">
  <advance width="746"/>
  <unicode hex="00F7"/>
  <outline>
    <contour>
      <point x="364" y="350" type="curve" smooth="yes"/>
      <point x="399" y="350"/>
      <point x="429" y="383"/>
      <point x="429" y="423" type="curve" smooth="yes"/>
      <point x="429" y="463"/>
      <point x="399" y="496"/>
      <point x="364" y="496" type="curve" smooth="yes"/>
      <point x="326" y="496"/>
      <point x="294" y="463"/>
      <point x="294" y="423" type="curve" smooth="yes"/>
      <point x="294" y="383"/>
      <point x="326" y="350"/>
    </contour>
    <contour>
      <point x="74" y="662" type="line"/>
      <point x="684" y="662" type="line"/>
      <point x="684" y="723" type="line"/>
      <point x="74" y="723" type="line"/>
    </contour>
    <contour>
      <point x="369" y="895" type="curve" smooth="yes"/>
      <point x="404" y="895"/>
      <point x="434" y="928"/>
      <point x="434" y="968" type="curve" smooth="yes"/>
      <point x="434" y="1007"/>
      <point x="404" y="1040"/>
      <point x="369" y="1040" type="curve" smooth="yes"/>
      <point x="330" y="1040"/>
      <point x="298" y="1007"/>
      <point x="298" y="968" type="curve" smooth="yes"/>
      <point x="298" y="928"/>
      <point x="330" y="895"/>
    </contour>
  </outline>
</glyph>
<glyph name="oslash" format="1">
  <advance width="1018"/>
  <unicode hex="00F8"/>
  <outline>
    <contour>
      <point x="496" y="1103" type="move" name="top"/>
    </contour>
    <contour>
      <point x="272" y="-199" type="line"/>
      <point x="344" y="0" type="line"/>
      <point x="394" y="-15"/>
      <point x="444" y="-21"/>
      <point x="492" y="-21" type="curve" smooth="yes"/>
      <point x="827" y="-21"/>
      <point x="970" y="256"/>
      <point x="970" y="545" type="curve" smooth="yes"/>
      <point x="970" y="727"/>
      <point x="913" y="954"/>
      <point x="710" y="1067" type="curve"/>
      <point x="776" y="1259" type="line"/>
      <point x="712" y="1284" type="line"/>
      <point x="646" y="1094" type="line"/>
      <point x="596" y="1110"/>
      <point x="542" y="1117"/>
      <point x="492" y="1117" type="curve" smooth="yes"/>
      <point x="157" y="1117"/>
      <point x="16" y="827"/>
      <point x="16" y="545" type="curve" smooth="yes"/>
      <point x="16" y="366"/>
      <point x="69" y="136"/>
      <point x="273" y="28" type="curve"/>
      <point x="199" y="-174" type="line"/>
    </contour>
    <contour>
      <point x="299" y="96" type="line"/>
      <point x="139" y="187"/>
      <point x="102" y="382"/>
      <point x="102" y="544" type="curve" smooth="yes"/>
      <point x="102" y="745"/>
      <point x="178" y="1035"/>
      <point x="492" y="1035" type="curve" smooth="yes"/>
      <point x="532" y="1035"/>
      <point x="576" y="1031"/>
      <point x="617" y="1017" type="curve"/>
    </contour>
    <contour>
      <point x="492" y="59" type="curve" smooth="yes"/>
      <point x="453" y="59"/>
      <point x="410" y="62"/>
      <point x="370" y="74" type="curve"/>
      <point x="684" y="997" type="line"/>
      <point x="849" y="897"/>
      <point x="881" y="687"/>
      <point x="881" y="544" type="curve" smooth="yes"/>
      <point x="881" y="341"/>
      <point x="807" y="59"/>
    </contour>
  </outline>
</glyph>
<glyph name="thorn" format="1">
  <advance width="1224"/>
  <unicode hex="00FE"/>
  <outline>
    <contour>
      <point x="631" y="1172" type="move" name="top"/>
    </contour>
    <contour>
      <point x="149" y="-528" type="line"/>
      <point x="245" y="-506" type="line"/>
      <point x="245" y="155" type="line"/>
      <point x="329" y="42"/>
      <point x="455" y="-18"/>
      <point x="609" y="-18" type="curve" smooth="yes"/>
      <point x="969" y="-18"/>
      <point x="1106" y="295"/>
      <point x="1106" y="587" type="curve" smooth="yes"/>
      <point x="1106" y="895"/>
      <point x="964" y="1190"/>
      <point x="621" y="1190" type="curve" smooth="yes"/>
      <point x="472" y="1190"/>
      <point x="332" y="1128"/>
      <point x="244" y="1010" type="curve"/>
      <point x="244" y="1620" type="line"/>
      <point x="149" y="1620" type="line"/>
    </contour>
    <contour>
      <point x="602" y="62" type="curve" smooth="yes"/>
      <point x="455" y="62"/>
      <point x="328" y="126"/>
      <point x="245" y="251" type="curve"/>
      <point x="245" y="911" type="line"/>
      <point x="341" y="1052"/>
      <point x="470" y="1110"/>
      <point x="623" y="1110" type="curve" smooth="yes"/>
      <point x="944" y="1110"/>
      <point x="1008" y="796"/>
      <point x="1008" y="579" type="curve" smooth="yes"/>
      <point x="1008" y="345"/>
      <point x="921" y="62"/>
    </contour>
  </outline>
</glyph>
<glyph name="Hbar" format="1">
  <advance width="1398"/>
  <unicode hex="0126"/>
  <outline>
    <contour>
      <point x="31" y="1224" type="line"/>
      <point x="1360" y="1224" type="line"/>
      <point x="1360" y="1279" type="line"/>
      <point x="31" y="1279" type="line"/>
    </contour>
    <component base="H"/>
  </outline>
</glyph>
<glyph name="hbar" format="1">
  <advance width="1141"/>
  <unicode hex="0127"/>
  <outline>
    <contour>
      <point x="655" y="1096" type="move" name="top"/>
    </contour>
    <contour>
      <point x="137" y="0" type="line"/>
      <point x="227" y="0" type="line"/>
      <point x="227" y="841" type="line"/>
      <point x="350" y="963"/>
      <point x="495" y="1038"/>
      <point x="640" y="1038" type="curve" smooth="yes"/>
      <point x="886" y="1038"/>
      <point x="927" y="874"/>
      <point x="927" y="672" type="curve" smooth="yes"/>
      <point x="927" y="0" type="line"/>
      <point x="1016" y="0" type="line"/>
      <point x="1016" y="681" type="line" smooth="yes"/>
      <point x="1016" y="897"/>
      <point x="964" y="1113"/>
      <point x="655" y="1113" type="curve" smooth="yes"/>
      <point x="490" y="1113"/>
      <point x="353" y="1046"/>
      <point x="227" y="924" type="curve"/>
      <point x="227" y="1299" type="line"/>
      <point x="583" y="1299" type="line"/>
      <point x="583" y="1362" type="line"/>
      <point x="227" y="1362" type="line"/>
      <point x="227" y="1500" type="line"/>
      <point x="137" y="1477" type="line"/>
      <point x="137" y="1362" type="line"/>
      <point x="1" y="1362" type="line"/>
      <point x="1" y="1299" type="line"/>
      <point x="137" y="1299" type="line"/>
    </contour>
  </outline>
</glyph>
<glyph name="dotlessi" format="1">
  <advance width="259"/>
  <unicode hex="0131"/>
  <outline>
    <contour>
      <point x="136" y="1172" type="move" name="top"/>
    </contour>
    <contour>
      <point x="138" y="0" type="move" name="ogonek"/>
    </contour>
    <contour>
      <point x="86" y="0" type="line"/>
      <point x="178" y="0" type="line"/>
      <point x="178" y="1174" type="line"/>
      <point x="86" y="1174" type="line"/>
    </contour>
  </outline>
</glyph>
<glyph name="kgreenlandic" format="1">
  <advance width="1085"/>
  <unicode hex="0138"/>
  <outline>
    <contour>
      <point x="111" y="0" type="line"/>
      <point x="208" y="0" type="line"/>
      <point x="208" y="461" type="line"/>
      <point x="328" y="555" type="line"/>
      <point x="850" y="0" type="line"/>
      <point x="965" y="0" type="line"/>
      <point x="380" y="608" type="line"/>
      <point x="917" y="1096" type="line"/>
      <point x="797" y="1096" type="line"/>
      <point x="208" y="552" type="line"/>
      <point x="208" y="1096" type="line"/>
      <point x="111" y="1096" type="line"/>
    </contour>
  </outline>
</glyph>
<glyph name="Lslash" format="1">
  <advance width="1134"/>
  <unicode hex="0141"/>
  <outline>
    <contour>
      <point x="-47" y="527" type="line"/>
      <point x="582" y="956" type="line"/>
      <point x="582" y="1052" type="line"/>
      <point x="-47" y="623" type="line"/>
    </contour>
    <component base="L"/>
  </outline>
</glyph>
<glyph name="lslash" format="1">
  <advance width="454"/>
  <unicode hex="0142"/>
  <outline>
    <contour>
      <point x="5" y="612" type="line"/>
      <point x="456" y="912" type="line"/>
      <point x="456" y="992" type="line"/>
      <point x="5" y="692" type="line"/>
    </contour>
    <component base="l"/>
  </outline>
</glyph>
<glyph name="Eng" format="1">
  <advance width="1531"/>
  <unicode hex="014A"/>
  <outline>
    <contour>
      <point x="930" y="-491" type="line"/>
      <point x="1295" y="-442"/>
      <point x="1371" y="-314"/>
      <point x="1371" y="101" type="curve" smooth="yes"/>
      <point x="1371" y="272" type="line"/>
      <point x="1279" y="272" type="line"/>
      <point x="1279" y="101" type="line" smooth="yes"/>
      <point x="1279" y="-275"/>
      <point x="1227" y="-371"/>
      <point x="905" y="-412" type="curve"/>
    </contour>
    <component base="N"/>
  </outline>
</glyph>
<glyph name="eng" format="1">
  <advance width="1145"/>
  <unicode hex="014B"/>
  <outline>
    <contour>
      <point x="260" y="919" type="curve"/>
      <point x="244" y="1097" type="line"/>
      <point x="178" y="1097" type="line"/>
      <point x="178" y="0" type="line"/>
      <point x="267" y="0" type="line"/>
      <point x="267" y="843" type="line"/>
      <point x="389" y="966"/>
      <point x="537" y="1042"/>
      <point x="682" y="1042" type="curve" smooth="yes"/>
      <point x="928" y="1042"/>
      <point x="968" y="878"/>
      <point x="968" y="676" type="curve" smooth="yes"/>
      <point x="968" y="76" type="line" smooth="yes"/>
      <point x="968" y="-210"/>
      <point x="941" y="-263"/>
      <point x="687" y="-301" type="curve"/>
      <point x="710" y="-375" type="line"/>
      <point x="1005" y="-329"/>
      <point x="1057" y="-247"/>
      <point x="1057" y="76" type="curve" smooth="yes"/>
      <point x="1057" y="685" type="line" smooth="yes"/>
      <point x="1057" y="901"/>
      <point x="1006" y="1117"/>
      <point x="697" y="1117" type="curve" smooth="yes"/>
      <point x="528" y="1117"/>
      <point x="389" y="1047"/>
    </contour>
  </outline>
</glyph>
<glyph name="OE" format="1">
  <advance width="2219"/>
  <unicode hex="0152"/>
  <outline>
    <contour>
      <point x="1731" y="1620" type="move" name="top"/>
    </contour>
    <contour>
      <point x="1896" y="0" type="move" name="ogonek"/>
    </contour>
    <contour>
      <point x="1707" y="0" type="move" name="bot"/>
    </contour>
    <contour>
      <point x="727" y="-18" type="curve" smooth="yes"/>
      <point x="1009" y="-18"/>
      <point x="1167" y="130"/>
      <point x="1250" y="363" type="curve"/>
      <point x="1250" y="0" type="line"/>
      <point x="2155" y="0" type="line"/>
      <point x="2155" y="84" type="line"/>
      <point x="1348" y="84" type="line"/>
      <point x="1348" y="809" type="line"/>
      <point x="2042" y="809" type="line"/>
      <point x="2042" y="893" type="line"/>
      <point x="1348" y="893" type="line"/>
      <point x="1348" y="1537" type="line"/>
      <point x="2169" y="1537" type="line"/>
      <point x="2169" y="1621" type="line"/>
      <point x="1250" y="1620" type="line"/>
      <point x="1250" y="1258" type="line"/>
      <point x="1177" y="1500"/>
      <point x="1009" y="1638"/>
      <point x="727" y="1638" type="curve" smooth="yes"/>
      <point x="244" y="1638"/>
      <point x="104" y="1208"/>
      <point x="104" y="810" type="curve" smooth="yes"/>
      <point x="104" y="414"/>
      <point x="244" y="-18"/>
    </contour>
    <contour>
      <point x="727" y="66" type="curve" smooth="yes"/>
      <point x="299" y="66"/>
      <point x="206" y="475"/>
      <point x="206" y="810" type="curve" smooth="yes"/>
      <point x="206" y="1147"/>
      <point x="299" y="1554"/>
      <point x="727" y="1554" type="curve" smooth="yes"/>
      <point x="1154" y="1554"/>
      <point x="1250" y="1177"/>
      <point x="1250" y="810" type="curve" smooth="yes"/>
      <point x="1250" y="435"/>
      <point x="1154" y="66"/>
    </contour>
  </outline>
</glyph>
<glyph name="oe" format="1">
  <advance width="2114"/>
  <unicode hex="0153"/>
  <outline>
    <contour>
      <point x="632" y="-18" type="curve" smooth="yes"/>
      <point x="877" y="-18"/>
      <point x="1039" y="117"/>
      <point x="1099" y="335" type="curve"/>
      <point x="1166" y="110"/>
      <point x="1339" y="-18"/>
      <point x="1590" y="-18" type="curve" smooth="yes"/>
      <point x="1705" y="-18"/>
      <point x="1877" y="31"/>
      <point x="1974" y="120" type="curve"/>
      <point x="1938" y="186" type="line"/>
      <point x="1852" y="114"/>
      <point x="1725" y="62"/>
      <point x="1594" y="62" type="curve" smooth="yes"/>
      <point x="1274" y="62"/>
      <point x="1146" y="301"/>
      <point x="1146" y="596" type="curve"/>
      <point x="1996" y="596" type="line"/>
      <point x="1996" y="596"/>
      <point x="2008" y="636"/>
      <point x="2008" y="694" type="curve" smooth="yes"/>
      <point x="2008" y="955"/>
      <point x="1872" y="1190"/>
      <point x="1574" y="1190" type="curve" smooth="yes"/>
      <point x="1330" y="1190"/>
      <point x="1160" y="1059"/>
      <point x="1096" y="839" type="curve"/>
      <point x="1034" y="1053"/>
      <point x="874" y="1190"/>
      <point x="632" y="1190" type="curve" smooth="yes"/>
      <point x="275" y="1190"/>
      <point x="118" y="892"/>
      <point x="118" y="582" type="curve" smooth="yes"/>
      <point x="118" y="266"/>
      <point x="277" y="-18"/>
    </contour>
    <contour>
      <point x="632" y="62" type="curve" smooth="yes"/>
      <point x="328" y="62"/>
      <point x="216" y="315"/>
      <point x="216" y="582" type="curve" smooth="yes"/>
      <point x="216" y="804"/>
      <point x="303" y="1110"/>
      <point x="632" y="1110" type="curve" smooth="yes"/>
      <point x="965" y="1110"/>
      <point x="1048" y="804"/>
      <point x="1048" y="582" type="curve" smooth="yes"/>
      <point x="1048" y="315"/>
      <point x="940" y="62"/>
    </contour>
    <contour>
      <point x="1151" y="670" type="line"/>
      <point x="1168" y="902"/>
      <point x="1283" y="1110"/>
      <point x="1577" y="1110" type="curve" smooth="yes"/>
      <point x="1822" y="1110"/>
      <point x="1915" y="920"/>
      <point x="1915" y="670" type="curve"/>
    </contour>
  </outline>
</glyph>
<glyph name="florin" format="1">
  <advance width="990"/>
  <unicode hex="0192"/>
  <outline>
    <contour>
      <point x="269" y="0" type="line"/>
      <point x="359" y="0" type="line"/>
      <point x="477" y="900" type="line"/>
      <point x="803" y="900" type="line"/>
      <point x="808" y="966" type="line"/>
      <point x="485" y="966" type="line"/>
      <point x="552" y="1477"/>
      <point x="606" y="1567"/>
      <point x="717" y="1567" type="curve" smooth="yes"/>
      <point x="765" y="1567"/>
      <point x="825" y="1550"/>
      <point x="899" y="1522" type="curve"/>
      <point x="920" y="1581" type="line"/>
      <point x="834" y="1616"/>
      <point x="760" y="1638"/>
      <point x="697" y="1638" type="curve" smooth="yes"/>
      <point x="559" y="1638"/>
      <point x="469" y="1533"/>
      <point x="395" y="966" type="curve"/>
      <point x="213" y="966" type="line"/>
      <point x="208" y="900" type="line"/>
      <point x="387" y="900" type="line"/>
    </contour>
  </outline>
</glyph>
<glyph name="uni0237" format="1">
  <advance width="539"/>
  <unicode hex="0237"/>
  <outline>
    <contour>
      <point x="383" y="1172" type="move" name="top"/>
    </contour>
    <contour>
      <point x="160" y="-386" type="line"/>
      <point x="396" y="-327"/>
      <point x="428" y="-58"/>
      <point x="428" y="128" type="curve" smooth="yes"/>
      <point x="428" y="1174" type="line"/>
      <point x="324" y="1174" type="line"/>
      <point x="324" y="151" type="line" smooth="yes"/>
      <point x="324" y="-44"/>
      <point x="344" y="-205"/>
      <point x="148" y="-336" type="curve"/>
    </contour>
  </outline>
</glyph>
<glyph name="caron" format="1">
  <advance width="687"/>
  <unicode hex="02C7"/>
  <outline>
    <contour>
      <point x="350" y="1172" type="move" name="_top"/>
    </contour>
    <contour>
      <point x="318" y="1349" type="line"/>
      <point x="369" y="1349" type="line"/>
      <point x="620" y="1654" type="line"/>
      <point x="545" y="1654" type="line"/>
      <point x="344" y="1423" type="line"/>
      <point x="143" y="1654" type="line"/>
      <point x="68" y="1654" type="line"/>
    </contour>
  </outline>
</glyph>
<glyph name="uni02C9" format="1">
  <advance width="869"/>
  <unicode hex="02C9"/>
  <outline>
    <contour>
      <point x="426" y="1328" type="move" name="_mid"/>
    </contour>
    <contour>
      <point x="434" y="1096" type="move" name="_top"/>
    </contour>
    <contour>
      <point x="170" y="1316" type="line"/>
      <point x="677" y="1316" type="line"/>
      <point x="677" y="1383" type="line"/>
      <point x="170" y="1383" type="line"/>
    </contour>
  </outline>
</glyph>
<glyph name="breve" format="1">
  <advance width="486"/>
  <unicode hex="02D8"/>
  <outline>
    <contour>
      <point x="245" y="1096" type="move" name="_top"/>
    </contour>
    <contour>
      <point x="245" y="1242" type="curve" smooth="yes"/>
      <point x="363" y="1242"/>
      <point x="437" y="1319"/>
      <point x="437" y="1441" type="curve"/>
      <point x="368" y="1441" type="line"/>
      <point x="369" y="1361"/>
      <point x="321" y="1310"/>
      <point x="242" y="1310" type="curve" smooth="yes"/>
      <point x="159" y="1310"/>
      <point x="107" y="1361"/>
      <point x="108" y="1441" type="curve"/>
      <point x="39" y="1441" type="line"/>
      <point x="39" y="1319"/>
      <point x="119" y="1242"/>
    </contour>
  </outline>
</glyph>
<glyph name="dotaccent" format="1">
  <advance width="367"/>
  <unicode hex="02D9"/>
  <outline>
    <contour>
      <point x="194" y="1096" type="move" name="_top"/>
    </contour>
    <contour>
      <point x="184" y="1281" type="curve" smooth="yes"/>
      <point x="216" y="1281"/>
      <point x="236" y="1305"/>
      <point x="236" y="1343" type="curve" smooth="yes"/>
      <point x="236" y="1381"/>
      <point x="216" y="1404"/>
      <point x="184" y="1404" type="curve" smooth="yes"/>
      <point x="148" y="1404"/>
      <point x="126" y="1381"/>
      <point x="126" y="1343" type="curve" smooth="yes"/>
      <point x="126" y="1305"/>
      <point x="148" y="1281"/>
    </contour>
  </outline>
</glyph>
<glyph name="ring" format="1">
  <advance width="386"/>
  <unicode hex="02DA"/>
  <outline>
    <contour>
      <point x="194" y="1527" type="move" name="top"/>
    </contour>
    <contour>
      <point x="194" y="1172" type="move" name="_top"/>
    </contour>
    <contour>
      <point x="193" y="1363" type="curve" smooth="yes"/>
      <point x="118" y="1363"/>
      <point x="70" y="1412"/>
      <point x="70" y="1489" type="curve" smooth="yes"/>
      <point x="70" y="1566"/>
      <point x="118" y="1615"/>
      <point x="193" y="1615" type="curve" smooth="yes"/>
      <point x="268" y="1615"/>
      <point x="316" y="1566"/>
      <point x="316" y="1489" type="curve" smooth="yes"/>
      <point x="316" y="1412"/>
      <point x="268" y="1363"/>
    </contour>
    <contour>
      <point x="193" y="1312" type="curve" smooth="yes"/>
      <point x="304" y="1312"/>
      <point x="374" y="1380"/>
      <point x="374" y="1489" type="curve" smooth="yes"/>
      <point x="374" y="1598"/>
      <point x="304" y="1666"/>
      <point x="193" y="1666" type="curve" smooth="yes"/>
      <point x="82" y="1666"/>
      <point x="12" y="1598"/>
      <point x="12" y="1489" type="curve" smooth="yes"/>
      <point x="12" y="1380"/>
      <point x="82" y="1312"/>
    </contour>
  </outline>
</glyph>
<glyph name="ogonek" format="1">
  <advance width="439"/>
  <unicode hex="02DB"/>
  <outline>
    <contour>
      <point x="315" y="0" type="move" name="_ogonek"/>
    </contour>
    <contour>
      <point x="324" y="-400" type="curve" smooth="yes"/>
      <point x="355" y="-400"/>
      <point x="385" y="-398"/>
      <point x="415" y="-393" type="curve"/>
      <point x="415" y="-328" type="line"/>
      <point x="385" y="-332"/>
      <point x="357" y="-334"/>
      <point x="331" y="-334" type="curve" smooth="yes"/>
      <point x="259" y="-334"/>
      <point x="209" y="-314"/>
      <point x="209" y="-234" type="curve" smooth="yes"/>
      <point x="209" y="-140"/>
      <point x="275" y="-74"/>
      <point x="329" y="0" type="curve"/>
      <point x="284" y="0" type="line"/>
      <point x="192" y="-86"/>
      <point x="129" y="-178"/>
      <point x="129" y="-254" type="curve" smooth="yes"/>
      <point x="129" y="-368"/>
      <point x="223" y="-400"/>
    </contour>
  </outline>
</glyph>
<glyph name="tilde" format="1">
  <advance width="782"/>
  <unicode hex="02DC"/>
  <outline>
    <contour>
      <point x="388" y="1096" type="move" name="_top"/>
    </contour>
    <contour>
      <point x="93" y="1322" type="curve"/>
      <point x="139" y="1322" type="line"/>
      <point x="139" y="1389"/>
      <point x="166" y="1413"/>
      <point x="212" y="1413" type="curve" smooth="yes"/>
      <point x="272" y="1413"/>
      <point x="363" y="1373"/>
      <point x="468" y="1340" type="curve" smooth="yes"/>
      <point x="588" y="1302"/>
      <point x="650" y="1341"/>
      <point x="650" y="1489" type="curve"/>
      <point x="603" y="1489" type="line"/>
      <point x="603" y="1422"/>
      <point x="576" y="1398"/>
      <point x="530" y="1398" type="curve" smooth="yes"/>
      <point x="470" y="1398"/>
      <point x="379" y="1438"/>
      <point x="274" y="1471" type="curve" smooth="yes"/>
      <point x="154" y="1509"/>
      <point x="93" y="1470"/>
    </contour>
  </outline>
</glyph>
<glyph name="hungarumlaut" format="1">
  <advance width="709"/>
  <unicode hex="02DD"/>
  <outline>
    <contour>
      <point x="166" y="1172" type="move" name="_top"/>
    </contour>
    <contour>
      <point x="27" y="1305" type="line"/>
      <point x="359" y="1617" type="line"/>
      <point x="297" y="1676" type="line"/>
      <point x="-3" y="1332" type="line"/>
    </contour>
    <contour>
      <point x="367" y="1305" type="line"/>
      <point x="699" y="1617" type="line"/>
      <point x="637" y="1676" type="line"/>
      <point x="337" y="1332" type="line"/>
    </contour>
  </outline>
</glyph>
<glyph name="uni0307" format="1">
  <advance width="393"/>
  <unicode hex="0307"/>
  <outline>
    <contour>
      <point x="198" y="1172" type="move" name="_top"/>
    </contour>
    <contour>
      <point x="197" y="1470" type="curve" smooth="yes"/>
      <point x="234" y="1470"/>
      <point x="258" y="1498"/>
      <point x="258" y="1543" type="curve" smooth="yes"/>
      <point x="258" y="1588"/>
      <point x="234" y="1616"/>
      <point x="197" y="1616" type="curve" smooth="yes"/>
      <point x="155" y="1616"/>
      <point x="129" y="1588"/>
      <point x="129" y="1543" type="curve" smooth="yes"/>
      <point x="129" y="1498"/>
      <point x="155" y="1470"/>
    </contour>
  </outline>
</glyph>
<glyph name="uni030F" format="1">
  <advance width="748"/>
  <unicode hex="030F"/>
  <outline>
    <contour>
      <point x="533" y="1096" type="move" name="_top"/>
    </contour>
    <contour>
      <point x="345" y="1220" type="line"/>
      <point x="373" y="1245" type="line"/>
      <point x="93" y="1567" type="line"/>
      <point x="35" y="1512" type="line"/>
    </contour>
    <contour>
      <point x="663" y="1220" type="line"/>
      <point x="691" y="1245" type="line"/>
      <point x="410" y="1567" type="line"/>
      <point x="352" y="1512" type="line"/>
    </contour>
  </outline>
</glyph>
<glyph name="uni0311" format="1">
  <advance width="486"/>
  <unicode hex="0311"/>
  <outline>
    <contour>
      <point x="245" y="1096" type="move" name="_top"/>
    </contour>
    <contour>
      <point x="39" y="1253" type="curve"/>
      <point x="108" y="1253" type="line"/>
      <point x="107" y="1343"/>
      <point x="148" y="1384"/>
      <point x="242" y="1384" type="curve" smooth="yes"/>
      <point x="329" y="1384"/>
      <point x="369" y="1343"/>
      <point x="368" y="1253" type="curve"/>
      <point x="437" y="1253" type="line"/>
      <point x="437" y="1393"/>
      <point x="377" y="1452"/>
      <point x="245" y="1452" type="curve" smooth="yes"/>
      <point x="104" y="1452"/>
      <point x="39" y="1393"/>
    </contour>
  </outline>
</glyph>
<glyph name="uni0326" format="1">
  <advance width="387"/>
  <unicode hex="0326"/>
  <outline>
    <contour>
      <point x="193" y="0" type="move" name="_bot"/>
    </contour>
    <contour>
      <point x="109" y="-583" type="line"/>
      <point x="188" y="-558"/>
      <point x="231" y="-489"/>
      <point x="231" y="-369" type="curve" smooth="yes"/>
      <point x="231" y="-161" type="line"/>
      <point x="161" y="-161" type="line"/>
      <point x="161" y="-374" type="line"/>
      <point x="194" y="-374" type="line"/>
      <point x="194" y="-473"/>
      <point x="167" y="-536"/>
      <point x="99" y="-558" type="curve"/>
    </contour>
  </outline>
</glyph>
<glyph name="uni0358" format="1">
  <advance width="367"/>
  <unicode hex="0358"/>
  <outline>
    <contour>
      <point x="185" y="1096" type="move" name="_top"/>
    </contour>
    <contour>
      <point x="184" y="1374" type="curve" smooth="yes"/>
      <point x="219" y="1374"/>
      <point x="241" y="1401"/>
      <point x="241" y="1443" type="curve" smooth="yes"/>
      <point x="241" y="1485"/>
      <point x="219" y="1511"/>
      <point x="184" y="1511" type="curve" smooth="yes"/>
      <point x="145" y="1511"/>
      <point x="121" y="1485"/>
      <point x="121" y="1443" type="curve" smooth="yes"/>
      <point x="121" y="1401"/>
      <point x="145" y="1374"/>
    </contour>
  </outline>
</glyph>
<glyph name="uni03BC" format="1">
  <advance width="1160"/>
  <unicode hex="03BC"/>
  <outline>
    <contour>
      <point x="238" y="-270" type="line"/>
      <point x="237" y="91" type="line"/>
      <point x="297" y="24"/>
      <point x="391" y="-18"/>
      <point x="535" y="-18" type="curve" smooth="yes"/>
      <point x="717" y="-18"/>
      <point x="880" y="58"/>
      <point x="988" y="204" type="curve"/>
      <point x="1006" y="0" type="line"/>
      <point x="1077" y="0" type="line"/>
      <point x="1077" y="1172" type="line"/>
      <point x="979" y="1172" type="line"/>
      <point x="979" y="290" type="line"/>
      <point x="859" y="130"/>
      <point x="722" y="62"/>
      <point x="535" y="62" type="curve" smooth="yes"/>
      <point x="291" y="62"/>
      <point x="242" y="214"/>
      <point x="237" y="410" type="curve" smooth="yes"/>
      <point x="236" y="1172" type="line"/>
      <point x="138" y="1172" type="line"/>
      <point x="138" y="-288" type="line"/>
    </contour>
  </outline>
</glyph>
<glyph name="pi" format="1">
  <advance width="1756"/>
  <unicode hex="03C0"/>
  <outline>
    <contour>
      <point x="1289" y="-7" type="curve" smooth="yes"/>
      <point x="1330" y="-7"/>
      <point x="1387" y="-1"/>
      <point x="1441" y="16" type="curve"/>
      <point x="1441" y="69" type="line"/>
      <point x="1399" y="55"/>
      <point x="1354" y="49"/>
      <point x="1322" y="49" type="curve" smooth="yes"/>
      <point x="1172" y="49"/>
      <point x="1148" y="143"/>
      <point x="1148" y="382" type="curve" smooth="yes"/>
      <point x="1148" y="586"/>
      <point x="1172" y="766"/>
      <point x="1213" y="1092" type="curve"/>
      <point x="1490" y="1092" type="line"/>
      <point x="1490" y="1172" type="line"/>
      <point x="566" y="1172" type="line"/>
      <point x="337" y="1172"/>
      <point x="266" y="1108"/>
      <point x="258" y="926" type="curve"/>
      <point x="309" y="926" type="line"/>
      <point x="330" y="1028"/>
      <point x="385" y="1092"/>
      <point x="479" y="1092" type="curve"/>
      <point x="658" y="1092" type="line"/>
      <point x="524" y="369" type="line" smooth="yes"/>
      <point x="474" y="101"/>
      <point x="413" y="60"/>
      <point x="220" y="51" type="curve"/>
      <point x="220" y="0" type="line"/>
      <point x="516" y="5"/>
      <point x="576" y="127"/>
      <point x="609" y="357" type="curve" smooth="yes"/>
      <point x="715" y="1092" type="line"/>
      <point x="1141" y="1092" type="line"/>
      <point x="1108" y="790"/>
      <point x="1068" y="526"/>
      <point x="1068" y="344" type="curve" smooth="yes"/>
      <point x="1068" y="112"/>
      <point x="1127" y="-7"/>
    </contour>
  </outline>
</glyph>
<glyph name="endash" format="1">
  <advance width="515"/>
  <unicode hex="2013"/>
  <outline>
    <contour>
      <point x="98" y="510" type="line"/>
      <point x="424" y="510" type="line"/>
      <point x="424" y="585" type="line"/>
      <point x="98" y="585" type="line"/>
    </contour>
  </outline>
</glyph>
<glyph name="emdash" format="1">
  <advance width="677"/>
  <unicode hex="2014"/>
  <outline>
    <contour>
      <point x="98" y="510" type="line"/>
      <point x="585" y="510" type="line"/>
      <point x="585" y="585" type="line"/>
      <point x="98" y="585" type="line"/>
    </contour>
  </outline>
</glyph>
<glyph name="quoteleft" format="1">
  <advance width="442"/>
  <unicode hex="2018"/>
  <outline>
    <contour>
      <point x="169" y="1201" type="line"/>
      <point x="281" y="1201" type="line"/>
      <point x="281" y="1389" type="line"/>
      <point x="215" y="1389" type="line"/>
      <point x="215" y="1533"/>
      <point x="223" y="1587"/>
      <point x="306" y="1620" type="curve"/>
      <point x="291" y="1653" type="line"/>
      <point x="157" y="1615"/>
      <point x="169" y="1498"/>
      <point x="169" y="1390" type="curve" smooth="yes"/>
    </contour>
  </outline>
</glyph>
<glyph name="quoteright" format="1">
  <advance width="478"/>
  <unicode hex="2019"/>
  <outline>
    <contour>
      <point x="181" y="1092" type="line"/>
      <point x="287" y="1123"/>
      <point x="295" y="1206"/>
      <point x="295" y="1292" type="curve" smooth="yes"/>
      <point x="295" y="1308"/>
      <point x="295" y="1323"/>
      <point x="295" y="1515" type="curve"/>
      <point x="191" y="1515" type="line"/>
      <point x="191" y="1339" type="line"/>
      <point x="252" y="1339" type="line"/>
      <point x="252" y="1204"/>
      <point x="245" y="1154"/>
      <point x="167" y="1123" type="curve"/>
    </contour>
  </outline>
</glyph>
<glyph name="quotesinglbase" format="1">
  <advance width="441"/>
  <unicode hex="201A"/>
  <outline>
    <contour>
      <point x="177" y="-234" type="line"/>
      <point x="311" y="-196"/>
      <point x="299" y="-79"/>
      <point x="299" y="29" type="curve" smooth="yes"/>
      <point x="299" y="218" type="line"/>
      <point x="187" y="218" type="line"/>
      <point x="187" y="30" type="line"/>
      <point x="253" y="30" type="line"/>
      <point x="253" y="-114"/>
      <point x="245" y="-168"/>
      <point x="162" y="-201" type="curve"/>
    </contour>
  </outline>
</glyph>
<glyph name="quotedblleft" format="1">
  <advance width="740"/>
  <unicode hex="201C"/>
  <outline>
    <contour>
      <point x="179" y="1201" type="line"/>
      <point x="291" y="1201" type="line"/>
      <point x="291" y="1389" type="line"/>
      <point x="225" y="1389" type="line"/>
      <point x="225" y="1533"/>
      <point x="233" y="1587"/>
      <point x="316" y="1620" type="curve"/>
      <point x="301" y="1653" type="line"/>
      <point x="167" y="1615"/>
      <point x="179" y="1498"/>
      <point x="179" y="1390" type="curve" smooth="yes"/>
    </contour>
    <contour>
      <point x="440" y="1201" type="line"/>
      <point x="552" y="1201" type="line"/>
      <point x="552" y="1389" type="line"/>
      <point x="486" y="1389" type="line"/>
      <point x="486" y="1533"/>
      <point x="494" y="1587"/>
      <point x="577" y="1620" type="curve"/>
      <point x="562" y="1653" type="line"/>
      <point x="428" y="1615"/>
      <point x="440" y="1498"/>
      <point x="440" y="1390" type="curve" smooth="yes"/>
    </contour>
  </outline>
</glyph>
<glyph name="quotedblright" format="1">
  <advance width="776"/>
  <unicode hex="201D"/>
  <outline>
    <contour>
      <point x="200" y="1092" type="line"/>
      <point x="306" y="1123"/>
      <point x="314" y="1206"/>
      <point x="314" y="1292" type="curve" smooth="yes"/>
      <point x="314" y="1308"/>
      <point x="314" y="1323"/>
      <point x="314" y="1515" type="curve"/>
      <point x="209" y="1515" type="line"/>
      <point x="209" y="1339" type="line"/>
      <point x="271" y="1339" type="line"/>
      <point x="271" y="1204"/>
      <point x="264" y="1154"/>
      <point x="186" y="1123" type="curve"/>
    </contour>
    <contour>
      <point x="444" y="1092" type="line"/>
      <point x="550" y="1123"/>
      <point x="558" y="1206"/>
      <point x="558" y="1292" type="curve" smooth="yes"/>
      <point x="558" y="1308"/>
      <point x="558" y="1323"/>
      <point x="558" y="1515" type="curve"/>
      <point x="453" y="1515" type="line"/>
      <point x="453" y="1339" type="line"/>
      <point x="515" y="1339" type="line"/>
      <point x="515" y="1204"/>
      <point x="508" y="1154"/>
      <point x="430" y="1123" type="curve"/>
    </contour>
  </outline>
</glyph>
<glyph name="quotedblbase" format="1">
  <advance width="758"/>
  <unicode hex="201E"/>
  <outline>
    <contour>
      <point x="169" y="-234" type="line"/>
      <point x="303" y="-196"/>
      <point x="291" y="-79"/>
      <point x="291" y="29" type="curve" smooth="yes"/>
      <point x="291" y="218" type="line"/>
      <point x="179" y="218" type="line"/>
      <point x="179" y="30" type="line"/>
      <point x="245" y="30" type="line"/>
      <point x="245" y="-114"/>
      <point x="237" y="-168"/>
      <point x="154" y="-201" type="curve"/>
    </contour>
    <contour>
      <point x="430" y="-234" type="line"/>
      <point x="564" y="-196"/>
      <point x="552" y="-79"/>
      <point x="552" y="29" type="curve" smooth="yes"/>
      <point x="552" y="218" type="line"/>
      <point x="440" y="218" type="line"/>
      <point x="440" y="30" type="line"/>
      <point x="506" y="30" type="line"/>
      <point x="506" y="-114"/>
      <point x="498" y="-168"/>
      <point x="415" y="-201" type="curve"/>
    </contour>
  </outline>
</glyph>
<glyph name="dagger" format="1">
  <advance width="1103"/>
  <unicode hex="2020"/>
  <outline>
    <contour>
      <point x="468" y="-200" type="line"/>
      <point x="553" y="-200" type="line"/>
      <point x="553" y="1044" type="line"/>
      <point x="841" y="1044" type="line"/>
      <point x="841" y="1117" type="line"/>
      <point x="556" y="1117" type="line"/>
      <point x="556" y="1620" type="line"/>
      <point x="468" y="1620" type="line"/>
      <point x="468" y="1117" type="line"/>
      <point x="182" y="1117" type="line"/>
      <point x="182" y="1044" type="line"/>
      <point x="468" y="1044" type="line"/>
    </contour>
  </outline>
</glyph>
<glyph name="daggerdbl" format="1">
  <advance width="956"/>
  <unicode hex="2021"/>
  <outline>
    <contour>
      <point x="438" y="-187" type="line"/>
      <point x="517" y="-187" type="line"/>
      <point x="517" y="252" type="line"/>
      <point x="786" y="252" type="line"/>
      <point x="786" y="317" type="line"/>
      <point x="517" y="317" type="line"/>
      <point x="517" y="976" type="line"/>
      <point x="786" y="976" type="line"/>
      <point x="786" y="1044" type="line"/>
      <point x="520" y="1044" type="line"/>
      <point x="520" y="1515" type="line"/>
      <point x="438" y="1515" type="line"/>
      <point x="438" y="1044" type="line"/>
      <point x="170" y="1044" type="line"/>
      <point x="170" y="976" type="line"/>
      <point x="438" y="976" type="line"/>
      <point x="438" y="317" type="line"/>
      <point x="170" y="317" type="line"/>
      <point x="170" y="252" type="line"/>
      <point x="438" y="252" type="line"/>
    </contour>
  </outline>
</glyph>
<glyph name="bullet" format="1">
  <advance width="718"/>
  <unicode hex="2022"/>
  <outline>
    <contour>
      <point x="356" y="355" type="curve" smooth="yes"/>
      <point x="520" y="355"/>
      <point x="664" y="467"/>
      <point x="664" y="653" type="curve" smooth="yes"/>
      <point x="664" y="822"/>
      <point x="528" y="953"/>
      <point x="360" y="953" type="curve" smooth="yes"/>
      <point x="192" y="953"/>
      <point x="54" y="832"/>
      <point x="54" y="653" type="curve" smooth="yes"/>
      <point x="54" y="486"/>
      <point x="185" y="355"/>
    </contour>
  </outline>
</glyph>
<glyph name="perthousand" format="1">
  <advance width="2658"/>
  <unicode hex="2030"/>
  <outline>
    <contour>
      <point x="2218" y="67" type="curve" smooth="yes"/>
      <point x="2090" y="67"/>
      <point x="2008" y="189"/>
      <point x="2008" y="385" type="curve" smooth="yes"/>
      <point x="2008" y="591"/>
      <point x="2090" y="720"/>
      <point x="2218" y="720" type="curve" smooth="yes"/>
      <point x="2346" y="720"/>
      <point x="2428" y="591"/>
      <point x="2428" y="385" type="curve" smooth="yes"/>
      <point x="2428" y="189"/>
      <point x="2346" y="67"/>
    </contour>
    <contour>
      <point x="2218" y="-18" type="curve" smooth="yes"/>
      <point x="2407" y="-18"/>
      <point x="2526" y="138"/>
      <point x="2526" y="386" type="curve" smooth="yes"/>
      <point x="2526" y="640"/>
      <point x="2407" y="799"/>
      <point x="2218" y="799" type="curve" smooth="yes"/>
      <point x="2029" y="799"/>
      <point x="1910" y="640"/>
      <point x="1910" y="386" type="curve" smooth="yes"/>
      <point x="1910" y="138"/>
      <point x="2029" y="-18"/>
    </contour>
    <component base="percent"/>
  </outline>
</glyph>
<glyph name="guilsinglleft" format="1">
  <advance width="612"/>
  <unicode hex="2039"/>
  <outline>
    <contour>
      <point x="549" y="257" type="line"/>
      <point x="549" y="338" type="line"/>
      <point x="159" y="627" type="line"/>
      <point x="549" y="918" type="line"/>
      <point x="549" y="989" type="line"/>
      <point x="97" y="658" type="line"/>
      <point x="97" y="596" type="line"/>
    </contour>
  </outline>
</glyph>
<glyph name="uni203E" format="1">
  <advance width="867"/>
  <unicode hex="203E"/>
  <outline>
    <contour>
      <point x="115" y="114" type="line"/>
      <point x="753" y="114" type="line"/>
      <point x="753" y="223" type="line"/>
      <point x="115" y="223" type="line"/>
    </contour>
  </outline>
</glyph>
<glyph name="fraction" format="1">
  <advance width="836"/>
  <unicode hex="2044"/>
  <outline>
    <contour>
      <point x="77" y="-18" type="line"/>
      <point x="836" y="1638" type="line"/>
      <point x="757" y="1638" type="line"/>
      <point x="0" y="-18" type="line"/>
    </contour>
  </outline>
</glyph>
<glyph name="uni2074" format="1">
  <advance width="1187"/>
  <unicode hex="2074"/>
  <outline>
    <contour>
      <point x="725" y="575" type="line"/>
      <point x="798" y="575" type="line"/>
      <point x="798" y="825" type="line"/>
      <point x="953" y="825" type="line"/>
      <point x="953" y="890" type="line"/>
      <point x="798" y="890" type="line"/>
      <point x="798" y="1663" type="line"/>
      <point x="721" y="1682" type="line"/>
      <point x="181" y="882" type="line"/>
      <point x="197" y="825" type="line"/>
      <point x="725" y="825" type="line"/>
    </contour>
    <contour>
      <point x="269" y="889" type="line"/>
      <point x="725" y="1570" type="line"/>
      <point x="725" y="889" type="line"/>
    </contour>
  </outline>
</glyph>
<glyph name="afii61289" format="1">
  <advance width="828"/>
  <unicode hex="2113"/>
  <outline>
    <contour>
      <point x="554" y="-11" type="curve" smooth="yes"/>
      <point x="610" y="-11"/>
      <point x="670" y="-2"/>
      <point x="731" y="17" type="curve"/>
      <point x="716" y="83" type="line"/>
      <point x="666" y="68"/>
      <point x="613" y="59"/>
      <point x="565" y="59" type="curve" smooth="yes"/>
      <point x="464" y="59"/>
      <point x="383" y="99"/>
      <point x="383" y="213" type="curve" smooth="yes"/>
      <point x="383" y="992" type="line"/>
      <point x="556" y="1157" type="line" smooth="yes"/>
      <point x="622" y="1220"/>
      <point x="656" y="1260"/>
      <point x="656" y="1321" type="curve" smooth="yes"/>
      <point x="656" y="1417"/>
      <point x="575" y="1478"/>
      <point x="482" y="1478" type="curve" smooth="yes"/>
      <point x="398" y="1478"/>
      <point x="295" y="1425"/>
      <point x="295" y="1270" type="curve" smooth="yes"/>
      <point x="295" y="1005" type="line"/>
      <point x="71" y="790" type="line"/>
      <point x="71" y="702" type="line"/>
      <point x="294" y="917" type="line"/>
      <point x="294" y="212" type="line" smooth="yes"/>
      <point x="294" y="55"/>
      <point x="408" y="-11"/>
    </contour>
    <contour>
      <point x="383" y="1080" type="line"/>
      <point x="383" y="1273" type="line" smooth="yes"/>
      <point x="383" y="1360"/>
      <point x="433" y="1397"/>
      <point x="482" y="1397" type="curve" smooth="yes"/>
      <point x="528" y="1397"/>
      <point x="570" y="1366"/>
      <point x="570" y="1310" type="curve" smooth="yes"/>
      <point x="570" y="1274"/>
      <point x="547" y="1238"/>
      <point x="510" y="1202" type="curve" smooth="yes"/>
    </contour>
  </outline>
</glyph>
<glyph name="trademark" format="1">
  <advance width="1349"/>
  <unicode hex="2122"/>
  <outline>
    <contour>
      <point x="612" y="886" type="line"/>
      <point x="691" y="886" type="line"/>
      <point x="691" y="1383" type="line"/>
      <point x="877" y="933" type="line"/>
      <point x="967" y="933" type="line"/>
      <point x="1155" y="1383" type="line"/>
      <point x="1155" y="886" type="line"/>
      <point x="1233" y="886" type="line"/>
      <point x="1233" y="1516" type="line"/>
      <point x="1134" y="1516" type="line"/>
      <point x="925" y="995" type="line"/>
      <point x="711" y="1516" type="line"/>
      <point x="612" y="1516" type="line"/>
    </contour>
    <contour>
      <point x="251" y="886" type="line"/>
      <point x="329" y="886" type="line"/>
      <point x="329" y="1458" type="line"/>
      <point x="497" y="1458" type="line"/>
      <point x="497" y="1516" type="line"/>
      <point x="82" y="1516" type="line"/>
      <point x="82" y="1458" type="line"/>
      <point x="251" y="1458" type="line"/>
    </contour>
  </outline>
</glyph>
<glyph name="Omega" format="1">
  <advance width="1826"/>
  <unicode hex="2126"/>
  <outline>
    <contour>
      <point x="232" y="0" type="line"/>
      <point x="752" y="0" type="line"/>
      <point x="751" y="57" type="line"/>
      <point x="442" y="238"/>
      <point x="292" y="544"/>
      <point x="292" y="824" type="curve" smooth="yes"/>
      <point x="292" y="1161"/>
      <point x="510" y="1460"/>
      <point x="928" y="1460" type="curve" smooth="yes"/>
      <point x="1346" y="1460"/>
      <point x="1563" y="1161"/>
      <point x="1563" y="824" type="curve" smooth="yes"/>
      <point x="1563" y="544"/>
      <point x="1413" y="238"/>
      <point x="1104" y="57" type="curve"/>
      <point x="1103" y="0" type="line"/>
      <point x="1623" y="0" type="line"/>
      <point x="1631" y="60" type="line"/>
      <point x="1199" y="60" type="line"/>
      <point x="1499" y="230"/>
      <point x="1649" y="536"/>
      <point x="1649" y="825" type="curve" smooth="yes"/>
      <point x="1649" y="1192"/>
      <point x="1408" y="1532"/>
      <point x="928" y="1532" type="curve" smooth="yes"/>
      <point x="448" y="1532"/>
      <point x="206" y="1192"/>
      <point x="206" y="825" type="curve" smooth="yes"/>
      <point x="206" y="536"/>
      <point x="356" y="230"/>
      <point x="656" y="60" type="curve"/>
      <point x="224" y="60" type="line"/>
    </contour>
  </outline>
</glyph>
<glyph name="estimated" format="1">
  <advance width="1184"/>
  <unicode hex="212E"/>
  <outline>
    <contour>
      <point x="660" y="82" type="curve" smooth="yes"/>
      <point x="775" y="82"/>
      <point x="947" y="131"/>
      <point x="1044" y="220" type="curve"/>
      <point x="1008" y="286" type="line"/>
      <point x="922" y="214"/>
      <point x="795" y="162"/>
      <point x="664" y="162" type="curve" smooth="yes"/>
      <point x="527" y="162"/>
      <point x="425" y="206"/>
      <point x="353" y="280" type="curve"/>
      <point x="353" y="696" type="line"/>
      <point x="1066" y="696" type="line"/>
      <point x="1066" y="696"/>
      <point x="1078" y="736"/>
      <point x="1078" y="794" type="curve" smooth="yes"/>
      <point x="1078" y="1055"/>
      <point x="942" y="1290"/>
      <point x="644" y="1290" type="curve" smooth="yes"/>
      <point x="296" y="1290"/>
      <point x="118" y="1023"/>
      <point x="118" y="699" type="curve" smooth="yes"/>
      <point x="118" y="348"/>
      <point x="298" y="82"/>
    </contour>
    <contour>
      <point x="353" y="770" type="line"/>
      <point x="353" y="1102" type="line"/>
      <point x="420" y="1169"/>
      <point x="516" y="1210"/>
      <point x="647" y="1210" type="curve" smooth="yes"/>
      <point x="764" y="1210"/>
      <point x="848" y="1162"/>
      <point x="903" y="1089" type="curve"/>
      <point x="903" y="770" type="line"/>
    </contour>
  </outline>
</glyph>
<glyph name="emptyset" format="1">
  <advance width="1756"/>
  <unicode hex="2205"/>
  <outline>
    <contour>
      <point x="349" y="-72" type="line"/>
      <point x="512" y="111" type="line"/>
      <point x="616" y="30"/>
      <point x="746" y="-18"/>
      <point x="887" y="-18" type="curve" smooth="yes"/>
      <point x="1224" y="-18"/>
      <point x="1497" y="255"/>
      <point x="1497" y="592" type="curve" smooth="yes"/>
      <point x="1497" y="758"/>
      <point x="1431" y="908"/>
      <point x="1324" y="1018" type="curve"/>
      <point x="1483" y="1195" type="line"/>
      <point x="1436" y="1239" type="line"/>
      <point x="1277" y="1061" type="line"/>
      <point x="1171" y="1149"/>
      <point x="1035" y="1202"/>
      <point x="887" y="1202" type="curve" smooth="yes"/>
      <point x="550" y="1202"/>
      <point x="277" y="929"/>
      <point x="277" y="592" type="curve" smooth="yes"/>
      <point x="277" y="420"/>
      <point x="348" y="264"/>
      <point x="463" y="153" type="curve"/>
      <point x="301" y="-28" type="line"/>
    </contour>
    <contour>
      <point x="516" y="212" type="line"/>
      <point x="421" y="309"/>
      <point x="365" y="445"/>
      <point x="365" y="592" type="curve" smooth="yes"/>
      <point x="365" y="880"/>
      <point x="578" y="1124"/>
      <point x="887" y="1124" type="curve" smooth="yes"/>
      <point x="1021" y="1124"/>
      <point x="1136" y="1078"/>
      <point x="1225" y="1003" type="curve"/>
    </contour>
    <contour>
      <point x="887" y="60" type="curve" smooth="yes"/>
      <point x="761" y="60"/>
      <point x="651" y="101"/>
      <point x="564" y="169" type="curve"/>
      <point x="1271" y="958" type="line"/>
      <point x="1359" y="862"/>
      <point x="1409" y="732"/>
      <point x="1409" y="592" type="curve" smooth="yes"/>
      <point x="1409" y="304"/>
      <point x="1196" y="60"/>
    </contour>
  </outline>
</glyph>
<glyph name="Delta" format="1">
  <advance width="1267"/>
  <unicode hex="2206"/>
  <outline>
    <contour>
      <point x="46" y="0" type="line"/>
      <point x="1223" y="0" type="line"/>
      <point x="684" y="1485" type="line"/>
      <point x="573" y="1485" type="line"/>
    </contour>
    <contour>
      <point x="171" y="81" type="line"/>
      <point x="631" y="1418" type="line"/>
      <point x="1101" y="81" type="line"/>
    </contour>
  </outline>
</glyph>
<glyph name="product" format="1">
  <advance width="1466"/>
  <unicode hex="220F"/>
  <outline>
    <contour>
      <point x="204" y="-100" type="line"/>
      <point x="302" y="-100" type="line"/>
      <point x="302" y="1544" type="line"/>
      <point x="1164" y="1544" type="line"/>
      <point x="1164" y="-100" type="line"/>
      <point x="1262" y="-100" type="line"/>
      <point x="1262" y="1544" type="line"/>
      <point x="1434" y="1544" type="line"/>
      <point x="1434" y="1620" type="line"/>
      <point x="32" y="1620" type="line"/>
      <point x="32" y="1544" type="line"/>
      <point x="204" y="1544" type="line"/>
    </contour>
  </outline>
</glyph>
<glyph name="minus" format="1">
  <advance width="676"/>
  <unicode hex="2212"/>
  <outline>
    <contour>
      <point x="45" y="532" type="line"/>
      <point x="609" y="532" type="line"/>
      <point x="609" y="597" type="line"/>
      <point x="45" y="597" type="line"/>
    </contour>
  </outline>
</glyph>
<glyph name="infinity" format="1">
  <advance width="1561"/>
  <unicode hex="221E"/>
  <outline>
    <contour>
      <point x="355" y="508" type="curve" smooth="yes"/>
      <point x="513" y="508"/>
      <point x="649" y="621"/>
      <point x="781" y="737" type="curve"/>
      <point x="913" y="621"/>
      <point x="1048" y="508"/>
      <point x="1206" y="508" type="curve" smooth="yes"/>
      <point x="1343" y="508"/>
      <point x="1449" y="592"/>
      <point x="1451" y="775" type="curve"/>
      <point x="1449" y="958"/>
      <point x="1343" y="1043"/>
      <point x="1206" y="1043" type="curve" smooth="yes"/>
      <point x="1048" y="1043"/>
      <point x="913" y="929"/>
      <point x="781" y="813" type="curve"/>
      <point x="649" y="929"/>
      <point x="513" y="1043"/>
      <point x="355" y="1043" type="curve" smooth="yes"/>
      <point x="218" y="1043"/>
      <point x="112" y="958"/>
      <point x="110" y="775" type="curve" smooth="yes"/>
      <point x="112" y="592"/>
      <point x="218" y="508"/>
    </contour>
    <contour>
      <point x="366" y="572" type="curve" smooth="yes"/>
      <point x="250" y="572"/>
      <point x="173" y="627"/>
      <point x="171" y="775" type="curve"/>
      <point x="173" y="923"/>
      <point x="250" y="978"/>
      <point x="366" y="978" type="curve" smooth="yes"/>
      <point x="497" y="978"/>
      <point x="616" y="881"/>
      <point x="737" y="775" type="curve"/>
      <point x="616" y="669"/>
      <point x="497" y="572"/>
    </contour>
    <contour>
      <point x="1196" y="572" type="curve" smooth="yes"/>
      <point x="1065" y="572"/>
      <point x="946" y="669"/>
      <point x="825" y="775" type="curve"/>
      <point x="946" y="881"/>
      <point x="1065" y="978"/>
      <point x="1196" y="978" type="curve" smooth="yes"/>
      <point x="1312" y="978"/>
      <point x="1388" y="923"/>
      <point x="1390" y="775" type="curve" smooth="yes"/>
      <point x="1388" y="627"/>
      <point x="1312" y="572"/>
    </contour>
  </outline>
</glyph>
<glyph name="integral" format="1">
  <advance width="1134"/>
  <unicode hex="222B"/>
  <outline>
    <contour>
      <point x="314" y="-210" type="curve" smooth="yes"/>
      <point x="459" y="-210"/>
      <point x="510" y="-85"/>
      <point x="545" y="180" type="curve" smooth="yes"/>
      <point x="672" y="1144" type="line" smooth="yes"/>
      <point x="704" y="1382"/>
      <point x="755" y="1465"/>
      <point x="859" y="1465" type="curve" smooth="yes"/>
      <point x="904" y="1465"/>
      <point x="960" y="1449"/>
      <point x="1029" y="1423" type="curve"/>
      <point x="1049" y="1478" type="line"/>
      <point x="969" y="1511"/>
      <point x="900" y="1532"/>
      <point x="841" y="1532" type="curve" smooth="yes"/>
      <point x="712" y="1532"/>
      <point x="630" y="1434"/>
      <point x="593" y="1153" type="curve" smooth="yes"/>
      <point x="466" y="189" type="line" smooth="yes"/>
      <point x="435" y="-47"/>
      <point x="397" y="-132"/>
      <point x="288" y="-132" type="curve" smooth="yes"/>
      <point x="244" y="-132"/>
      <point x="189" y="-118"/>
      <point x="119" y="-94" type="curve"/>
      <point x="89" y="-145" type="line"/>
      <point x="181" y="-189"/>
      <point x="254" y="-210"/>
    </contour>
  </outline>
</glyph>
<glyph name="notequal" format="1">
  <advance width="720"/>
  <unicode hex="2260"/>
  <outline>
    <contour>
      <point x="210" y="-67" type="line"/>
      <point x="338" y="347" type="line"/>
      <point x="640" y="347" type="line"/>
      <point x="640" y="409" type="line"/>
      <point x="357" y="409" type="line"/>
      <point x="424" y="622" type="line"/>
      <point x="640" y="622" type="line"/>
      <point x="640" y="683" type="line"/>
      <point x="442" y="683" type="line"/>
      <point x="566" y="1083" type="line"/>
      <point x="520" y="1100" type="line"/>
      <point x="391" y="683" type="line"/>
      <point x="80" y="683" type="line"/>
      <point x="80" y="622" type="line"/>
      <point x="372" y="622" type="line"/>
      <point x="306" y="409" type="line"/>
      <point x="80" y="409" type="line"/>
      <point x="80" y="347" type="line"/>
      <point x="287" y="347" type="line"/>
      <point x="165" y="-50" type="line"/>
    </contour>
  </outline>
</glyph>
<glyph name="lessequal" format="1">
  <advance width="1407"/>
  <unicode hex="2264"/>
  <outline>
    <contour>
      <point x="1080" y="417" type="line"/>
      <point x="1123" y="482" type="line"/>
      <point x="377" y="863" type="line"/>
      <point x="1123" y="1244" type="line"/>
      <point x="1080" y="1309" type="line"/>
      <point x="231" y="863" type="line"/>
    </contour>
    <contour>
      <point x="210" y="0" type="line"/>
      <point x="1106" y="0" type="line"/>
      <point x="1106" y="67" type="line"/>
      <point x="210" y="67" type="line"/>
    </contour>
  </outline>
</glyph>
<glyph name="greaterequal" format="1">
  <advance width="1407"/>
  <unicode hex="2265"/>
  <outline>
    <contour>
      <point x="327" y="417" type="line"/>
      <point x="1176" y="863" type="line"/>
      <point x="327" y="1309" type="line"/>
      <point x="284" y="1244" type="line"/>
      <point x="1030" y="863" type="line"/>
      <point x="284" y="482" type="line"/>
    </contour>
    <contour>
      <point x="301" y="0" type="line"/>
      <point x="1197" y="0" type="line"/>
      <point x="1197" y="67" type="line"/>
      <point x="301" y="67" type="line"/>
    </contour>
  </outline>
</glyph>
<glyph name="lozenge" format="1">
  <advance width="1641"/>
  <unicode hex="25CA"/>
  <outline>
    <contour>
      <point x="823" y="46" type="line"/>
      <point x="342" y="545" type="line"/>
      <point x="824" y="1046" type="line"/>
      <point x="1304" y="547" type="line"/>
    </contour>
    <contour>
      <point x="823" y="-51" type="line"/>
      <point x="1402" y="547" type="line"/>
      <point x="824" y="1144" type="line"/>
      <point x="244" y="545" type="line"/>
    </contour>
  </outline>
</glyph>
<glyph name="uniFB01" format="1">
  <advance width="1159"/>
  <unicode hex="FB01"/>
  <outline>
    <contour>
      <point x="236" y="0" type="line"/>
      <point x="334" y="0" type="line"/>
      <point x="334" y="1106" type="line"/>
      <point x="889" y="1106" type="line"/>
      <point x="889" y="0" type="line"/>
      <point x="985" y="0" type="line"/>
      <point x="985" y="1172" type="line"/>
      <point x="334" y="1172" type="line"/>
      <point x="334" y="1224" type="line" smooth="yes"/>
      <point x="334" y="1425"/>
      <point x="357" y="1528"/>
      <point x="489" y="1539" type="curve" smooth="yes"/>
      <point x="560" y="1545"/>
      <point x="638" y="1525"/>
      <point x="688" y="1506" type="curve"/>
      <point x="709" y="1574" type="line"/>
      <point x="664" y="1594"/>
      <point x="572" y="1621"/>
      <point x="482" y="1614" type="curve" smooth="yes"/>
      <point x="308" y="1600"/>
      <point x="236" y="1501"/>
      <point x="236" y="1224" type="curve" smooth="yes"/>
      <point x="236" y="1172" type="line"/>
      <point x="38" y="1172" type="line"/>
      <point x="38" y="1106" type="line"/>
      <point x="236" y="1106" type="line"/>
    </contour>
    <contour>
      <point x="939" y="1352" type="curve" smooth="yes"/>
      <point x="986" y="1352"/>
      <point x="1009" y="1387"/>
      <point x="1009" y="1423" type="curve" smooth="yes"/>
      <point x="1009" y="1458"/>
      <point x="986" y="1493"/>
      <point x="939" y="1493" type="curve" smooth="yes"/>
      <point x="892" y="1493"/>
      <point x="869" y="1458"/>
      <point x="869" y="1423" type="curve" smooth="yes"/>
      <point x="869" y="1387"/>
      <point x="892" y="1352"/>
    </contour>
  </outline>
</glyph>
<glyph name="uniFB02" format="1">
  <advance width="1098"/>
  <unicode hex="FB02"/>
  <outline>
    <contour>
      <point x="221" y="0" type="line"/>
      <point x="312" y="0" type="line"/>
      <point x="312" y="1034" type="line"/>
      <point x="671" y="1034" type="line"/>
      <point x="671" y="1096" type="line"/>
      <point x="312" y="1096" type="line"/>
      <point x="312" y="1144" type="line" smooth="yes"/>
      <point x="312" y="1353"/>
      <point x="391" y="1449"/>
      <point x="579" y="1449" type="curve" smooth="yes"/>
      <point x="651" y="1449"/>
      <point x="738" y="1435"/>
      <point x="844" y="1408" type="curve"/>
      <point x="844" y="0" type="line"/>
      <point x="934" y="0" type="line"/>
      <point x="934" y="1462" type="line"/>
      <point x="793" y="1501"/>
      <point x="672" y="1522"/>
      <point x="572" y="1522" type="curve" smooth="yes"/>
      <point x="337" y="1522"/>
      <point x="221" y="1406"/>
      <point x="221" y="1144" type="curve" smooth="yes"/>
      <point x="221" y="1096" type="line"/>
      <point x="36" y="1096" type="line"/>
      <point x="36" y="1034" type="line"/>
      <point x="221" y="1034" type="line"/>
    </contour>
  </outline>
</glyph>
<glyph name="caron.alt" format="1">
  <advance width="600"/>
  <outline>
    <contour>
      <point x="30" y="1172" type="move" name="_caron.alt"/>
    </contour>
    <component base="comma" xOffset="40" yOffset="1439"/>
  </outline>
</glyph>
<glyph name="fj" format="1">
  <advance width="1130"/>
  <outline>
    <contour>
      <point x="312" y="1096" type="line"/>
      <point x="312" y="1348"/>
      <point x="329" y="1440"/>
      <point x="483" y="1440" type="curve" smooth="yes"/>
      <point x="541" y="1440"/>
      <point x="602" y="1424"/>
      <point x="643" y="1408" type="curve"/>
      <point x="663" y="1472" type="line"/>
      <point x="619" y="1492"/>
      <point x="517" y="1514"/>
      <point x="451" y="1509" type="curve" smooth="yes"/>
      <point x="281" y="1495"/>
      <point x="221" y="1411"/>
      <point x="221" y="1096" type="curve"/>
      <point x="36" y="1096" type="line"/>
      <point x="36" y="1034" type="line"/>
      <point x="221" y="1034" type="line"/>
      <point x="221" y="0" type="line"/>
      <point x="312" y="0" type="line"/>
      <point x="312" y="1034" type="line"/>
      <point x="878" y="1034" type="line"/>
      <point x="878" y="94" type="line" smooth="yes"/>
      <point x="878" y="-192"/>
      <point x="871" y="-226"/>
      <point x="663" y="-292" type="curve"/>
      <point x="686" y="-366" type="line"/>
      <point x="934" y="-292"/>
      <point x="968" y="-229"/>
      <point x="968" y="94" type="curve" smooth="yes"/>
      <point x="968" y="1096" type="line"/>
    </contour>
    <contour>
      <point x="925" y="1264" type="curve" smooth="yes"/>
      <point x="969" y="1264"/>
      <point x="990" y="1297"/>
      <point x="990" y="1331" type="curve" smooth="yes"/>
      <point x="990" y="1364"/>
      <point x="969" y="1396"/>
      <point x="925" y="1396" type="curve" smooth="yes"/>
      <point x="881" y="1396"/>
      <point x="859" y="1364"/>
      <point x="859" y="1331" type="curve" smooth="yes"/>
      <point x="859" y="1297"/>
      <point x="881" y="1264"/>
    </contour>
  </outline>
</glyph>
